<svg width="375" height="263" viewBox="0 0 375 263" fill="none" xmlns="http://www.w3.org/2000/svg">
<g filter="url(#filter0_dddd_356_66)">
<rect x="10" y="12" width="229" height="132.257" rx="19.5936" fill="white"/>
<rect x="10.6123" y="12.6123" width="227.775" height="131.032" rx="18.9813" stroke="black" stroke-opacity="0.1" stroke-width="1.2246"/>
<g clip-path="url(#clip0_356_66)">
<path d="M11.3454 134.241C-6.20801 134.241 -11.8502 140.089 -20 147H334.83C334.83 147 421.343 82.1397 395.013 82.1397C368.683 81.6081 356.772 58.7475 334.83 58.7475C312.888 58.7475 305.992 99.1523 281.543 99.1523C257.093 99.1523 251.451 36.9502 226.375 38.0135C201.299 39.0768 191.268 61.4057 165.565 68.317C139.862 75.2284 145.576 135.937 120.5 137C95.4237 138.063 84.6937 96.494 59.6174 99.1523C34.541 101.81 28.8989 134.241 11.3454 134.241Z" fill="#9747FF" fill-opacity="0.1" stroke="#9747FF" stroke-width="2" stroke-linecap="round" stroke-linejoin="round"/>
</g>
<path d="M37.2295 30.1973V31.209H34.0098V40H32.957V31.209H29.7373V30.1973H37.2295ZM37.6602 34.0801C38.3392 33.3965 39.1732 33.0547 40.1621 33.0547C41.151 33.0547 41.985 33.3965 42.6641 34.0801C43.3477 34.7591 43.6895 35.5977 43.6895 36.5957C43.6895 37.5938 43.3477 38.4346 42.6641 39.1182C41.985 39.7972 41.151 40.1367 40.1621 40.1367C39.1732 40.1367 38.3392 39.7972 37.6602 39.1182C36.9857 38.4346 36.6484 37.5938 36.6484 36.5957C36.6484 35.5977 36.9857 34.7591 37.6602 34.0801ZM40.1621 34.0254C39.4557 34.0254 38.861 34.2715 38.3779 34.7637C37.8949 35.2559 37.6533 35.8665 37.6533 36.5957C37.6533 37.3203 37.8949 37.931 38.3779 38.4277C38.861 38.9245 39.4557 39.1729 40.1621 39.1729C40.8685 39.1729 41.4655 38.9245 41.9531 38.4277C42.4408 37.9264 42.6846 37.3158 42.6846 36.5957C42.6846 35.8711 42.4408 35.2627 41.9531 34.7705C41.4701 34.2738 40.873 34.0254 40.1621 34.0254ZM48.4814 34.1484H46.5811V37.7031C46.5811 38.6465 47.0573 39.1182 48.0098 39.1182C48.2012 39.1182 48.3584 39.0999 48.4814 39.0635V40C48.2764 40.0456 48.0576 40.0684 47.8252 40.0684C47.1143 40.0684 46.5583 39.8724 46.1572 39.4805C45.7562 39.084 45.5557 38.4961 45.5557 37.7168V34.1484H44.2158V33.1982H45.5557V31.3184H46.5811V33.1982H48.4814V34.1484ZM55.1943 33.1982H56.2197V40H55.1943V38.4209C54.9437 38.9678 54.5791 39.3916 54.1006 39.6924C53.6266 39.9886 53.0684 40.1367 52.4258 40.1367C51.8105 40.1367 51.2432 39.9795 50.7236 39.665C50.2087 39.3506 49.8008 38.9199 49.5 38.373C49.1992 37.8262 49.0488 37.2292 49.0488 36.582C49.0488 35.9349 49.1992 35.3402 49.5 34.7979C49.8008 34.2555 50.2087 33.8294 50.7236 33.5195C51.2432 33.2096 51.8105 33.0547 52.4258 33.0547C53.0684 33.0547 53.6289 33.2051 54.1074 33.5059C54.5859 33.8021 54.9482 34.2214 55.1943 34.7637V33.1982ZM52.6172 39.1729C53.36 39.1729 53.9753 38.929 54.4629 38.4414C54.9505 37.9492 55.1943 37.3294 55.1943 36.582C55.1943 35.8392 54.9505 35.224 54.4629 34.7363C53.9753 34.2487 53.36 34.0049 52.6172 34.0049C51.8971 34.0049 51.2887 34.2555 50.792 34.7568C50.2998 35.2581 50.0537 35.8665 50.0537 36.582C50.0537 37.3112 50.2998 37.9264 50.792 38.4277C51.2887 38.9245 51.8971 39.1729 52.6172 39.1729ZM59.2002 30.1973V40H58.1748V30.1973H59.2002ZM64.6621 30.1973H70.1377V31.209H65.708V34.2578H69.6592V35.2695H65.708V38.9951H70.1377V40H64.6621V30.1973ZM77.3564 33.1982H78.3818V40H77.3564V38.4209C77.1058 38.9678 76.7412 39.3916 76.2627 39.6924C75.7887 39.9886 75.2305 40.1367 74.5879 40.1367C73.9727 40.1367 73.4053 39.9795 72.8857 39.665C72.3708 39.3506 71.9629 38.9199 71.6621 38.373C71.3613 37.8262 71.2109 37.2292 71.2109 36.582C71.2109 35.9349 71.3613 35.3402 71.6621 34.7979C71.9629 34.2555 72.3708 33.8294 72.8857 33.5195C73.4053 33.2096 73.9727 33.0547 74.5879 33.0547C75.2305 33.0547 75.791 33.2051 76.2695 33.5059C76.748 33.8021 77.1104 34.2214 77.3564 34.7637V33.1982ZM74.7793 39.1729C75.5221 39.1729 76.1374 38.929 76.625 38.4414C77.1126 37.9492 77.3564 37.3294 77.3564 36.582C77.3564 35.8392 77.1126 35.224 76.625 34.7363C76.1374 34.2487 75.5221 34.0049 74.7793 34.0049C74.0592 34.0049 73.4508 34.2555 72.9541 34.7568C72.4619 35.2581 72.2158 35.8665 72.2158 36.582C72.2158 37.3112 72.4619 37.9264 72.9541 38.4277C73.4508 38.9245 74.0592 39.1729 74.7793 39.1729ZM83.2764 33.0547C83.4541 33.0547 83.666 33.082 83.9121 33.1367V34.0938C83.6888 34.0163 83.4678 33.9775 83.249 33.9775C82.7158 33.9775 82.2669 34.1667 81.9023 34.5449C81.5423 34.9186 81.3623 35.3926 81.3623 35.9668V40H80.3369V33.1982H81.3623V34.2852C81.5628 33.9023 81.8294 33.6016 82.1621 33.3828C82.4948 33.1641 82.8662 33.0547 83.2764 33.0547ZM88.5811 33.0547C89.4606 33.0547 90.1579 33.3281 90.6729 33.875C91.1924 34.4173 91.4521 35.1533 91.4521 36.083V40H90.4268V36.1787C90.4268 35.527 90.2376 35.0052 89.8594 34.6133C89.4857 34.2214 88.9889 34.0254 88.3691 34.0254C87.7311 34.0254 87.2184 34.2236 86.8311 34.6201C86.4482 35.012 86.2568 35.5316 86.2568 36.1787V40H85.2314V33.1982H86.2568V34.5244C86.4756 34.0596 86.7855 33.6995 87.1865 33.4443C87.5876 33.1846 88.0524 33.0547 88.5811 33.0547ZM93.9268 30.2246C94.1227 30.2246 94.2959 30.2975 94.4463 30.4434C94.5967 30.5892 94.6719 30.7601 94.6719 30.9561C94.6719 31.1566 94.5967 31.332 94.4463 31.4824C94.2959 31.6283 94.1227 31.7012 93.9268 31.7012C93.7262 31.7012 93.5553 31.6283 93.4141 31.4824C93.2728 31.3366 93.2021 31.1611 93.2021 30.9561C93.2021 30.7601 93.2728 30.5892 93.4141 30.4434C93.5553 30.2975 93.7262 30.2246 93.9268 30.2246ZM93.4072 33.1982H94.4326V40H93.4072V33.1982ZM99.7373 33.0547C100.617 33.0547 101.314 33.3281 101.829 33.875C102.349 34.4173 102.608 35.1533 102.608 36.083V40H101.583V36.1787C101.583 35.527 101.394 35.0052 101.016 34.6133C100.642 34.2214 100.145 34.0254 99.5254 34.0254C98.8874 34.0254 98.3747 34.2236 97.9873 34.6201C97.6045 35.012 97.4131 35.5316 97.4131 36.1787V40H96.3877V33.1982H97.4131V34.5244C97.6318 34.0596 97.9417 33.6995 98.3428 33.4443C98.7438 33.1846 99.2087 33.0547 99.7373 33.0547ZM110.306 33.1846H111.331V39.7881C111.331 40.7223 111.014 41.4743 110.381 42.0439C109.747 42.6136 108.934 42.8984 107.94 42.8984C107.549 42.8984 107.168 42.8483 106.799 42.748C106.43 42.6523 106.086 42.5111 105.767 42.3242C105.452 42.1374 105.195 41.8844 104.994 41.5654C104.798 41.251 104.693 40.8932 104.68 40.4922H105.671C105.685 40.957 105.906 41.3285 106.334 41.6064C106.762 41.889 107.289 42.0303 107.913 42.0303C108.606 42.0303 109.178 41.8252 109.629 41.415C110.08 41.0094 110.306 40.4808 110.306 39.8291V38.332C110.055 38.8698 109.69 39.2868 109.212 39.583C108.738 39.8792 108.18 40.0273 107.537 40.0273C106.922 40.0273 106.354 39.8724 105.835 39.5625C105.32 39.2526 104.912 38.8288 104.611 38.291C104.311 37.7533 104.16 37.1654 104.16 36.5273C104.16 35.8939 104.311 35.3105 104.611 34.7773C104.912 34.2441 105.32 33.8249 105.835 33.5195C106.354 33.2096 106.922 33.0547 107.537 33.0547C108.18 33.0547 108.738 33.2028 109.212 33.499C109.69 33.7907 110.055 34.2031 110.306 34.7363V33.1846ZM107.729 39.0771C108.471 39.0771 109.087 38.8379 109.574 38.3594C110.062 37.8763 110.306 37.2656 110.306 36.5273C110.306 35.7982 110.062 35.1943 109.574 34.7158C109.087 34.2327 108.471 33.9912 107.729 33.9912C107.008 33.9912 106.4 34.2373 105.903 34.7295C105.411 35.2171 105.165 35.8164 105.165 36.5273C105.165 37.2428 105.411 37.8467 105.903 38.3389C106.4 38.8311 107.008 39.0771 107.729 39.0771ZM115.528 40.1367C114.763 40.1367 114.129 39.943 113.628 39.5557C113.127 39.1683 112.842 38.6442 112.773 37.9834H113.751C113.797 38.3708 113.979 38.6807 114.298 38.9131C114.617 39.141 115.013 39.2549 115.487 39.2549C115.961 39.2549 116.342 39.1478 116.629 38.9336C116.921 38.7148 117.066 38.4346 117.066 38.0928C117.066 37.8649 117.007 37.6735 116.889 37.5186C116.77 37.359 116.613 37.2406 116.417 37.1631C116.226 37.0856 116.007 37.015 115.761 36.9512C115.515 36.8874 115.262 36.835 115.002 36.7939C114.742 36.7529 114.489 36.6891 114.243 36.6025C113.997 36.516 113.776 36.4134 113.58 36.2949C113.389 36.1719 113.234 35.9987 113.115 35.7754C112.997 35.5475 112.938 35.2764 112.938 34.9619C112.938 34.4014 113.159 33.9434 113.601 33.5879C114.043 33.2324 114.628 33.0547 115.357 33.0547C116.027 33.0547 116.604 33.2324 117.087 33.5879C117.575 33.9388 117.857 34.4105 117.935 35.0029H116.902C116.852 34.6839 116.681 34.4219 116.39 34.2168C116.098 34.0117 115.745 33.9092 115.33 33.9092C114.915 33.9092 114.578 34.0003 114.318 34.1826C114.063 34.3604 113.936 34.5951 113.936 34.8867C113.936 35.1328 114.011 35.3333 114.161 35.4883C114.316 35.6432 114.514 35.7572 114.756 35.8301C114.997 35.903 115.264 35.9668 115.556 36.0215C115.852 36.0716 116.146 36.1354 116.438 36.2129C116.734 36.2904 117.003 36.3929 117.244 36.5205C117.486 36.6481 117.682 36.8418 117.832 37.1016C117.987 37.3613 118.064 37.6826 118.064 38.0654C118.064 38.667 117.823 39.1637 117.34 39.5557C116.861 39.943 116.257 40.1367 115.528 40.1367Z" fill="#444444"/>
<path d="M37.2295 30.1973V31.209H34.0098V40H32.957V31.209H29.7373V30.1973H37.2295ZM37.6602 34.0801C38.3392 33.3965 39.1732 33.0547 40.1621 33.0547C41.151 33.0547 41.985 33.3965 42.6641 34.0801C43.3477 34.7591 43.6895 35.5977 43.6895 36.5957C43.6895 37.5938 43.3477 38.4346 42.6641 39.1182C41.985 39.7972 41.151 40.1367 40.1621 40.1367C39.1732 40.1367 38.3392 39.7972 37.6602 39.1182C36.9857 38.4346 36.6484 37.5938 36.6484 36.5957C36.6484 35.5977 36.9857 34.7591 37.6602 34.0801ZM40.1621 34.0254C39.4557 34.0254 38.861 34.2715 38.3779 34.7637C37.8949 35.2559 37.6533 35.8665 37.6533 36.5957C37.6533 37.3203 37.8949 37.931 38.3779 38.4277C38.861 38.9245 39.4557 39.1729 40.1621 39.1729C40.8685 39.1729 41.4655 38.9245 41.9531 38.4277C42.4408 37.9264 42.6846 37.3158 42.6846 36.5957C42.6846 35.8711 42.4408 35.2627 41.9531 34.7705C41.4701 34.2738 40.873 34.0254 40.1621 34.0254ZM48.4814 34.1484H46.5811V37.7031C46.5811 38.6465 47.0573 39.1182 48.0098 39.1182C48.2012 39.1182 48.3584 39.0999 48.4814 39.0635V40C48.2764 40.0456 48.0576 40.0684 47.8252 40.0684C47.1143 40.0684 46.5583 39.8724 46.1572 39.4805C45.7562 39.084 45.5557 38.4961 45.5557 37.7168V34.1484H44.2158V33.1982H45.5557V31.3184H46.5811V33.1982H48.4814V34.1484ZM55.1943 33.1982H56.2197V40H55.1943V38.4209C54.9437 38.9678 54.5791 39.3916 54.1006 39.6924C53.6266 39.9886 53.0684 40.1367 52.4258 40.1367C51.8105 40.1367 51.2432 39.9795 50.7236 39.665C50.2087 39.3506 49.8008 38.9199 49.5 38.373C49.1992 37.8262 49.0488 37.2292 49.0488 36.582C49.0488 35.9349 49.1992 35.3402 49.5 34.7979C49.8008 34.2555 50.2087 33.8294 50.7236 33.5195C51.2432 33.2096 51.8105 33.0547 52.4258 33.0547C53.0684 33.0547 53.6289 33.2051 54.1074 33.5059C54.5859 33.8021 54.9482 34.2214 55.1943 34.7637V33.1982ZM52.6172 39.1729C53.36 39.1729 53.9753 38.929 54.4629 38.4414C54.9505 37.9492 55.1943 37.3294 55.1943 36.582C55.1943 35.8392 54.9505 35.224 54.4629 34.7363C53.9753 34.2487 53.36 34.0049 52.6172 34.0049C51.8971 34.0049 51.2887 34.2555 50.792 34.7568C50.2998 35.2581 50.0537 35.8665 50.0537 36.582C50.0537 37.3112 50.2998 37.9264 50.792 38.4277C51.2887 38.9245 51.8971 39.1729 52.6172 39.1729ZM59.2002 30.1973V40H58.1748V30.1973H59.2002ZM64.6621 30.1973H70.1377V31.209H65.708V34.2578H69.6592V35.2695H65.708V38.9951H70.1377V40H64.6621V30.1973ZM77.3564 33.1982H78.3818V40H77.3564V38.4209C77.1058 38.9678 76.7412 39.3916 76.2627 39.6924C75.7887 39.9886 75.2305 40.1367 74.5879 40.1367C73.9727 40.1367 73.4053 39.9795 72.8857 39.665C72.3708 39.3506 71.9629 38.9199 71.6621 38.373C71.3613 37.8262 71.2109 37.2292 71.2109 36.582C71.2109 35.9349 71.3613 35.3402 71.6621 34.7979C71.9629 34.2555 72.3708 33.8294 72.8857 33.5195C73.4053 33.2096 73.9727 33.0547 74.5879 33.0547C75.2305 33.0547 75.791 33.2051 76.2695 33.5059C76.748 33.8021 77.1104 34.2214 77.3564 34.7637V33.1982ZM74.7793 39.1729C75.5221 39.1729 76.1374 38.929 76.625 38.4414C77.1126 37.9492 77.3564 37.3294 77.3564 36.582C77.3564 35.8392 77.1126 35.224 76.625 34.7363C76.1374 34.2487 75.5221 34.0049 74.7793 34.0049C74.0592 34.0049 73.4508 34.2555 72.9541 34.7568C72.4619 35.2581 72.2158 35.8665 72.2158 36.582C72.2158 37.3112 72.4619 37.9264 72.9541 38.4277C73.4508 38.9245 74.0592 39.1729 74.7793 39.1729ZM83.2764 33.0547C83.4541 33.0547 83.666 33.082 83.9121 33.1367V34.0938C83.6888 34.0163 83.4678 33.9775 83.249 33.9775C82.7158 33.9775 82.2669 34.1667 81.9023 34.5449C81.5423 34.9186 81.3623 35.3926 81.3623 35.9668V40H80.3369V33.1982H81.3623V34.2852C81.5628 33.9023 81.8294 33.6016 82.1621 33.3828C82.4948 33.1641 82.8662 33.0547 83.2764 33.0547ZM88.5811 33.0547C89.4606 33.0547 90.1579 33.3281 90.6729 33.875C91.1924 34.4173 91.4521 35.1533 91.4521 36.083V40H90.4268V36.1787C90.4268 35.527 90.2376 35.0052 89.8594 34.6133C89.4857 34.2214 88.9889 34.0254 88.3691 34.0254C87.7311 34.0254 87.2184 34.2236 86.8311 34.6201C86.4482 35.012 86.2568 35.5316 86.2568 36.1787V40H85.2314V33.1982H86.2568V34.5244C86.4756 34.0596 86.7855 33.6995 87.1865 33.4443C87.5876 33.1846 88.0524 33.0547 88.5811 33.0547ZM93.9268 30.2246C94.1227 30.2246 94.2959 30.2975 94.4463 30.4434C94.5967 30.5892 94.6719 30.7601 94.6719 30.9561C94.6719 31.1566 94.5967 31.332 94.4463 31.4824C94.2959 31.6283 94.1227 31.7012 93.9268 31.7012C93.7262 31.7012 93.5553 31.6283 93.4141 31.4824C93.2728 31.3366 93.2021 31.1611 93.2021 30.9561C93.2021 30.7601 93.2728 30.5892 93.4141 30.4434C93.5553 30.2975 93.7262 30.2246 93.9268 30.2246ZM93.4072 33.1982H94.4326V40H93.4072V33.1982ZM99.7373 33.0547C100.617 33.0547 101.314 33.3281 101.829 33.875C102.349 34.4173 102.608 35.1533 102.608 36.083V40H101.583V36.1787C101.583 35.527 101.394 35.0052 101.016 34.6133C100.642 34.2214 100.145 34.0254 99.5254 34.0254C98.8874 34.0254 98.3747 34.2236 97.9873 34.6201C97.6045 35.012 97.4131 35.5316 97.4131 36.1787V40H96.3877V33.1982H97.4131V34.5244C97.6318 34.0596 97.9417 33.6995 98.3428 33.4443C98.7438 33.1846 99.2087 33.0547 99.7373 33.0547ZM110.306 33.1846H111.331V39.7881C111.331 40.7223 111.014 41.4743 110.381 42.0439C109.747 42.6136 108.934 42.8984 107.94 42.8984C107.549 42.8984 107.168 42.8483 106.799 42.748C106.43 42.6523 106.086 42.5111 105.767 42.3242C105.452 42.1374 105.195 41.8844 104.994 41.5654C104.798 41.251 104.693 40.8932 104.68 40.4922H105.671C105.685 40.957 105.906 41.3285 106.334 41.6064C106.762 41.889 107.289 42.0303 107.913 42.0303C108.606 42.0303 109.178 41.8252 109.629 41.415C110.08 41.0094 110.306 40.4808 110.306 39.8291V38.332C110.055 38.8698 109.69 39.2868 109.212 39.583C108.738 39.8792 108.18 40.0273 107.537 40.0273C106.922 40.0273 106.354 39.8724 105.835 39.5625C105.32 39.2526 104.912 38.8288 104.611 38.291C104.311 37.7533 104.16 37.1654 104.16 36.5273C104.16 35.8939 104.311 35.3105 104.611 34.7773C104.912 34.2441 105.32 33.8249 105.835 33.5195C106.354 33.2096 106.922 33.0547 107.537 33.0547C108.18 33.0547 108.738 33.2028 109.212 33.499C109.69 33.7907 110.055 34.2031 110.306 34.7363V33.1846ZM107.729 39.0771C108.471 39.0771 109.087 38.8379 109.574 38.3594C110.062 37.8763 110.306 37.2656 110.306 36.5273C110.306 35.7982 110.062 35.1943 109.574 34.7158C109.087 34.2327 108.471 33.9912 107.729 33.9912C107.008 33.9912 106.4 34.2373 105.903 34.7295C105.411 35.2171 105.165 35.8164 105.165 36.5273C105.165 37.2428 105.411 37.8467 105.903 38.3389C106.4 38.8311 107.008 39.0771 107.729 39.0771ZM115.528 40.1367C114.763 40.1367 114.129 39.943 113.628 39.5557C113.127 39.1683 112.842 38.6442 112.773 37.9834H113.751C113.797 38.3708 113.979 38.6807 114.298 38.9131C114.617 39.141 115.013 39.2549 115.487 39.2549C115.961 39.2549 116.342 39.1478 116.629 38.9336C116.921 38.7148 117.066 38.4346 117.066 38.0928C117.066 37.8649 117.007 37.6735 116.889 37.5186C116.77 37.359 116.613 37.2406 116.417 37.1631C116.226 37.0856 116.007 37.015 115.761 36.9512C115.515 36.8874 115.262 36.835 115.002 36.7939C114.742 36.7529 114.489 36.6891 114.243 36.6025C113.997 36.516 113.776 36.4134 113.58 36.2949C113.389 36.1719 113.234 35.9987 113.115 35.7754C112.997 35.5475 112.938 35.2764 112.938 34.9619C112.938 34.4014 113.159 33.9434 113.601 33.5879C114.043 33.2324 114.628 33.0547 115.357 33.0547C116.027 33.0547 116.604 33.2324 117.087 33.5879C117.575 33.9388 117.857 34.4105 117.935 35.0029H116.902C116.852 34.6839 116.681 34.4219 116.39 34.2168C116.098 34.0117 115.745 33.9092 115.33 33.9092C114.915 33.9092 114.578 34.0003 114.318 34.1826C114.063 34.3604 113.936 34.5951 113.936 34.8867C113.936 35.1328 114.011 35.3333 114.161 35.4883C114.316 35.6432 114.514 35.7572 114.756 35.8301C114.997 35.903 115.264 35.9668 115.556 36.0215C115.852 36.0716 116.146 36.1354 116.438 36.2129C116.734 36.2904 117.003 36.3929 117.244 36.5205C117.486 36.6481 117.682 36.8418 117.832 37.1016C117.987 37.3613 118.064 37.6826 118.064 38.0654C118.064 38.667 117.823 39.1637 117.34 39.5557C116.861 39.943 116.257 40.1367 115.528 40.1367Z" fill="black" fill-opacity="0.2"/>
<path d="M37.2295 30.1973V31.209H34.0098V40H32.957V31.209H29.7373V30.1973H37.2295ZM37.6602 34.0801C38.3392 33.3965 39.1732 33.0547 40.1621 33.0547C41.151 33.0547 41.985 33.3965 42.6641 34.0801C43.3477 34.7591 43.6895 35.5977 43.6895 36.5957C43.6895 37.5938 43.3477 38.4346 42.6641 39.1182C41.985 39.7972 41.151 40.1367 40.1621 40.1367C39.1732 40.1367 38.3392 39.7972 37.6602 39.1182C36.9857 38.4346 36.6484 37.5938 36.6484 36.5957C36.6484 35.5977 36.9857 34.7591 37.6602 34.0801ZM40.1621 34.0254C39.4557 34.0254 38.861 34.2715 38.3779 34.7637C37.8949 35.2559 37.6533 35.8665 37.6533 36.5957C37.6533 37.3203 37.8949 37.931 38.3779 38.4277C38.861 38.9245 39.4557 39.1729 40.1621 39.1729C40.8685 39.1729 41.4655 38.9245 41.9531 38.4277C42.4408 37.9264 42.6846 37.3158 42.6846 36.5957C42.6846 35.8711 42.4408 35.2627 41.9531 34.7705C41.4701 34.2738 40.873 34.0254 40.1621 34.0254ZM48.4814 34.1484H46.5811V37.7031C46.5811 38.6465 47.0573 39.1182 48.0098 39.1182C48.2012 39.1182 48.3584 39.0999 48.4814 39.0635V40C48.2764 40.0456 48.0576 40.0684 47.8252 40.0684C47.1143 40.0684 46.5583 39.8724 46.1572 39.4805C45.7562 39.084 45.5557 38.4961 45.5557 37.7168V34.1484H44.2158V33.1982H45.5557V31.3184H46.5811V33.1982H48.4814V34.1484ZM55.1943 33.1982H56.2197V40H55.1943V38.4209C54.9437 38.9678 54.5791 39.3916 54.1006 39.6924C53.6266 39.9886 53.0684 40.1367 52.4258 40.1367C51.8105 40.1367 51.2432 39.9795 50.7236 39.665C50.2087 39.3506 49.8008 38.9199 49.5 38.373C49.1992 37.8262 49.0488 37.2292 49.0488 36.582C49.0488 35.9349 49.1992 35.3402 49.5 34.7979C49.8008 34.2555 50.2087 33.8294 50.7236 33.5195C51.2432 33.2096 51.8105 33.0547 52.4258 33.0547C53.0684 33.0547 53.6289 33.2051 54.1074 33.5059C54.5859 33.8021 54.9482 34.2214 55.1943 34.7637V33.1982ZM52.6172 39.1729C53.36 39.1729 53.9753 38.929 54.4629 38.4414C54.9505 37.9492 55.1943 37.3294 55.1943 36.582C55.1943 35.8392 54.9505 35.224 54.4629 34.7363C53.9753 34.2487 53.36 34.0049 52.6172 34.0049C51.8971 34.0049 51.2887 34.2555 50.792 34.7568C50.2998 35.2581 50.0537 35.8665 50.0537 36.582C50.0537 37.3112 50.2998 37.9264 50.792 38.4277C51.2887 38.9245 51.8971 39.1729 52.6172 39.1729ZM59.2002 30.1973V40H58.1748V30.1973H59.2002ZM64.6621 30.1973H70.1377V31.209H65.708V34.2578H69.6592V35.2695H65.708V38.9951H70.1377V40H64.6621V30.1973ZM77.3564 33.1982H78.3818V40H77.3564V38.4209C77.1058 38.9678 76.7412 39.3916 76.2627 39.6924C75.7887 39.9886 75.2305 40.1367 74.5879 40.1367C73.9727 40.1367 73.4053 39.9795 72.8857 39.665C72.3708 39.3506 71.9629 38.9199 71.6621 38.373C71.3613 37.8262 71.2109 37.2292 71.2109 36.582C71.2109 35.9349 71.3613 35.3402 71.6621 34.7979C71.9629 34.2555 72.3708 33.8294 72.8857 33.5195C73.4053 33.2096 73.9727 33.0547 74.5879 33.0547C75.2305 33.0547 75.791 33.2051 76.2695 33.5059C76.748 33.8021 77.1104 34.2214 77.3564 34.7637V33.1982ZM74.7793 39.1729C75.5221 39.1729 76.1374 38.929 76.625 38.4414C77.1126 37.9492 77.3564 37.3294 77.3564 36.582C77.3564 35.8392 77.1126 35.224 76.625 34.7363C76.1374 34.2487 75.5221 34.0049 74.7793 34.0049C74.0592 34.0049 73.4508 34.2555 72.9541 34.7568C72.4619 35.2581 72.2158 35.8665 72.2158 36.582C72.2158 37.3112 72.4619 37.9264 72.9541 38.4277C73.4508 38.9245 74.0592 39.1729 74.7793 39.1729ZM83.2764 33.0547C83.4541 33.0547 83.666 33.082 83.9121 33.1367V34.0938C83.6888 34.0163 83.4678 33.9775 83.249 33.9775C82.7158 33.9775 82.2669 34.1667 81.9023 34.5449C81.5423 34.9186 81.3623 35.3926 81.3623 35.9668V40H80.3369V33.1982H81.3623V34.2852C81.5628 33.9023 81.8294 33.6016 82.1621 33.3828C82.4948 33.1641 82.8662 33.0547 83.2764 33.0547ZM88.5811 33.0547C89.4606 33.0547 90.1579 33.3281 90.6729 33.875C91.1924 34.4173 91.4521 35.1533 91.4521 36.083V40H90.4268V36.1787C90.4268 35.527 90.2376 35.0052 89.8594 34.6133C89.4857 34.2214 88.9889 34.0254 88.3691 34.0254C87.7311 34.0254 87.2184 34.2236 86.8311 34.6201C86.4482 35.012 86.2568 35.5316 86.2568 36.1787V40H85.2314V33.1982H86.2568V34.5244C86.4756 34.0596 86.7855 33.6995 87.1865 33.4443C87.5876 33.1846 88.0524 33.0547 88.5811 33.0547ZM93.9268 30.2246C94.1227 30.2246 94.2959 30.2975 94.4463 30.4434C94.5967 30.5892 94.6719 30.7601 94.6719 30.9561C94.6719 31.1566 94.5967 31.332 94.4463 31.4824C94.2959 31.6283 94.1227 31.7012 93.9268 31.7012C93.7262 31.7012 93.5553 31.6283 93.4141 31.4824C93.2728 31.3366 93.2021 31.1611 93.2021 30.9561C93.2021 30.7601 93.2728 30.5892 93.4141 30.4434C93.5553 30.2975 93.7262 30.2246 93.9268 30.2246ZM93.4072 33.1982H94.4326V40H93.4072V33.1982ZM99.7373 33.0547C100.617 33.0547 101.314 33.3281 101.829 33.875C102.349 34.4173 102.608 35.1533 102.608 36.083V40H101.583V36.1787C101.583 35.527 101.394 35.0052 101.016 34.6133C100.642 34.2214 100.145 34.0254 99.5254 34.0254C98.8874 34.0254 98.3747 34.2236 97.9873 34.6201C97.6045 35.012 97.4131 35.5316 97.4131 36.1787V40H96.3877V33.1982H97.4131V34.5244C97.6318 34.0596 97.9417 33.6995 98.3428 33.4443C98.7438 33.1846 99.2087 33.0547 99.7373 33.0547ZM110.306 33.1846H111.331V39.7881C111.331 40.7223 111.014 41.4743 110.381 42.0439C109.747 42.6136 108.934 42.8984 107.94 42.8984C107.549 42.8984 107.168 42.8483 106.799 42.748C106.43 42.6523 106.086 42.5111 105.767 42.3242C105.452 42.1374 105.195 41.8844 104.994 41.5654C104.798 41.251 104.693 40.8932 104.68 40.4922H105.671C105.685 40.957 105.906 41.3285 106.334 41.6064C106.762 41.889 107.289 42.0303 107.913 42.0303C108.606 42.0303 109.178 41.8252 109.629 41.415C110.08 41.0094 110.306 40.4808 110.306 39.8291V38.332C110.055 38.8698 109.69 39.2868 109.212 39.583C108.738 39.8792 108.18 40.0273 107.537 40.0273C106.922 40.0273 106.354 39.8724 105.835 39.5625C105.32 39.2526 104.912 38.8288 104.611 38.291C104.311 37.7533 104.16 37.1654 104.16 36.5273C104.16 35.8939 104.311 35.3105 104.611 34.7773C104.912 34.2441 105.32 33.8249 105.835 33.5195C106.354 33.2096 106.922 33.0547 107.537 33.0547C108.18 33.0547 108.738 33.2028 109.212 33.499C109.69 33.7907 110.055 34.2031 110.306 34.7363V33.1846ZM107.729 39.0771C108.471 39.0771 109.087 38.8379 109.574 38.3594C110.062 37.8763 110.306 37.2656 110.306 36.5273C110.306 35.7982 110.062 35.1943 109.574 34.7158C109.087 34.2327 108.471 33.9912 107.729 33.9912C107.008 33.9912 106.4 34.2373 105.903 34.7295C105.411 35.2171 105.165 35.8164 105.165 36.5273C105.165 37.2428 105.411 37.8467 105.903 38.3389C106.4 38.8311 107.008 39.0771 107.729 39.0771ZM115.528 40.1367C114.763 40.1367 114.129 39.943 113.628 39.5557C113.127 39.1683 112.842 38.6442 112.773 37.9834H113.751C113.797 38.3708 113.979 38.6807 114.298 38.9131C114.617 39.141 115.013 39.2549 115.487 39.2549C115.961 39.2549 116.342 39.1478 116.629 38.9336C116.921 38.7148 117.066 38.4346 117.066 38.0928C117.066 37.8649 117.007 37.6735 116.889 37.5186C116.77 37.359 116.613 37.2406 116.417 37.1631C116.226 37.0856 116.007 37.015 115.761 36.9512C115.515 36.8874 115.262 36.835 115.002 36.7939C114.742 36.7529 114.489 36.6891 114.243 36.6025C113.997 36.516 113.776 36.4134 113.58 36.2949C113.389 36.1719 113.234 35.9987 113.115 35.7754C112.997 35.5475 112.938 35.2764 112.938 34.9619C112.938 34.4014 113.159 33.9434 113.601 33.5879C114.043 33.2324 114.628 33.0547 115.357 33.0547C116.027 33.0547 116.604 33.2324 117.087 33.5879C117.575 33.9388 117.857 34.4105 117.935 35.0029H116.902C116.852 34.6839 116.681 34.4219 116.39 34.2168C116.098 34.0117 115.745 33.9092 115.33 33.9092C114.915 33.9092 114.578 34.0003 114.318 34.1826C114.063 34.3604 113.936 34.5951 113.936 34.8867C113.936 35.1328 114.011 35.3333 114.161 35.4883C114.316 35.6432 114.514 35.7572 114.756 35.8301C114.997 35.903 115.264 35.9668 115.556 36.0215C115.852 36.0716 116.146 36.1354 116.438 36.2129C116.734 36.2904 117.003 36.3929 117.244 36.5205C117.486 36.6481 117.682 36.8418 117.832 37.1016C117.987 37.3613 118.064 37.6826 118.064 38.0654C118.064 38.667 117.823 39.1637 117.34 39.5557C116.861 39.943 116.257 40.1367 115.528 40.1367Z" fill="black" fill-opacity="0.2"/>
<path d="M37.2295 30.1973V31.209H34.0098V40H32.957V31.209H29.7373V30.1973H37.2295ZM37.6602 34.0801C38.3392 33.3965 39.1732 33.0547 40.1621 33.0547C41.151 33.0547 41.985 33.3965 42.6641 34.0801C43.3477 34.7591 43.6895 35.5977 43.6895 36.5957C43.6895 37.5938 43.3477 38.4346 42.6641 39.1182C41.985 39.7972 41.151 40.1367 40.1621 40.1367C39.1732 40.1367 38.3392 39.7972 37.6602 39.1182C36.9857 38.4346 36.6484 37.5938 36.6484 36.5957C36.6484 35.5977 36.9857 34.7591 37.6602 34.0801ZM40.1621 34.0254C39.4557 34.0254 38.861 34.2715 38.3779 34.7637C37.8949 35.2559 37.6533 35.8665 37.6533 36.5957C37.6533 37.3203 37.8949 37.931 38.3779 38.4277C38.861 38.9245 39.4557 39.1729 40.1621 39.1729C40.8685 39.1729 41.4655 38.9245 41.9531 38.4277C42.4408 37.9264 42.6846 37.3158 42.6846 36.5957C42.6846 35.8711 42.4408 35.2627 41.9531 34.7705C41.4701 34.2738 40.873 34.0254 40.1621 34.0254ZM48.4814 34.1484H46.5811V37.7031C46.5811 38.6465 47.0573 39.1182 48.0098 39.1182C48.2012 39.1182 48.3584 39.0999 48.4814 39.0635V40C48.2764 40.0456 48.0576 40.0684 47.8252 40.0684C47.1143 40.0684 46.5583 39.8724 46.1572 39.4805C45.7562 39.084 45.5557 38.4961 45.5557 37.7168V34.1484H44.2158V33.1982H45.5557V31.3184H46.5811V33.1982H48.4814V34.1484ZM55.1943 33.1982H56.2197V40H55.1943V38.4209C54.9437 38.9678 54.5791 39.3916 54.1006 39.6924C53.6266 39.9886 53.0684 40.1367 52.4258 40.1367C51.8105 40.1367 51.2432 39.9795 50.7236 39.665C50.2087 39.3506 49.8008 38.9199 49.5 38.373C49.1992 37.8262 49.0488 37.2292 49.0488 36.582C49.0488 35.9349 49.1992 35.3402 49.5 34.7979C49.8008 34.2555 50.2087 33.8294 50.7236 33.5195C51.2432 33.2096 51.8105 33.0547 52.4258 33.0547C53.0684 33.0547 53.6289 33.2051 54.1074 33.5059C54.5859 33.8021 54.9482 34.2214 55.1943 34.7637V33.1982ZM52.6172 39.1729C53.36 39.1729 53.9753 38.929 54.4629 38.4414C54.9505 37.9492 55.1943 37.3294 55.1943 36.582C55.1943 35.8392 54.9505 35.224 54.4629 34.7363C53.9753 34.2487 53.36 34.0049 52.6172 34.0049C51.8971 34.0049 51.2887 34.2555 50.792 34.7568C50.2998 35.2581 50.0537 35.8665 50.0537 36.582C50.0537 37.3112 50.2998 37.9264 50.792 38.4277C51.2887 38.9245 51.8971 39.1729 52.6172 39.1729ZM59.2002 30.1973V40H58.1748V30.1973H59.2002ZM64.6621 30.1973H70.1377V31.209H65.708V34.2578H69.6592V35.2695H65.708V38.9951H70.1377V40H64.6621V30.1973ZM77.3564 33.1982H78.3818V40H77.3564V38.4209C77.1058 38.9678 76.7412 39.3916 76.2627 39.6924C75.7887 39.9886 75.2305 40.1367 74.5879 40.1367C73.9727 40.1367 73.4053 39.9795 72.8857 39.665C72.3708 39.3506 71.9629 38.9199 71.6621 38.373C71.3613 37.8262 71.2109 37.2292 71.2109 36.582C71.2109 35.9349 71.3613 35.3402 71.6621 34.7979C71.9629 34.2555 72.3708 33.8294 72.8857 33.5195C73.4053 33.2096 73.9727 33.0547 74.5879 33.0547C75.2305 33.0547 75.791 33.2051 76.2695 33.5059C76.748 33.8021 77.1104 34.2214 77.3564 34.7637V33.1982ZM74.7793 39.1729C75.5221 39.1729 76.1374 38.929 76.625 38.4414C77.1126 37.9492 77.3564 37.3294 77.3564 36.582C77.3564 35.8392 77.1126 35.224 76.625 34.7363C76.1374 34.2487 75.5221 34.0049 74.7793 34.0049C74.0592 34.0049 73.4508 34.2555 72.9541 34.7568C72.4619 35.2581 72.2158 35.8665 72.2158 36.582C72.2158 37.3112 72.4619 37.9264 72.9541 38.4277C73.4508 38.9245 74.0592 39.1729 74.7793 39.1729ZM83.2764 33.0547C83.4541 33.0547 83.666 33.082 83.9121 33.1367V34.0938C83.6888 34.0163 83.4678 33.9775 83.249 33.9775C82.7158 33.9775 82.2669 34.1667 81.9023 34.5449C81.5423 34.9186 81.3623 35.3926 81.3623 35.9668V40H80.3369V33.1982H81.3623V34.2852C81.5628 33.9023 81.8294 33.6016 82.1621 33.3828C82.4948 33.1641 82.8662 33.0547 83.2764 33.0547ZM88.5811 33.0547C89.4606 33.0547 90.1579 33.3281 90.6729 33.875C91.1924 34.4173 91.4521 35.1533 91.4521 36.083V40H90.4268V36.1787C90.4268 35.527 90.2376 35.0052 89.8594 34.6133C89.4857 34.2214 88.9889 34.0254 88.3691 34.0254C87.7311 34.0254 87.2184 34.2236 86.8311 34.6201C86.4482 35.012 86.2568 35.5316 86.2568 36.1787V40H85.2314V33.1982H86.2568V34.5244C86.4756 34.0596 86.7855 33.6995 87.1865 33.4443C87.5876 33.1846 88.0524 33.0547 88.5811 33.0547ZM93.9268 30.2246C94.1227 30.2246 94.2959 30.2975 94.4463 30.4434C94.5967 30.5892 94.6719 30.7601 94.6719 30.9561C94.6719 31.1566 94.5967 31.332 94.4463 31.4824C94.2959 31.6283 94.1227 31.7012 93.9268 31.7012C93.7262 31.7012 93.5553 31.6283 93.4141 31.4824C93.2728 31.3366 93.2021 31.1611 93.2021 30.9561C93.2021 30.7601 93.2728 30.5892 93.4141 30.4434C93.5553 30.2975 93.7262 30.2246 93.9268 30.2246ZM93.4072 33.1982H94.4326V40H93.4072V33.1982ZM99.7373 33.0547C100.617 33.0547 101.314 33.3281 101.829 33.875C102.349 34.4173 102.608 35.1533 102.608 36.083V40H101.583V36.1787C101.583 35.527 101.394 35.0052 101.016 34.6133C100.642 34.2214 100.145 34.0254 99.5254 34.0254C98.8874 34.0254 98.3747 34.2236 97.9873 34.6201C97.6045 35.012 97.4131 35.5316 97.4131 36.1787V40H96.3877V33.1982H97.4131V34.5244C97.6318 34.0596 97.9417 33.6995 98.3428 33.4443C98.7438 33.1846 99.2087 33.0547 99.7373 33.0547ZM110.306 33.1846H111.331V39.7881C111.331 40.7223 111.014 41.4743 110.381 42.0439C109.747 42.6136 108.934 42.8984 107.94 42.8984C107.549 42.8984 107.168 42.8483 106.799 42.748C106.43 42.6523 106.086 42.5111 105.767 42.3242C105.452 42.1374 105.195 41.8844 104.994 41.5654C104.798 41.251 104.693 40.8932 104.68 40.4922H105.671C105.685 40.957 105.906 41.3285 106.334 41.6064C106.762 41.889 107.289 42.0303 107.913 42.0303C108.606 42.0303 109.178 41.8252 109.629 41.415C110.08 41.0094 110.306 40.4808 110.306 39.8291V38.332C110.055 38.8698 109.69 39.2868 109.212 39.583C108.738 39.8792 108.18 40.0273 107.537 40.0273C106.922 40.0273 106.354 39.8724 105.835 39.5625C105.32 39.2526 104.912 38.8288 104.611 38.291C104.311 37.7533 104.16 37.1654 104.16 36.5273C104.16 35.8939 104.311 35.3105 104.611 34.7773C104.912 34.2441 105.32 33.8249 105.835 33.5195C106.354 33.2096 106.922 33.0547 107.537 33.0547C108.18 33.0547 108.738 33.2028 109.212 33.499C109.69 33.7907 110.055 34.2031 110.306 34.7363V33.1846ZM107.729 39.0771C108.471 39.0771 109.087 38.8379 109.574 38.3594C110.062 37.8763 110.306 37.2656 110.306 36.5273C110.306 35.7982 110.062 35.1943 109.574 34.7158C109.087 34.2327 108.471 33.9912 107.729 33.9912C107.008 33.9912 106.4 34.2373 105.903 34.7295C105.411 35.2171 105.165 35.8164 105.165 36.5273C105.165 37.2428 105.411 37.8467 105.903 38.3389C106.4 38.8311 107.008 39.0771 107.729 39.0771ZM115.528 40.1367C114.763 40.1367 114.129 39.943 113.628 39.5557C113.127 39.1683 112.842 38.6442 112.773 37.9834H113.751C113.797 38.3708 113.979 38.6807 114.298 38.9131C114.617 39.141 115.013 39.2549 115.487 39.2549C115.961 39.2549 116.342 39.1478 116.629 38.9336C116.921 38.7148 117.066 38.4346 117.066 38.0928C117.066 37.8649 117.007 37.6735 116.889 37.5186C116.77 37.359 116.613 37.2406 116.417 37.1631C116.226 37.0856 116.007 37.015 115.761 36.9512C115.515 36.8874 115.262 36.835 115.002 36.7939C114.742 36.7529 114.489 36.6891 114.243 36.6025C113.997 36.516 113.776 36.4134 113.58 36.2949C113.389 36.1719 113.234 35.9987 113.115 35.7754C112.997 35.5475 112.938 35.2764 112.938 34.9619C112.938 34.4014 113.159 33.9434 113.601 33.5879C114.043 33.2324 114.628 33.0547 115.357 33.0547C116.027 33.0547 116.604 33.2324 117.087 33.5879C117.575 33.9388 117.857 34.4105 117.935 35.0029H116.902C116.852 34.6839 116.681 34.4219 116.39 34.2168C116.098 34.0117 115.745 33.9092 115.33 33.9092C114.915 33.9092 114.578 34.0003 114.318 34.1826C114.063 34.3604 113.936 34.5951 113.936 34.8867C113.936 35.1328 114.011 35.3333 114.161 35.4883C114.316 35.6432 114.514 35.7572 114.756 35.8301C114.997 35.903 115.264 35.9668 115.556 36.0215C115.852 36.0716 116.146 36.1354 116.438 36.2129C116.734 36.2904 117.003 36.3929 117.244 36.5205C117.486 36.6481 117.682 36.8418 117.832 37.1016C117.987 37.3613 118.064 37.6826 118.064 38.0654C118.064 38.667 117.823 39.1637 117.34 39.5557C116.861 39.943 116.257 40.1367 115.528 40.1367Z" fill="black" fill-opacity="0.2"/>
<path d="M37.2295 30.1973V31.209H34.0098V40H32.957V31.209H29.7373V30.1973H37.2295ZM37.6602 34.0801C38.3392 33.3965 39.1732 33.0547 40.1621 33.0547C41.151 33.0547 41.985 33.3965 42.6641 34.0801C43.3477 34.7591 43.6895 35.5977 43.6895 36.5957C43.6895 37.5938 43.3477 38.4346 42.6641 39.1182C41.985 39.7972 41.151 40.1367 40.1621 40.1367C39.1732 40.1367 38.3392 39.7972 37.6602 39.1182C36.9857 38.4346 36.6484 37.5938 36.6484 36.5957C36.6484 35.5977 36.9857 34.7591 37.6602 34.0801ZM40.1621 34.0254C39.4557 34.0254 38.861 34.2715 38.3779 34.7637C37.8949 35.2559 37.6533 35.8665 37.6533 36.5957C37.6533 37.3203 37.8949 37.931 38.3779 38.4277C38.861 38.9245 39.4557 39.1729 40.1621 39.1729C40.8685 39.1729 41.4655 38.9245 41.9531 38.4277C42.4408 37.9264 42.6846 37.3158 42.6846 36.5957C42.6846 35.8711 42.4408 35.2627 41.9531 34.7705C41.4701 34.2738 40.873 34.0254 40.1621 34.0254ZM48.4814 34.1484H46.5811V37.7031C46.5811 38.6465 47.0573 39.1182 48.0098 39.1182C48.2012 39.1182 48.3584 39.0999 48.4814 39.0635V40C48.2764 40.0456 48.0576 40.0684 47.8252 40.0684C47.1143 40.0684 46.5583 39.8724 46.1572 39.4805C45.7562 39.084 45.5557 38.4961 45.5557 37.7168V34.1484H44.2158V33.1982H45.5557V31.3184H46.5811V33.1982H48.4814V34.1484ZM55.1943 33.1982H56.2197V40H55.1943V38.4209C54.9437 38.9678 54.5791 39.3916 54.1006 39.6924C53.6266 39.9886 53.0684 40.1367 52.4258 40.1367C51.8105 40.1367 51.2432 39.9795 50.7236 39.665C50.2087 39.3506 49.8008 38.9199 49.5 38.373C49.1992 37.8262 49.0488 37.2292 49.0488 36.582C49.0488 35.9349 49.1992 35.3402 49.5 34.7979C49.8008 34.2555 50.2087 33.8294 50.7236 33.5195C51.2432 33.2096 51.8105 33.0547 52.4258 33.0547C53.0684 33.0547 53.6289 33.2051 54.1074 33.5059C54.5859 33.8021 54.9482 34.2214 55.1943 34.7637V33.1982ZM52.6172 39.1729C53.36 39.1729 53.9753 38.929 54.4629 38.4414C54.9505 37.9492 55.1943 37.3294 55.1943 36.582C55.1943 35.8392 54.9505 35.224 54.4629 34.7363C53.9753 34.2487 53.36 34.0049 52.6172 34.0049C51.8971 34.0049 51.2887 34.2555 50.792 34.7568C50.2998 35.2581 50.0537 35.8665 50.0537 36.582C50.0537 37.3112 50.2998 37.9264 50.792 38.4277C51.2887 38.9245 51.8971 39.1729 52.6172 39.1729ZM59.2002 30.1973V40H58.1748V30.1973H59.2002ZM64.6621 30.1973H70.1377V31.209H65.708V34.2578H69.6592V35.2695H65.708V38.9951H70.1377V40H64.6621V30.1973ZM77.3564 33.1982H78.3818V40H77.3564V38.4209C77.1058 38.9678 76.7412 39.3916 76.2627 39.6924C75.7887 39.9886 75.2305 40.1367 74.5879 40.1367C73.9727 40.1367 73.4053 39.9795 72.8857 39.665C72.3708 39.3506 71.9629 38.9199 71.6621 38.373C71.3613 37.8262 71.2109 37.2292 71.2109 36.582C71.2109 35.9349 71.3613 35.3402 71.6621 34.7979C71.9629 34.2555 72.3708 33.8294 72.8857 33.5195C73.4053 33.2096 73.9727 33.0547 74.5879 33.0547C75.2305 33.0547 75.791 33.2051 76.2695 33.5059C76.748 33.8021 77.1104 34.2214 77.3564 34.7637V33.1982ZM74.7793 39.1729C75.5221 39.1729 76.1374 38.929 76.625 38.4414C77.1126 37.9492 77.3564 37.3294 77.3564 36.582C77.3564 35.8392 77.1126 35.224 76.625 34.7363C76.1374 34.2487 75.5221 34.0049 74.7793 34.0049C74.0592 34.0049 73.4508 34.2555 72.9541 34.7568C72.4619 35.2581 72.2158 35.8665 72.2158 36.582C72.2158 37.3112 72.4619 37.9264 72.9541 38.4277C73.4508 38.9245 74.0592 39.1729 74.7793 39.1729ZM83.2764 33.0547C83.4541 33.0547 83.666 33.082 83.9121 33.1367V34.0938C83.6888 34.0163 83.4678 33.9775 83.249 33.9775C82.7158 33.9775 82.2669 34.1667 81.9023 34.5449C81.5423 34.9186 81.3623 35.3926 81.3623 35.9668V40H80.3369V33.1982H81.3623V34.2852C81.5628 33.9023 81.8294 33.6016 82.1621 33.3828C82.4948 33.1641 82.8662 33.0547 83.2764 33.0547ZM88.5811 33.0547C89.4606 33.0547 90.1579 33.3281 90.6729 33.875C91.1924 34.4173 91.4521 35.1533 91.4521 36.083V40H90.4268V36.1787C90.4268 35.527 90.2376 35.0052 89.8594 34.6133C89.4857 34.2214 88.9889 34.0254 88.3691 34.0254C87.7311 34.0254 87.2184 34.2236 86.8311 34.6201C86.4482 35.012 86.2568 35.5316 86.2568 36.1787V40H85.2314V33.1982H86.2568V34.5244C86.4756 34.0596 86.7855 33.6995 87.1865 33.4443C87.5876 33.1846 88.0524 33.0547 88.5811 33.0547ZM93.9268 30.2246C94.1227 30.2246 94.2959 30.2975 94.4463 30.4434C94.5967 30.5892 94.6719 30.7601 94.6719 30.9561C94.6719 31.1566 94.5967 31.332 94.4463 31.4824C94.2959 31.6283 94.1227 31.7012 93.9268 31.7012C93.7262 31.7012 93.5553 31.6283 93.4141 31.4824C93.2728 31.3366 93.2021 31.1611 93.2021 30.9561C93.2021 30.7601 93.2728 30.5892 93.4141 30.4434C93.5553 30.2975 93.7262 30.2246 93.9268 30.2246ZM93.4072 33.1982H94.4326V40H93.4072V33.1982ZM99.7373 33.0547C100.617 33.0547 101.314 33.3281 101.829 33.875C102.349 34.4173 102.608 35.1533 102.608 36.083V40H101.583V36.1787C101.583 35.527 101.394 35.0052 101.016 34.6133C100.642 34.2214 100.145 34.0254 99.5254 34.0254C98.8874 34.0254 98.3747 34.2236 97.9873 34.6201C97.6045 35.012 97.4131 35.5316 97.4131 36.1787V40H96.3877V33.1982H97.4131V34.5244C97.6318 34.0596 97.9417 33.6995 98.3428 33.4443C98.7438 33.1846 99.2087 33.0547 99.7373 33.0547ZM110.306 33.1846H111.331V39.7881C111.331 40.7223 111.014 41.4743 110.381 42.0439C109.747 42.6136 108.934 42.8984 107.94 42.8984C107.549 42.8984 107.168 42.8483 106.799 42.748C106.43 42.6523 106.086 42.5111 105.767 42.3242C105.452 42.1374 105.195 41.8844 104.994 41.5654C104.798 41.251 104.693 40.8932 104.68 40.4922H105.671C105.685 40.957 105.906 41.3285 106.334 41.6064C106.762 41.889 107.289 42.0303 107.913 42.0303C108.606 42.0303 109.178 41.8252 109.629 41.415C110.08 41.0094 110.306 40.4808 110.306 39.8291V38.332C110.055 38.8698 109.69 39.2868 109.212 39.583C108.738 39.8792 108.18 40.0273 107.537 40.0273C106.922 40.0273 106.354 39.8724 105.835 39.5625C105.32 39.2526 104.912 38.8288 104.611 38.291C104.311 37.7533 104.16 37.1654 104.16 36.5273C104.16 35.8939 104.311 35.3105 104.611 34.7773C104.912 34.2441 105.32 33.8249 105.835 33.5195C106.354 33.2096 106.922 33.0547 107.537 33.0547C108.18 33.0547 108.738 33.2028 109.212 33.499C109.69 33.7907 110.055 34.2031 110.306 34.7363V33.1846ZM107.729 39.0771C108.471 39.0771 109.087 38.8379 109.574 38.3594C110.062 37.8763 110.306 37.2656 110.306 36.5273C110.306 35.7982 110.062 35.1943 109.574 34.7158C109.087 34.2327 108.471 33.9912 107.729 33.9912C107.008 33.9912 106.4 34.2373 105.903 34.7295C105.411 35.2171 105.165 35.8164 105.165 36.5273C105.165 37.2428 105.411 37.8467 105.903 38.3389C106.4 38.8311 107.008 39.0771 107.729 39.0771ZM115.528 40.1367C114.763 40.1367 114.129 39.943 113.628 39.5557C113.127 39.1683 112.842 38.6442 112.773 37.9834H113.751C113.797 38.3708 113.979 38.6807 114.298 38.9131C114.617 39.141 115.013 39.2549 115.487 39.2549C115.961 39.2549 116.342 39.1478 116.629 38.9336C116.921 38.7148 117.066 38.4346 117.066 38.0928C117.066 37.8649 117.007 37.6735 116.889 37.5186C116.77 37.359 116.613 37.2406 116.417 37.1631C116.226 37.0856 116.007 37.015 115.761 36.9512C115.515 36.8874 115.262 36.835 115.002 36.7939C114.742 36.7529 114.489 36.6891 114.243 36.6025C113.997 36.516 113.776 36.4134 113.58 36.2949C113.389 36.1719 113.234 35.9987 113.115 35.7754C112.997 35.5475 112.938 35.2764 112.938 34.9619C112.938 34.4014 113.159 33.9434 113.601 33.5879C114.043 33.2324 114.628 33.0547 115.357 33.0547C116.027 33.0547 116.604 33.2324 117.087 33.5879C117.575 33.9388 117.857 34.4105 117.935 35.0029H116.902C116.852 34.6839 116.681 34.4219 116.39 34.2168C116.098 34.0117 115.745 33.9092 115.33 33.9092C114.915 33.9092 114.578 34.0003 114.318 34.1826C114.063 34.3604 113.936 34.5951 113.936 34.8867C113.936 35.1328 114.011 35.3333 114.161 35.4883C114.316 35.6432 114.514 35.7572 114.756 35.8301C114.997 35.903 115.264 35.9668 115.556 36.0215C115.852 36.0716 116.146 36.1354 116.438 36.2129C116.734 36.2904 117.003 36.3929 117.244 36.5205C117.486 36.6481 117.682 36.8418 117.832 37.1016C117.987 37.3613 118.064 37.6826 118.064 38.0654C118.064 38.667 117.823 39.1637 117.34 39.5557C116.861 39.943 116.257 40.1367 115.528 40.1367Z" fill="black" fill-opacity="0.2"/>
<path d="M39.1322 82V79.8445L49.4599 69.5167C50.847 68.1047 51.8716 66.8551 52.5339 65.768C53.1962 64.6683 53.5273 63.6062 53.5273 62.5815C53.5273 61.1195 53.015 59.9137 51.9903 58.964C50.9657 58.0143 49.6724 57.5395 48.1104 57.5395C46.2985 57.5395 44.8302 58.0893 43.7056 59.1889C42.5935 60.2885 42.0562 61.7631 42.0937 63.6124H39.2071C39.1571 61.8505 39.5195 60.2885 40.2943 58.9265C41.069 57.5645 42.1374 56.5273 43.4994 55.8151C44.874 55.1028 46.4234 54.7467 48.1479 54.7467C50.5596 54.7467 52.5526 55.4777 54.1271 56.9397C55.7016 58.3892 56.4888 60.2448 56.4888 62.5066C56.4888 65.1931 54.8394 68.1234 51.5405 71.2973L43.6681 79.1884H56.8262V82H39.1322ZM67.885 82.3749C65.5358 82.3749 63.524 81.7251 61.8495 80.4255C60.1751 79.126 59.2316 77.414 59.0192 75.2898H61.9057C62.1807 76.5643 62.8617 77.6015 63.9488 78.4012C65.0484 79.1884 66.3605 79.5821 67.885 79.5821C69.5844 79.5821 71.0214 79.0135 72.196 77.8764C73.3706 76.7268 73.9579 75.3272 73.9579 73.6778C73.9579 71.9534 73.3706 70.4976 72.196 69.3105C71.0214 68.1234 69.5844 67.5299 67.885 67.5299C66.8478 67.5299 65.8794 67.6986 64.9797 68.0359C64.0925 68.3608 63.3865 68.8294 62.8617 69.4417H60.3688L61.6246 55.1215H75.2513V57.8581H64.2112L63.3115 66.7239C63.8613 66.2116 64.5798 65.8117 65.467 65.5243C66.3667 65.2244 67.2914 65.0744 68.2411 65.0744C70.7153 65.0744 72.7771 65.8867 74.4265 67.5111C76.076 69.1231 76.9007 71.1911 76.9007 73.7153C76.9007 76.127 76.026 78.1763 74.2766 79.8632C72.5272 81.5377 70.3966 82.3749 67.885 82.3749ZM89.8151 82.3749C86.7786 82.3749 84.3982 81.144 82.6738 78.6824C80.9618 76.2207 80.1059 72.8468 80.1059 68.5608C80.1059 64.2747 80.9618 60.9008 82.6738 58.4392C84.3982 55.9775 86.7786 54.7467 89.8151 54.7467C92.8391 54.7467 95.207 55.9775 96.919 58.4392C98.6309 60.9008 99.4869 64.2747 99.4869 68.5608C99.4869 72.8468 98.6309 76.2207 96.919 78.6824C95.207 81.144 92.8391 82.3749 89.8151 82.3749ZM89.8151 79.5821C91.9394 79.5821 93.5888 78.6261 94.7634 76.7143C95.9505 74.8024 96.5441 72.0846 96.5441 68.5608C96.5441 65.037 95.9505 62.3191 94.7634 60.4073C93.5888 58.4954 91.9394 57.5395 89.8151 57.5395C87.6783 57.5395 86.0226 58.4954 84.848 60.4073C83.6859 62.3066 83.1049 65.0245 83.1049 68.5608C83.1049 72.0971 83.6859 74.8212 84.848 76.733C86.0226 78.6324 87.6783 79.5821 89.8151 79.5821ZM119.899 82H116.187L106.741 72.8718V82H103.929V55.1215H106.741V71.6722L115.756 63.35H119.299L109.571 72.2533L119.899 82Z" fill="black"/>
<path d="M33.0068 63.3545C33.0068 64.0928 32.7288 64.7171 32.1729 65.2275C31.6214 65.738 30.9105 66.0319 30.04 66.1094V67.6816H29.0625V66.1094C28.1784 66.0046 27.4561 65.6628 26.8955 65.084C26.3395 64.5007 26.0615 63.7943 26.0615 62.9648H27.1006C27.1006 63.6029 27.3353 64.127 27.8047 64.5371C28.2741 64.9427 28.8711 65.1455 29.5957 65.1455C30.2793 65.1455 30.8444 64.9792 31.291 64.6465C31.7376 64.3092 31.9609 63.8786 31.9609 63.3545C31.9609 63.0811 31.9062 62.8395 31.7969 62.6299C31.6921 62.4202 31.5462 62.2516 31.3594 62.124C31.1771 61.9964 30.9629 61.8802 30.7168 61.7754C30.4753 61.666 30.2155 61.5794 29.9375 61.5156C29.6641 61.4518 29.3815 61.3789 29.0898 61.2969C28.7982 61.2148 28.5133 61.1351 28.2354 61.0576C27.9619 60.9756 27.7021 60.8662 27.4561 60.7295C27.2145 60.5928 27.0003 60.4378 26.8135 60.2646C26.6312 60.0915 26.4854 59.8682 26.376 59.5947C26.2712 59.3213 26.2188 59.0114 26.2188 58.665C26.2188 57.9632 26.4831 57.373 27.0117 56.8945C27.5404 56.416 28.224 56.1426 29.0625 56.0742V54.5225H30.04V56.1016C30.8695 56.2109 31.5189 56.5254 31.9883 57.0449C32.4622 57.5599 32.6992 58.1797 32.6992 58.9043H31.626C31.6032 58.3665 31.3867 57.9268 30.9766 57.585C30.571 57.2386 30.0492 57.0654 29.4111 57.0654C28.7731 57.0654 28.2536 57.2135 27.8525 57.5098C27.4561 57.806 27.2578 58.1911 27.2578 58.665C27.2578 58.9385 27.3239 59.1755 27.4561 59.376C27.5882 59.5765 27.7637 59.736 27.9824 59.8545C28.2057 59.973 28.4609 60.0778 28.748 60.1689C29.0352 60.2555 29.3382 60.3376 29.6572 60.415C29.9762 60.488 30.293 60.5677 30.6074 60.6543C30.9264 60.7409 31.2295 60.8548 31.5166 60.9961C31.8037 61.1374 32.0566 61.306 32.2754 61.502C32.4987 61.6934 32.6764 61.9486 32.8086 62.2676C32.9408 62.582 33.0068 62.9443 33.0068 63.3545Z" fill="black"/>
<path d="M139.274 34.9893V36.1924H136.711V38.7559H135.508V36.1924H132.944V34.9893H135.508V32.4258H136.711V34.9893H139.274ZM147.02 40.1367C146.126 40.1367 145.365 39.8906 144.736 39.3984C144.107 38.9017 143.759 38.2432 143.69 37.4229H145.037C145.137 37.8467 145.365 38.1885 145.721 38.4482C146.081 38.708 146.514 38.8379 147.02 38.8379C147.58 38.8379 148.052 38.6488 148.435 38.2705C148.817 37.8877 149.009 37.4229 149.009 36.876C149.009 36.3018 148.817 35.8232 148.435 35.4404C148.052 35.0531 147.58 34.8594 147.02 34.8594C146.678 34.8594 146.356 34.9186 146.056 35.0371C145.755 35.1556 145.513 35.3174 145.331 35.5225H144.155L144.613 30.1973H149.768V31.4756H145.816L145.536 34.2715C145.718 34.1074 145.96 33.9798 146.261 33.8887C146.566 33.793 146.881 33.7451 147.204 33.7451C148.12 33.7451 148.881 34.0368 149.487 34.6201C150.093 35.2035 150.396 35.9645 150.396 36.9033C150.396 37.4958 150.246 38.0404 149.945 38.5371C149.645 39.0339 149.234 39.4258 148.715 39.7129C148.2 39.9954 147.635 40.1367 147.02 40.1367ZM154.471 40.1367C153.577 40.1367 152.816 39.8906 152.188 39.3984C151.559 38.9017 151.21 38.2432 151.142 37.4229H152.488C152.589 37.8467 152.816 38.1885 153.172 38.4482C153.532 38.708 153.965 38.8379 154.471 38.8379C155.031 38.8379 155.503 38.6488 155.886 38.2705C156.269 37.8877 156.46 37.4229 156.46 36.876C156.46 36.3018 156.269 35.8232 155.886 35.4404C155.503 35.0531 155.031 34.8594 154.471 34.8594C154.129 34.8594 153.808 34.9186 153.507 35.0371C153.206 35.1556 152.965 35.3174 152.782 35.5225H151.606L152.064 30.1973H157.219V31.4756H153.268L152.987 34.2715C153.17 34.1074 153.411 33.9798 153.712 33.8887C154.017 33.793 154.332 33.7451 154.655 33.7451C155.571 33.7451 156.332 34.0368 156.938 34.6201C157.545 35.2035 157.848 35.9645 157.848 36.9033C157.848 37.4958 157.697 38.0404 157.396 38.5371C157.096 39.0339 156.686 39.4258 156.166 39.7129C155.651 39.9954 155.086 40.1367 154.471 40.1367ZM161.977 30.6348C162.341 31.0176 162.523 31.5029 162.523 32.0908C162.523 32.6787 162.341 33.1663 161.977 33.5537C161.617 33.9411 161.156 34.1348 160.596 34.1348C160.035 34.1348 159.57 33.9411 159.201 33.5537C158.832 33.1663 158.647 32.6787 158.647 32.0908C158.647 31.5029 158.832 31.0176 159.201 30.6348C159.57 30.252 160.035 30.0605 160.596 30.0605C161.156 30.0605 161.617 30.252 161.977 30.6348ZM165.579 30.1973H166.639L160.131 40H159.071L165.579 30.1973ZM161.348 32.959C161.544 32.7311 161.642 32.4417 161.642 32.0908C161.642 31.7399 161.546 31.4551 161.354 31.2363C161.163 31.013 160.91 30.9014 160.596 30.9014C160.277 30.9014 160.019 31.013 159.823 31.2363C159.627 31.4551 159.529 31.7399 159.529 32.0908C159.529 32.4417 159.627 32.7311 159.823 32.959C160.019 33.1823 160.277 33.2939 160.596 33.2939C160.906 33.2939 161.156 33.1823 161.348 32.959ZM166.502 36.6436C166.867 37.0218 167.049 37.5049 167.049 38.0928C167.049 38.6807 166.867 39.1683 166.502 39.5557C166.137 39.943 165.675 40.1367 165.114 40.1367C164.554 40.1367 164.091 39.943 163.727 39.5557C163.367 39.1683 163.187 38.6807 163.187 38.0928C163.187 37.5049 163.367 37.0218 163.727 36.6436C164.091 36.2607 164.554 36.0693 165.114 36.0693C165.675 36.0693 166.137 36.2607 166.502 36.6436ZM166.167 38.0928C166.167 37.7419 166.071 37.4548 165.88 37.2314C165.688 37.0036 165.433 36.8896 165.114 36.8896C164.795 36.8896 164.54 37.0013 164.349 37.2246C164.162 37.4479 164.068 37.7373 164.068 38.0928C164.068 38.4482 164.164 38.7399 164.355 38.9678C164.547 39.1911 164.8 39.3027 165.114 39.3027C165.433 39.3027 165.688 39.1911 165.88 38.9678C166.071 38.7399 166.167 38.4482 166.167 38.0928Z" fill="#9747FF"/>
</g>
<defs>
<filter id="filter0_dddd_356_66" x="0" y="0" width="375" height="262.257" filterUnits="userSpaceOnUse" color-interpolation-filters="sRGB">
<feFlood flood-opacity="0" result="BackgroundImageFix"/>
<feColorMatrix in="SourceAlpha" type="matrix" values="0 0 0 0 0 0 0 0 0 0 0 0 0 0 0 0 0 0 127 0" result="hardAlpha"/>
<feOffset dx="6" dy="4"/>
<feGaussianBlur stdDeviation="8"/>
<feColorMatrix type="matrix" values="0 0 0 0 0.360784 0 0 0 0 0.360784 0 0 0 0 0.360784 0 0 0 0.1 0"/>
<feBlend mode="normal" in2="BackgroundImageFix" result="effect1_dropShadow_356_66"/>
<feColorMatrix in="SourceAlpha" type="matrix" values="0 0 0 0 0 0 0 0 0 0 0 0 0 0 0 0 0 0 127 0" result="hardAlpha"/>
<feOffset dx="22" dy="18"/>
<feGaussianBlur stdDeviation="14.5"/>
<feColorMatrix type="matrix" values="0 0 0 0 0.360784 0 0 0 0 0.360784 0 0 0 0 0.360784 0 0 0 0.09 0"/>
<feBlend mode="normal" in2="effect1_dropShadow_356_66" result="effect2_dropShadow_356_66"/>
<feColorMatrix in="SourceAlpha" type="matrix" values="0 0 0 0 0 0 0 0 0 0 0 0 0 0 0 0 0 0 127 0" result="hardAlpha"/>
<feOffset dx="51" dy="40"/>
<feGaussianBlur stdDeviation="19.5"/>
<feColorMatrix type="matrix" values="0 0 0 0 0.360784 0 0 0 0 0.360784 0 0 0 0 0.360784 0 0 0 0.05 0"/>
<feBlend mode="normal" in2="effect2_dropShadow_356_66" result="effect3_dropShadow_356_66"/>
<feColorMatrix in="SourceAlpha" type="matrix" values="0 0 0 0 0 0 0 0 0 0 0 0 0 0 0 0 0 0 127 0" result="hardAlpha"/>
<feOffset dx="90" dy="72"/>
<feGaussianBlur stdDeviation="23"/>
<feColorMatrix type="matrix" values="0 0 0 0 0.360784 0 0 0 0 0.360784 0 0 0 0 0.360784 0 0 0 0.01 0"/>
<feBlend mode="normal" in2="effect3_dropShadow_356_66" result="effect4_dropShadow_356_66"/>
<feBlend mode="normal" in="SourceGraphic" in2="effect4_dropShadow_356_66" result="shape"/>
</filter>
<clipPath id="clip0_356_66">
<rect width="229" height="108" fill="white" transform="translate(10 36)"/>
</clipPath>
</defs>
</svg>
