<svg width="509" height="220" viewBox="0 0 509 220" fill="none" xmlns="http://www.w3.org/2000/svg">
<g filter="url(#filter0_dddd_316_1766)">
<g clip-path="url(#clip0_316_1766)">
<rect x="7" y="43.5459" width="377" height="91" rx="12" transform="rotate(-4.95246 7 43.5459)" fill="white"/>
<rect x="277.719" y="40.1626" width="86" height="51" rx="25.5" transform="rotate(-4.95246 277.719 40.1626)" fill="#444444"/>
<rect x="277.719" y="40.1626" width="86" height="51" rx="25.5" transform="rotate(-4.95246 277.719 40.1626)" fill="black" fill-opacity="0.2"/>
<rect x="277.719" y="40.1626" width="86" height="51" rx="25.5" transform="rotate(-4.95246 277.719 40.1626)" fill="black" fill-opacity="0.2"/>
<rect x="277.719" y="40.1626" width="86" height="51" rx="25.5" transform="rotate(-4.95246 277.719 40.1626)" fill="black" fill-opacity="0.2"/>
<rect x="277.719" y="40.1626" width="86" height="51" rx="25.5" transform="rotate(-4.95246 277.719 40.1626)" fill="black" fill-opacity="0.2"/>
<path d="M308.167 68.6406L307.215 66.6975L302.97 67.0653L302.353 69.1444L300.573 69.2985L303.71 58.9062L305.118 58.7842L309.988 68.4827L308.167 68.6406ZM303.447 65.4078L306.445 65.148L304.62 61.4315L303.447 65.4078ZM315.012 57.9268C315.937 57.8467 316.728 58.0722 317.386 58.6033C318.048 59.134 318.418 59.8407 318.494 60.7234C318.572 61.62 318.33 62.3867 317.769 63.0235C317.212 63.6598 316.472 64.0181 315.547 64.0982L313.382 64.2857L313.718 68.1595L312.037 68.3052L311.167 58.26L315.012 57.9268ZM315.408 62.494C315.842 62.4564 316.192 62.2826 316.457 61.9726C316.722 61.6627 316.836 61.2952 316.799 60.8703C316.763 60.4546 316.588 60.1193 316.274 59.8641C315.96 59.609 315.586 59.5003 315.152 59.5379L312.987 59.7255L313.243 62.6816L315.408 62.494ZM324.423 57.1113C325.348 57.0311 326.139 57.2567 326.797 57.7878C327.459 58.3185 327.829 59.0252 327.905 59.9078C327.983 60.8045 327.741 61.5712 327.18 62.208C326.624 62.8443 325.883 63.2025 324.958 63.2827L322.794 63.4702L323.129 67.344L321.448 67.4897L320.578 57.4445L324.423 57.1113ZM324.819 61.6785C325.254 61.6409 325.603 61.4671 325.868 61.1571C326.133 60.8472 326.247 60.4797 326.21 60.0547C326.174 59.6391 325.999 59.3037 325.685 59.0486C325.371 58.7935 324.997 58.6848 324.563 58.7224L322.399 58.91L322.655 61.8661L324.819 61.6785ZM329.989 56.629L331.67 56.4833L332.402 64.9243L337.207 64.5079L337.346 66.1121L330.859 66.6742L329.989 56.629ZM335.926 56.1146L337.957 55.9385L340.846 59.711L342.994 55.5021L344.962 55.3315L341.812 61.3282L342.19 65.6923L340.509 65.838L340.131 61.4739L335.926 56.1146Z" fill="white"/>
<path d="M103.105 65.127L104.731 64.986L101.97 76.4704L100.663 76.5837L97.086 68.1579L95.0198 77.0726L93.7122 77.1859L89.0012 66.3491L90.628 66.2081L94.182 74.6437L96.2553 65.7205L97.5551 65.6078L101.103 74.0597L103.105 65.127ZM112.669 71.4342C112.689 71.6573 112.695 71.8528 112.689 72.0206L106.439 72.5622C106.588 73.2654 106.91 73.8074 107.403 74.1882C107.901 74.5684 108.508 74.7276 109.224 74.6655C109.769 74.6183 110.228 74.4557 110.601 74.1776C110.974 73.8944 111.192 73.5435 111.255 73.1251L112.726 72.9976C112.651 73.8196 112.297 74.5038 111.665 75.05C111.033 75.5962 110.242 75.9104 109.292 75.9927C108.161 76.0907 107.18 75.7836 106.35 75.0714C105.52 74.354 105.054 73.4167 104.954 72.2596C104.89 71.5227 105.005 70.8331 105.3 70.1907C105.594 69.5431 106.029 69.0166 106.606 68.6111C107.187 68.2 107.844 67.9628 108.575 67.8994C109.629 67.8081 110.55 68.0968 111.34 68.7655C112.13 69.4342 112.573 70.3238 112.669 71.4342ZM106.378 71.3206L111.017 70.9186C110.907 70.374 110.632 69.9456 110.192 69.6335C109.757 69.3209 109.236 69.1909 108.629 69.2435C108.017 69.2966 107.51 69.5078 107.108 69.8772C106.706 70.2466 106.463 70.7278 106.378 71.3206ZM118.32 67.055C119.015 66.9947 119.669 67.1185 120.281 67.4261C120.893 67.7338 121.395 68.1844 121.786 68.7778C122.178 69.3712 122.405 70.0364 122.469 70.7732C122.533 71.51 122.423 72.2044 122.14 72.8563C121.857 73.5082 121.44 74.0383 120.89 74.4467C120.34 74.8551 119.717 75.0894 119.022 75.1497C118.352 75.2077 117.753 75.1106 117.224 74.8584C116.7 74.6006 116.269 74.2093 115.93 73.6845L116.066 75.2489L114.579 75.3778L113.612 64.2165L115.099 64.0876L115.527 69.0301C115.77 68.4549 116.128 67.9978 116.6 67.6589C117.077 67.3143 117.651 67.113 118.32 67.055ZM118.604 73.7743C119.341 73.7104 119.942 73.4022 120.406 72.8497C120.875 72.2914 121.078 71.6413 121.014 70.8993C120.949 70.1573 120.638 69.5543 120.08 69.0903C119.527 68.6207 118.883 68.4178 118.146 68.4816C117.383 68.5477 116.772 68.8542 116.312 69.4012C115.857 69.9425 115.663 70.5945 115.729 71.3573C115.795 72.12 116.099 72.7315 116.64 73.1917C117.187 73.6462 117.842 73.8404 118.604 73.7743ZM130.806 62.7266C131.573 62.6601 132.309 62.7374 133.013 62.9587C133.723 63.1796 134.345 63.5125 134.88 63.9576C135.415 64.3974 135.855 64.95 136.2 65.6154C136.545 66.2756 136.751 66.9975 136.819 67.781C136.888 68.5749 136.81 69.3345 136.585 70.0597C136.36 70.7798 136.023 71.4102 135.573 71.9511C135.128 72.4863 134.575 72.9262 133.915 73.271C133.255 73.6157 132.541 73.8214 131.773 73.8879L128.2 74.1975L127.233 63.0362L130.806 62.7266ZM131.739 72.4165C132.85 72.3203 133.737 71.8462 134.4 70.9941C135.063 70.1368 135.342 69.1114 135.239 67.9179C135.137 66.7401 134.687 65.8014 133.889 65.1021C133.096 64.3971 132.142 64.0929 131.026 64.1896L128.909 64.373L129.622 72.6L131.739 72.4165ZM145.811 68.5624C145.83 68.7855 145.836 68.981 145.83 69.1488L139.58 69.6904C139.73 70.3937 140.051 70.9356 140.544 71.3164C141.043 71.6967 141.65 71.8558 142.366 71.7937C142.911 71.7465 143.37 71.5839 143.743 71.3058C144.116 71.0226 144.334 70.6717 144.397 70.2533L145.868 70.1258C145.793 70.9479 145.439 71.632 144.807 72.1782C144.174 72.7244 143.383 73.0386 142.434 73.1209C141.303 73.219 140.322 72.9118 139.492 72.1996C138.661 71.4822 138.196 70.5449 138.095 69.3878C138.031 68.651 138.147 67.9613 138.441 67.3189C138.736 66.6713 139.171 66.1448 139.747 65.7393C140.329 65.3283 140.985 65.091 141.717 65.0276C142.77 64.9363 143.692 65.225 144.482 65.8937C145.271 66.5624 145.714 67.452 145.811 68.5624ZM139.52 68.4488L144.158 68.0469C144.048 67.5022 143.774 67.0738 143.333 66.7617C142.899 66.4491 142.378 66.3191 141.771 66.3717C141.158 66.4248 140.651 66.636 140.249 67.0054C139.847 67.3748 139.604 67.856 139.52 68.4488ZM150.521 72.4202C149.607 72.4993 148.833 72.3364 148.196 71.9315C147.565 71.5261 147.177 70.9351 147.031 70.1583L148.44 70.0362C148.52 70.4162 148.733 70.7087 149.081 70.9139C149.433 71.1186 149.856 71.1996 150.348 71.1569C150.831 71.1151 151.209 70.9804 151.482 70.7529C151.754 70.5201 151.877 70.2403 151.848 69.9134C151.826 69.654 151.722 69.4486 151.536 69.2974C151.35 69.1462 151.119 69.0434 150.843 68.9889C150.566 68.9293 150.259 68.8827 149.921 68.8492C149.589 68.8153 149.253 68.7712 148.914 68.717C148.579 68.6571 148.271 68.5688 147.989 68.4521C147.707 68.3353 147.468 68.1469 147.273 67.8867C147.078 67.6214 146.963 67.2889 146.928 66.8894C146.87 66.22 147.085 65.6473 147.571 65.1712C148.058 64.6951 148.73 64.4199 149.586 64.3457C150.39 64.2761 151.098 64.4264 151.711 64.7968C152.323 65.162 152.707 65.7038 152.863 66.4221L151.377 66.5509C151.302 66.2385 151.106 65.9915 150.787 65.81C150.473 65.6281 150.096 65.5562 149.655 65.5945C149.245 65.63 148.918 65.7446 148.673 65.9383C148.434 66.1316 148.326 66.3709 148.351 66.6563C148.372 66.9054 148.476 67.1003 148.66 67.2411C148.845 67.3768 149.075 67.4692 149.351 67.5185C149.627 67.5678 149.931 67.6068 150.263 67.6355C150.6 67.6638 150.936 67.7105 151.271 67.7756C151.611 67.835 151.922 67.9283 152.205 68.0554C152.488 68.1825 152.728 68.3891 152.925 68.6752C153.122 68.9613 153.24 69.3223 153.278 69.7582C153.337 70.4483 153.104 71.0462 152.578 71.5518C152.052 72.0574 151.366 72.3469 150.521 72.4202ZM154.854 60.5329C155.119 60.51 155.358 60.5886 155.573 60.7687C155.787 60.9488 155.906 61.1711 155.929 61.4358C155.952 61.7056 155.874 61.9476 155.693 62.1619C155.513 62.371 155.29 62.487 155.026 62.5099C154.751 62.5337 154.509 62.458 154.3 62.2826C154.092 62.1073 153.975 61.8821 153.952 61.6071C153.929 61.3424 154.005 61.1032 154.179 60.8894C154.36 60.6751 154.585 60.5563 154.854 60.5329ZM154.41 64.0924L155.897 63.9636L156.57 71.7391L155.084 71.8679L154.41 64.0924ZM164.256 63.2392L165.727 63.1117L166.377 70.6149C166.47 71.689 166.179 72.5794 165.503 73.2863C164.832 73.9926 163.924 74.3955 162.777 74.4949C162.341 74.5326 161.908 74.5178 161.479 74.4505C161.05 74.3831 160.634 74.2597 160.231 74.0802C159.835 73.9055 159.496 73.6421 159.214 73.2901C158.938 72.9428 158.769 72.5288 158.707 72.048L160.162 71.9219C160.223 72.3871 160.489 72.7405 160.96 72.982C161.431 73.2287 161.985 73.3245 162.624 73.2692C163.334 73.2076 163.908 72.9487 164.344 72.4927C164.78 72.0367 164.969 71.474 164.911 70.8046L164.779 69.2791C164.536 69.8543 164.174 70.3144 163.691 70.6594C163.214 70.9988 162.637 71.1977 161.963 71.2562C160.915 71.347 159.989 71.0378 159.185 70.3285C158.386 69.6187 157.939 68.7138 157.844 67.6138C157.781 66.8925 157.89 66.214 158.169 65.5781C158.454 64.9417 158.869 64.4248 159.415 64.0272C159.966 63.624 160.586 63.3925 161.276 63.3327C161.951 63.2743 162.553 63.3711 163.082 63.6233C163.616 63.875 164.052 64.2607 164.389 64.7803L164.256 63.2392ZM162.148 69.86C162.916 69.7935 163.53 69.4945 163.991 68.9631C164.452 68.4266 164.65 67.7821 164.584 67.0297C164.52 66.2877 164.215 65.6946 163.67 65.2505C163.123 64.8011 162.467 64.6098 161.699 64.6763C160.962 64.7401 160.358 65.046 159.888 65.5938C159.418 66.1417 159.214 66.7736 159.276 67.4897C159.339 68.2161 159.649 68.8087 160.207 69.2676C160.764 69.7264 161.411 69.9238 162.148 69.86ZM171.722 62.4276C172.723 62.3408 173.541 62.5862 174.177 63.1637C174.818 63.7408 175.185 64.5663 175.278 65.6404L175.663 70.0847L174.192 70.2122L173.82 65.9236C173.761 65.2438 173.522 64.7156 173.103 64.339C172.683 63.9623 172.152 63.8019 171.508 63.8576C170.854 63.9143 170.351 64.1644 169.997 64.6081C169.643 65.0517 169.496 65.6134 169.555 66.2932L169.927 70.5818L168.44 70.7106L167.766 62.935L169.253 62.8062L169.37 64.1605C169.577 63.6564 169.882 63.2535 170.285 62.952C170.693 62.6501 171.172 62.4753 171.722 62.4276ZM184.681 65.1942C184.7 65.4173 184.706 65.6128 184.7 65.7807L178.45 66.3222C178.6 67.0255 178.921 67.5675 179.414 67.9482C179.913 68.3285 180.52 68.4876 181.236 68.4255C181.781 68.3783 182.24 68.2157 182.613 67.9376C182.986 67.6544 183.204 67.3036 183.267 66.8851L184.738 66.7576C184.663 67.5797 184.309 68.2638 183.677 68.81C183.044 69.3562 182.253 69.6705 181.304 69.7528C180.173 69.8508 179.192 69.5437 178.362 68.8314C177.531 68.114 177.066 67.1767 176.965 66.0196C176.901 65.2828 177.017 64.5932 177.311 63.9507C177.606 63.3031 178.041 62.7766 178.617 62.3712C179.199 61.9601 179.855 61.7228 180.587 61.6594C181.64 61.5682 182.562 61.8569 183.352 62.5255C184.141 63.1942 184.584 64.0838 184.681 65.1942ZM178.39 65.0806L183.028 64.6787C182.918 64.134 182.643 63.7057 182.203 63.3935C181.769 63.0809 181.248 62.951 180.64 63.0036C180.028 63.0566 179.521 63.2679 179.119 63.6373C178.717 64.0067 178.474 64.4878 178.39 65.0806ZM189.586 60.8953C189.835 60.8738 190.076 60.8842 190.31 60.9267L190.428 62.2888C190.145 62.2244 189.887 62.2023 189.654 62.2226C189.057 62.2743 188.576 62.5224 188.212 62.9669C187.853 63.4058 187.702 63.9574 187.76 64.6216L188.14 69.0036L186.653 69.1324L185.979 61.3568L187.466 61.228L187.564 62.3566C187.762 61.9368 188.036 61.5994 188.386 61.3444C188.734 61.0841 189.134 60.9345 189.586 60.8953Z" fill="black"/>
<path opacity="0.5" d="M98.666 96.1149C98.7301 96.8549 98.5122 97.5074 98.0122 98.0722C97.5167 98.6366 96.8443 99.0059 95.9948 99.1802L96.1306 100.747L94.9047 100.853L94.7666 99.2591C93.8971 99.2018 93.1693 98.9058 92.5831 98.3711C92.0016 97.836 91.6754 97.1598 91.6046 96.3425L92.9326 96.2274C92.9826 96.8041 93.2321 97.2559 93.6813 97.5829C94.135 97.9095 94.6911 98.0443 95.3494 97.9873C95.9669 97.9338 96.4605 97.7446 96.8304 97.4198C97.2043 97.0901 97.3712 96.6937 97.3311 96.2305C97.3079 95.9627 97.2243 95.7366 97.0802 95.5524C96.9358 95.3637 96.7518 95.2195 96.5281 95.1199C96.3041 95.0158 96.0497 94.9304 95.7649 94.8636C95.4801 94.7968 95.1799 94.7382 94.8645 94.6877C94.5491 94.6373 94.2333 94.5823 93.917 94.5228C93.6054 94.4629 93.3053 94.3791 93.017 94.2715C92.7282 94.1592 92.4693 94.0216 92.2401 93.8585C92.011 93.6953 91.8201 93.4717 91.6674 93.1876C91.5147 92.9035 91.4218 92.5708 91.3888 92.1894C91.3278 91.4857 91.5305 90.8688 91.9969 90.339C92.4633 89.8091 93.099 89.4635 93.9038 89.3023L93.7687 87.7427L94.9945 87.6365L95.132 89.2233C95.9694 89.2789 96.6383 89.5548 97.1387 90.0512C97.6433 90.5427 97.9273 91.1539 97.9907 91.8849L96.6149 92.0041C96.5592 91.5195 96.3339 91.1365 95.939 90.8551C95.5437 90.5691 95.0555 90.4513 94.4743 90.5017C93.9159 90.5501 93.471 90.7213 93.1397 91.0153C92.8079 91.3048 92.6602 91.6584 92.6964 92.0761C92.7172 92.3167 92.7991 92.5223 92.942 92.6929C93.0844 92.859 93.2671 92.9873 93.4899 93.0777C93.7169 93.1633 93.9724 93.2349 94.2564 93.2926C94.545 93.35 94.847 93.4038 95.1625 93.4543C95.4775 93.5002 95.791 93.5553 96.1031 93.6198C96.4193 93.6793 96.7222 93.7697 97.0117 93.891C97.3054 94.0073 97.5674 94.1539 97.7977 94.3306C98.0326 94.507 98.2274 94.7486 98.382 95.0554C98.5363 95.3576 98.6309 95.7108 98.666 96.1149ZM102.413 88.6748L103.259 98.4409L101.91 98.5578L101.224 90.6373L99.1644 92.6821L99.0234 91.0544L101.466 88.7568L102.413 88.6748ZM106.587 96.7047L105.93 99.8082L104.888 99.8985L105.212 96.8239L106.587 96.7047ZM111.702 97.8465C110.571 97.9445 109.647 97.5717 108.929 96.7282C108.216 95.8843 107.792 94.6883 107.658 93.14C107.523 91.5918 107.735 90.3407 108.293 89.3866C108.855 88.4322 109.702 87.906 110.832 87.808C111.958 87.7104 112.878 88.0859 113.592 88.9343C114.31 89.7778 114.736 90.9714 114.87 92.5151C115.004 94.0588 114.789 95.3101 114.228 96.2691C113.67 97.2232 112.828 97.749 111.702 97.8465ZM111.59 96.5526C112.294 96.4916 112.811 96.1266 113.142 95.4575C113.477 94.7835 113.592 93.8426 113.487 92.6349C113.383 91.4272 113.108 90.5224 112.662 89.9206C112.221 89.3139 111.648 89.041 110.944 89.102C110.231 89.1637 109.71 89.5314 109.379 90.205C109.049 90.8741 108.935 91.8125 109.04 93.0202C109.145 94.228 109.418 95.1352 109.859 95.7419C110.3 96.3441 110.877 96.6143 111.59 96.5526ZM120.079 97.1207C118.948 97.2186 118.024 96.8459 117.306 96.0024C116.592 95.1585 116.169 93.9624 116.034 92.4142C115.9 90.8659 116.112 89.6148 116.67 88.6607C117.232 87.7063 118.078 87.1801 119.209 87.0821C120.335 86.9845 121.255 87.36 121.969 88.2084C122.687 89.0519 123.113 90.2455 123.247 91.7892C123.38 93.3329 123.166 94.5842 122.604 95.5432C122.047 96.4973 121.205 97.0231 120.079 97.1207ZM119.967 95.8267C120.67 95.7657 121.188 95.4007 121.519 94.7316C121.854 94.0576 121.969 93.1167 121.864 91.909C121.759 90.7013 121.484 89.7965 121.039 89.1947C120.597 88.588 120.025 88.3151 119.321 88.3761C118.608 88.4379 118.087 88.8056 117.756 89.4792C117.425 90.1483 117.312 91.0867 117.417 92.2944C117.522 93.5021 117.795 94.4093 118.236 95.016C118.677 95.6182 119.254 95.8885 119.967 95.8267ZM128.456 96.3948C127.325 96.4928 126.401 96.12 125.683 95.2765C124.969 94.4326 124.545 93.2365 124.411 91.6883C124.277 90.1401 124.489 88.8889 125.047 87.9349C125.609 86.9804 126.455 86.4542 127.586 86.3562C128.712 86.2587 129.632 86.6341 130.346 87.4825C131.064 88.326 131.49 89.5196 131.623 91.0633C131.757 92.607 131.543 93.8584 130.981 94.8174C130.423 95.7714 129.582 96.2972 128.456 96.3948ZM128.344 95.1008C129.047 95.0398 129.565 94.6748 129.895 94.0057C130.23 93.3317 130.346 92.3908 130.241 91.1831C130.136 89.9754 129.861 89.0707 129.416 88.4689C128.974 87.8621 128.402 87.5892 127.698 87.6502C126.985 87.712 126.463 88.0797 126.133 88.7533C125.802 89.4224 125.689 90.3608 125.794 91.5685C125.898 92.7762 126.171 93.6834 126.613 94.2902C127.054 94.8924 127.631 95.1626 128.344 95.1008ZM135.928 92.591L135.824 91.3924L139.76 91.0513L139.864 92.2499L135.928 92.591ZM151.147 91.5673C151.211 92.3073 150.993 92.9598 150.493 93.5246C149.998 94.089 149.325 94.4583 148.476 94.6325L148.612 96.1989L147.386 96.3052L147.248 94.7115C146.378 94.6542 145.65 94.3582 145.064 93.8235C144.483 93.2883 144.156 92.6122 144.086 91.7949L145.414 91.6798C145.464 92.2564 145.713 92.7083 146.162 93.0353C146.616 93.3619 147.172 93.4967 147.83 93.4397C148.448 93.3862 148.942 93.197 149.311 92.8722C149.685 92.5425 149.852 92.146 149.812 91.6829C149.789 91.4151 149.705 91.189 149.561 91.0048C149.417 90.816 149.233 90.6719 149.009 90.5723C148.785 90.4682 148.531 90.3828 148.246 90.316C147.961 90.2492 147.661 90.1905 147.346 90.1401C147.03 90.0897 146.714 90.0347 146.398 89.9752C146.086 89.9153 145.786 89.8315 145.498 89.7238C145.209 89.6116 144.95 89.474 144.721 89.3108C144.492 89.1477 144.301 88.9241 144.148 88.64C143.996 88.3559 143.903 88.0232 143.87 87.6418C143.809 86.938 144.012 86.3212 144.478 85.7914C144.944 85.2615 145.58 84.9159 146.385 84.7547L146.25 83.1951L147.476 83.0889L147.613 84.6757C148.45 84.7312 149.119 85.0072 149.62 85.5036C150.124 85.9951 150.408 86.6063 150.472 87.3373L149.096 87.4565C149.04 86.9719 148.815 86.5889 148.42 86.3075C148.025 86.0215 147.537 85.9037 146.955 85.9541C146.397 86.0025 145.952 86.1737 145.621 86.4677C145.289 86.7572 145.141 87.1108 145.177 87.5285C145.198 87.7691 145.28 87.9747 145.423 88.1453C145.565 88.3114 145.748 88.4396 145.971 88.5301C146.198 88.6157 146.453 88.6873 146.738 88.745C147.026 88.8023 147.328 88.8562 147.644 88.9067C147.959 88.9526 148.272 89.0077 148.584 89.0722C148.9 89.1317 149.203 89.2221 149.493 89.3434C149.787 89.4597 150.049 89.6063 150.279 89.783C150.514 89.9594 150.708 90.2009 150.863 90.5077C151.017 90.81 151.112 91.1632 151.147 91.5673ZM155.302 94.0685C154.412 94.1456 153.633 93.9661 152.964 93.53C152.294 93.0894 151.89 92.4635 151.751 91.6521L153.093 91.5359C153.229 91.9495 153.486 92.2703 153.863 92.4984C154.244 92.7261 154.686 92.8182 155.19 92.7745C155.749 92.7261 156.202 92.497 156.551 92.0871C156.899 91.6726 157.05 91.193 157.003 90.6482C156.953 90.0761 156.721 89.6159 156.307 89.2676C155.892 88.9147 155.405 88.7624 154.847 88.8108C154.506 88.8403 154.191 88.9271 153.902 89.0711C153.612 89.2151 153.386 89.3971 153.222 89.6172L152.05 89.7187L152.047 84.3738L157.182 83.9289L157.292 85.2024L153.356 85.5435L153.318 88.3532C153.486 88.174 153.715 88.026 154.007 87.9093C154.303 87.7875 154.612 87.7127 154.934 87.6848C155.847 87.6057 156.63 87.8306 157.285 88.3594C157.939 88.8882 158.306 89.6203 158.388 90.5556C158.439 91.1458 158.336 91.7014 158.079 92.2222C157.822 92.7431 157.447 93.169 156.955 93.4999C156.466 93.8258 155.915 94.0154 155.302 94.0685ZM161.684 91.9305L161.026 95.034L159.984 95.1243L160.308 92.0497L161.684 91.9305ZM166.798 93.0723C165.668 93.1703 164.743 92.7975 164.025 91.954C163.312 91.1101 162.888 89.914 162.754 88.3658C162.62 86.8176 162.831 85.5664 163.389 84.6124C163.951 83.6579 164.798 83.1317 165.928 83.0338C167.054 82.9362 167.974 83.3116 168.688 84.1601C169.406 85.0036 169.832 86.1972 169.966 87.7408C170.1 89.2845 169.886 90.5359 169.324 91.4949C168.766 92.4489 167.924 92.9747 166.798 93.0723ZM166.686 91.7783C167.39 91.7173 167.907 91.3523 168.238 90.6832C168.573 90.0092 168.688 89.0684 168.584 87.8606C168.479 86.6529 168.204 85.7482 167.758 85.1464C167.317 84.5396 166.744 84.2668 166.041 84.3277C165.328 84.3895 164.806 84.7572 164.476 85.4308C164.145 86.0999 164.032 87.0383 164.136 88.246C164.241 89.4537 164.514 90.3609 164.955 90.9677C165.396 91.5699 165.973 91.8401 166.686 91.7783ZM175.175 92.3464C174.045 92.4444 173.12 92.0716 172.402 91.2281C171.689 90.3842 171.265 89.1882 171.131 87.6399C170.996 86.0917 171.208 84.8406 171.766 83.8865C172.328 82.9321 173.175 82.4058 174.305 82.3079C175.431 82.2103 176.351 82.5857 177.065 83.4342C177.783 84.2777 178.209 85.4713 178.343 87.015C178.477 88.5587 178.263 89.81 177.701 90.769C177.143 91.7231 176.301 92.2489 175.175 92.3464ZM175.063 91.0525C175.767 90.9915 176.284 90.6264 176.615 89.9574C176.95 89.2834 177.065 88.3425 176.96 87.1348C176.856 85.9271 176.581 85.0223 176.135 84.4205C175.694 83.8138 175.121 83.5409 174.417 83.6019C173.705 83.6636 173.183 84.0313 172.852 84.7049C172.522 85.374 172.409 86.3124 172.513 87.5201C172.618 88.7278 172.891 89.6351 173.332 90.2418C173.773 90.844 174.35 91.1142 175.063 91.0525ZM183.552 91.6206C182.421 91.7185 181.497 91.3458 180.779 90.5023C180.065 89.6584 179.642 88.4623 179.507 86.9141C179.373 85.3658 179.585 84.1147 180.143 83.1606C180.705 82.2062 181.552 81.68 182.682 81.582C183.808 81.4844 184.728 81.8599 185.442 82.7083C186.16 83.5518 186.586 84.7454 186.72 86.2891C186.853 87.8328 186.639 89.0841 186.078 90.0431C185.52 90.9972 184.678 91.523 183.552 91.6206ZM183.44 90.3266C184.144 90.2656 184.661 89.9006 184.992 89.2315C185.327 88.5575 185.442 87.6166 185.337 86.4089C185.233 85.2012 184.957 84.2964 184.512 83.6946C184.07 83.0879 183.498 82.815 182.794 82.876C182.081 82.9378 181.56 83.3055 181.229 83.9791C180.898 84.6482 180.785 85.5865 180.89 86.7943C180.995 88.002 181.268 88.9092 181.709 89.5159C182.15 90.1181 182.727 90.3884 183.44 90.3266Z" fill="black"/>
<rect x="18.4824" y="55.7451" width="61" height="61" rx="30.5" transform="rotate(-4.95 18.4824 55.7451)" fill="#37774D"/>
<g clip-path="url(#clip1_316_1766)">
<path d="M53.6288 82.5717L52.269 66.8714L64.0445 84.6216L58.15 95.3703L47.988 96.2504L40.3333 86.6752L48.8817 67.1648L50.2415 82.865C49.628 83.2938 49.1731 83.913 48.9475 84.6266C48.7218 85.3402 48.7379 86.1084 48.9932 86.8119C49.2486 87.5155 49.729 88.1151 50.3599 88.5178C50.9908 88.9205 51.7369 89.1037 52.4826 89.0392C53.2282 88.9746 53.9318 88.6658 54.484 88.1606C55.0363 87.6554 55.4064 86.9821 55.537 86.2452C55.6676 85.5082 55.5514 84.7487 55.2064 84.0845C54.8614 83.4203 54.3068 82.8886 53.6288 82.5717ZM46.4411 98.0907L59.9903 96.9172L60.2837 100.305L46.7344 101.478L46.4411 98.0907Z" fill="white"/>
</g>
</g>
<rect x="7.5413" y="44.0009" width="376" height="90" rx="11.5" transform="rotate(-4.95246 7.5413 44.0009)" stroke="black" stroke-opacity="0.1"/>
</g>
<defs>
<filter id="filter0_dddd_316_1766" x="-1" y="-1" width="510.448" height="221.206" filterUnits="userSpaceOnUse" color-interpolation-filters="sRGB">
<feFlood flood-opacity="0" result="BackgroundImageFix"/>
<feColorMatrix in="SourceAlpha" type="matrix" values="0 0 0 0 0 0 0 0 0 0 0 0 0 0 0 0 0 0 127 0" result="hardAlpha"/>
<feOffset dx="5" dy="3"/>
<feGaussianBlur stdDeviation="6.5"/>
<feColorMatrix type="matrix" values="0 0 0 0 0.529412 0 0 0 0 0.529412 0 0 0 0 0.529412 0 0 0 0.1 0"/>
<feBlend mode="normal" in2="BackgroundImageFix" result="effect1_dropShadow_316_1766"/>
<feColorMatrix in="SourceAlpha" type="matrix" values="0 0 0 0 0 0 0 0 0 0 0 0 0 0 0 0 0 0 127 0" result="hardAlpha"/>
<feOffset dx="20" dy="12"/>
<feGaussianBlur stdDeviation="12"/>
<feColorMatrix type="matrix" values="0 0 0 0 0.529412 0 0 0 0 0.529412 0 0 0 0 0.529412 0 0 0 0.09 0"/>
<feBlend mode="normal" in2="effect1_dropShadow_316_1766" result="effect2_dropShadow_316_1766"/>
<feColorMatrix in="SourceAlpha" type="matrix" values="0 0 0 0 0 0 0 0 0 0 0 0 0 0 0 0 0 0 127 0" result="hardAlpha"/>
<feOffset dx="46" dy="27"/>
<feGaussianBlur stdDeviation="16"/>
<feColorMatrix type="matrix" values="0 0 0 0 0.529412 0 0 0 0 0.529412 0 0 0 0 0.529412 0 0 0 0.05 0"/>
<feBlend mode="normal" in2="effect2_dropShadow_316_1766" result="effect3_dropShadow_316_1766"/>
<feColorMatrix in="SourceAlpha" type="matrix" values="0 0 0 0 0 0 0 0 0 0 0 0 0 0 0 0 0 0 127 0" result="hardAlpha"/>
<feOffset dx="81" dy="48"/>
<feGaussianBlur stdDeviation="19"/>
<feColorMatrix type="matrix" values="0 0 0 0 0.529412 0 0 0 0 0.529412 0 0 0 0 0.529412 0 0 0 0.01 0"/>
<feBlend mode="normal" in2="effect3_dropShadow_316_1766" result="effect4_dropShadow_316_1766"/>
<feBlend mode="normal" in="SourceGraphic" in2="effect4_dropShadow_316_1766" result="shape"/>
</filter>
<clipPath id="clip0_316_1766">
<rect x="7" y="43.5459" width="377" height="91" rx="12" transform="rotate(-4.95246 7 43.5459)" fill="white"/>
</clipPath>
<clipPath id="clip1_316_1766">
<rect width="34" height="34" fill="white" transform="translate(33.6387 68.4849) rotate(-4.95)"/>
</clipPath>
</defs>
</svg>
