<svg width="239" height="149" viewBox="0 0 239 149" fill="none" xmlns="http://www.w3.org/2000/svg">
<g clip-path="url(#clip0_316_1759)">
<rect y="16.8774" width="229" height="132.257" rx="19.5936" transform="rotate(-4.22661 0 16.8774)" fill="white"/>
<g clip-path="url(#clip1_316_1759)">
<path d="M10.3503 138.686C-7.15538 139.98 -12.3512 146.228 -19.9695 153.721L333.896 127.57C333.896 127.57 415.393 56.5096 389.135 58.4502C362.837 59.8606 349.273 37.94 327.391 39.5572C305.509 41.1743 301.61 81.9774 277.227 83.7794C252.844 85.5813 242.633 23.9643 217.703 26.8728C192.773 29.7814 184.416 52.7889 159.292 61.5758C134.168 70.3627 144.341 130.485 119.411 133.393C94.4816 136.302 80.7171 95.6365 55.9049 100.136C31.0927 104.635 27.856 137.393 10.3503 138.686Z" fill="#9747FF" fill-opacity="0.1" stroke="#9747FF" stroke-width="2" stroke-linecap="round" stroke-linejoin="round"/>
</g>
<path d="M28.4969 33.0183L28.5715 34.0273L25.3605 34.2646L26.0084 43.0317L24.9586 43.1093L24.3106 34.3421L21.0997 34.5794L21.0251 33.5705L28.4969 33.0183ZM29.2126 36.8588C29.8394 36.127 30.6459 35.7247 31.6322 35.6518C32.6184 35.5789 33.4753 35.8583 34.2029 36.49C34.9347 37.1168 35.3373 37.9279 35.4109 38.9232C35.4844 39.9186 35.2055 40.7823 34.5742 41.5144C33.9471 42.2416 33.1404 42.6417 32.1541 42.7146C31.1679 42.7875 30.3111 42.5103 29.5839 41.8832C28.8609 41.2512 28.4626 40.4375 28.389 39.4422C28.3155 38.4468 28.59 37.5857 29.2126 36.8588ZM31.7037 36.6199C30.9992 36.6719 30.4243 36.9612 29.9788 37.4876C29.5333 38.0141 29.3374 38.6409 29.3912 39.3681C29.4446 40.0907 29.7305 40.6819 30.2488 41.1417C30.7672 41.6015 31.3786 41.8054 32.0831 41.7533C32.7875 41.7013 33.3646 41.4096 33.8143 40.8782C34.2637 40.3424 34.4618 39.7154 34.4087 38.9973C34.3553 38.2746 34.0673 37.6859 33.5448 37.231C33.0264 36.7712 32.4127 36.5675 31.7037 36.6199ZM40.0095 36.1294L38.1143 36.2695L38.3762 39.8145C38.4458 40.7553 38.9555 41.1906 39.9054 41.1204C40.0962 41.1063 40.2517 41.0765 40.3717 41.0311L40.4408 41.9651C40.2396 42.0256 40.0231 42.0645 39.7913 42.0816C39.0823 42.134 38.5134 41.9796 38.0846 41.6183C37.6554 41.2524 37.4121 40.6809 37.3547 39.9037L37.0917 36.3451L35.7555 36.4438L35.6854 35.4962L37.0216 35.3975L36.8831 33.5227L37.9057 33.4471L38.0442 35.3219L39.9395 35.1818L40.0095 36.1294ZM46.6341 34.6871L47.6567 34.6115L48.158 41.3948L47.1354 41.4703L47.019 39.8955C46.8093 40.4594 46.477 40.9089 46.0219 41.2442C45.5711 41.5745 45.0253 41.7634 44.3844 41.8107C43.7709 41.8561 43.1934 41.7411 42.6522 41.4658C42.1154 41.1901 41.6769 40.7907 41.3366 40.2675C40.9964 39.7443 40.8024 39.16 40.7547 38.5146C40.707 37.8692 40.8131 37.265 41.0731 36.702C41.3331 36.139 41.7085 35.684 42.1992 35.337C42.6945 34.9896 43.2489 34.7933 43.8625 34.748C44.5033 34.7006 45.0734 34.8093 45.5728 35.074C46.0718 35.3341 46.4641 35.7255 46.7495 36.2482L46.6341 34.6871ZM44.5043 40.8354C45.2451 40.7806 45.8407 40.4921 46.2911 39.9699C46.7411 39.4431 46.9386 38.807 46.8835 38.0617C46.8287 37.3208 46.5402 36.7252 46.018 36.2749C45.4957 35.8245 44.8642 35.6267 44.1234 35.6815C43.4053 35.7345 42.817 36.0293 42.3586 36.5659C41.9047 37.1021 41.7041 37.727 41.7568 38.4405C41.8106 39.1677 42.1013 39.7631 42.6291 40.2268C43.1611 40.6856 43.7862 40.8884 44.5043 40.8354ZM50.4079 31.399L51.1304 41.1751L50.1077 41.2507L49.3853 31.4746L50.4079 31.399ZM55.8549 30.9965L61.3156 30.5929L61.3902 31.6019L56.9726 31.9284L57.1973 34.9689L61.1377 34.6777L61.2122 35.6866L57.2718 35.9779L57.5464 39.6933L61.964 39.3668L62.0381 40.369L56.5774 40.7725L55.8549 30.9965ZM68.7359 33.0537L69.7585 32.9781L70.2598 39.7614L69.2372 39.837L69.1208 38.2621C68.9112 38.826 68.5788 39.2756 68.1238 39.6108C67.6729 39.9411 67.1271 40.13 66.4863 40.1773C65.8727 40.2227 65.2953 40.1077 64.754 39.8324C64.2172 39.5568 63.7787 39.1573 63.4385 38.6341C63.0982 38.1109 62.9042 37.5266 62.8565 36.8812C62.8088 36.2358 62.915 35.6316 63.175 35.0686C63.435 34.5056 63.8103 34.0506 64.3011 33.7036C64.7963 33.3563 65.3508 33.1599 65.9643 33.1146C66.6051 33.0672 67.1753 33.1759 67.6746 33.4406C68.1737 33.7007 68.5659 34.0922 68.8513 34.6149L68.7359 33.0537ZM66.6061 39.202C67.3469 39.1472 67.9425 38.8587 68.3929 38.3365C68.8429 37.8097 69.0404 37.1736 68.9853 36.4283C68.9306 35.6875 68.6421 35.0919 68.1198 34.6415C67.5976 34.1911 66.9661 33.9933 66.2252 34.0481C65.5071 34.1011 64.9189 34.396 64.4604 34.9325C64.0065 35.4687 63.8059 36.0936 63.8587 36.8071C63.9124 37.5343 64.2032 38.1298 64.731 38.5934C65.263 39.0522 65.888 39.2551 66.6061 39.202ZM74.6292 32.4742C74.8064 32.4611 75.0198 32.4728 75.2692 32.5092L75.3398 33.4636C75.1113 33.4028 74.8881 33.3805 74.6699 33.3966C74.1382 33.4359 73.7044 33.6576 73.3687 34.0617C73.0372 34.4609 72.8926 34.9468 72.9349 35.5195L73.2322 39.5417L72.2096 39.6173L71.7083 32.834L72.7309 32.7585L72.811 33.8424C72.9828 33.4459 73.2265 33.1263 73.5421 32.8836C73.8578 32.6409 74.2201 32.5045 74.6292 32.4742ZM79.9194 32.0833C80.7966 32.0184 81.5121 32.2397 82.066 32.7472C82.6241 33.2497 82.9374 33.9646 83.0059 34.8917L83.2946 38.7981L82.272 38.8737L81.9904 35.0628C81.9423 34.4128 81.7153 33.9064 81.3091 33.5434C80.9076 33.1801 80.3977 33.0213 79.7796 33.0669C79.1433 33.114 78.6467 33.3495 78.2896 33.7734C77.9367 34.1925 77.7841 34.7247 77.8318 35.3701L78.1134 39.181L77.0908 39.2566L76.5895 32.4733L77.6121 32.3977L77.7098 33.7203C77.8937 33.2406 78.1763 32.8587 78.5574 32.5746C78.9382 32.286 79.3922 32.1222 79.9194 32.0833ZM85.042 28.8669C85.2374 28.8524 85.4155 28.9124 85.5762 29.0468C85.737 29.1811 85.8246 29.346 85.839 29.5414C85.8538 29.7414 85.7917 29.9219 85.6528 30.083C85.5136 30.2395 85.3463 30.325 85.1508 30.3394C84.9509 30.3542 84.7751 30.2941 84.6234 30.1591C84.4718 30.024 84.3884 29.8543 84.3733 29.6498C84.3588 29.4543 84.4167 29.2787 84.5468 29.1228C84.677 28.967 84.842 28.8817 85.042 28.8669ZM84.7431 31.8707L85.7657 31.7952L86.267 38.5784L85.2444 38.654L84.7431 31.8707ZM91.0453 31.261C91.9225 31.1962 92.638 31.4175 93.1919 31.9249C93.75 32.4275 94.0633 33.1423 94.1318 34.0695L94.4205 37.9758L93.3979 38.0514L93.1163 34.2405C93.0682 33.5906 92.8412 33.0842 92.435 32.7212C92.0335 32.3578 91.5236 32.199 90.9055 32.2447C90.2693 32.2917 89.7726 32.5272 89.4155 32.9512C89.0626 33.3703 88.91 33.9025 88.9577 34.5479L89.2393 38.3587L88.2167 38.4343L87.7154 31.6511L88.738 31.5755L88.8358 32.8981C89.0197 32.4184 89.3022 32.0365 89.6833 31.7524C90.0641 31.4638 90.5181 31.3 91.0453 31.261ZM101.595 30.6117L102.617 30.5361L103.104 37.1216C103.173 38.0533 102.912 38.8266 102.322 39.4414C101.733 40.0562 100.942 40.4002 99.9516 40.4734C99.5608 40.5023 99.1776 40.4804 98.8021 40.4076C98.4269 40.3393 98.0733 40.2238 97.7414 40.061C97.414 39.8978 97.1386 39.6646 96.9151 39.3612C96.6965 39.062 96.5656 38.713 96.5224 38.314L97.5109 38.241C97.5588 38.7036 97.8066 39.0577 98.2543 39.3033C98.7024 39.5536 99.2377 39.6557 99.8604 39.6096C100.551 39.5586 101.106 39.3119 101.526 38.8696C101.946 38.4319 102.132 37.888 102.084 37.2381L101.974 35.7451C101.764 36.2999 101.431 36.7426 100.975 37.0733C100.524 37.4037 99.9787 37.5925 99.3378 37.6399C98.7243 37.6852 98.147 37.5725 97.606 37.3017C97.0696 37.0306 96.6316 36.638 96.292 36.1239C95.9524 35.6098 95.7591 35.0346 95.7121 34.3983C95.6654 33.7665 95.7724 33.1737 96.0331 32.6198C96.2937 32.0659 96.6696 31.6177 97.1607 31.2752C97.6559 30.9279 98.2104 30.7315 98.8239 30.6862C99.4648 30.6388 100.032 30.7454 100.527 31.0059C101.026 31.2615 101.42 31.6459 101.709 32.1592L101.595 30.6117ZM99.4587 36.6781C100.199 36.6234 100.795 36.3394 101.246 35.8263C101.697 35.3086 101.895 34.6816 101.841 33.9453C101.787 33.2182 101.499 32.6339 100.978 32.1926C100.456 31.7468 99.8247 31.5513 99.0838 31.606C98.3657 31.6591 97.7771 31.9494 97.318 32.4768C96.8631 32.9994 96.6618 33.6152 96.7142 34.3242C96.767 35.0378 97.0569 35.6218 97.584 36.0764C98.1157 36.5306 98.7406 36.7312 99.4587 36.6781ZM107.315 37.16C106.552 37.2164 105.906 37.0699 105.377 36.7206C104.849 36.3712 104.526 35.8695 104.409 35.2156L105.384 35.1435C105.458 35.5265 105.663 35.8221 105.998 36.0304C106.333 36.2341 106.737 36.3185 107.209 36.2836C107.682 36.2486 108.054 36.1138 108.324 35.879C108.599 35.6394 108.724 35.3491 108.699 35.0082C108.682 34.781 108.609 34.5945 108.479 34.4487C108.349 34.2983 108.184 34.1918 107.982 34.1289C107.786 34.0658 107.562 34.0115 107.312 33.966C107.062 33.9205 106.806 33.8868 106.544 33.8651C106.282 33.8433 106.025 33.7983 105.773 33.7301C105.521 33.6619 105.293 33.5759 105.089 33.4722C104.889 33.3636 104.722 33.2023 104.587 32.9884C104.452 32.7698 104.373 32.5038 104.35 32.1902C104.309 31.6312 104.496 31.1581 104.91 30.771C105.325 30.384 105.896 30.1635 106.623 30.1098C107.291 30.0604 107.879 30.1952 108.387 30.5141C108.899 30.8281 109.216 31.2777 109.337 31.8628L108.307 31.9389C108.234 31.6244 108.044 31.3757 107.738 31.1927C107.432 31.0097 107.072 30.9334 106.659 30.964C106.245 30.9946 105.915 31.1103 105.67 31.3112C105.428 31.5073 105.318 31.7508 105.34 32.0416C105.358 32.2871 105.448 32.4815 105.609 32.6249C105.775 32.7681 105.981 32.8671 106.228 32.922C106.474 32.9769 106.744 33.0209 107.039 33.0539C107.338 33.0821 107.636 33.124 107.933 33.1798C108.234 33.2352 108.51 33.3177 108.76 33.4271C109.01 33.5366 109.22 33.7153 109.389 33.9633C109.563 34.2109 109.664 34.5256 109.692 34.9074C109.736 35.5073 109.532 36.0205 109.079 36.447C108.63 36.8686 108.043 37.1062 107.315 37.16Z" fill="#444444"/>
<path d="M28.4969 33.0183L28.5715 34.0273L25.3605 34.2646L26.0084 43.0317L24.9586 43.1093L24.3106 34.3421L21.0997 34.5794L21.0251 33.5705L28.4969 33.0183ZM29.2126 36.8588C29.8394 36.127 30.6459 35.7247 31.6322 35.6518C32.6184 35.5789 33.4753 35.8583 34.2029 36.49C34.9347 37.1168 35.3373 37.9279 35.4109 38.9232C35.4844 39.9186 35.2055 40.7823 34.5742 41.5144C33.9471 42.2416 33.1404 42.6417 32.1541 42.7146C31.1679 42.7875 30.3111 42.5103 29.5839 41.8832C28.8609 41.2512 28.4626 40.4375 28.389 39.4422C28.3155 38.4468 28.59 37.5857 29.2126 36.8588ZM31.7037 36.6199C30.9992 36.6719 30.4243 36.9612 29.9788 37.4876C29.5333 38.0141 29.3374 38.6409 29.3912 39.3681C29.4446 40.0907 29.7305 40.6819 30.2488 41.1417C30.7672 41.6015 31.3786 41.8054 32.0831 41.7533C32.7875 41.7013 33.3646 41.4096 33.8143 40.8782C34.2637 40.3424 34.4618 39.7154 34.4087 38.9973C34.3553 38.2746 34.0673 37.6859 33.5448 37.231C33.0264 36.7712 32.4127 36.5675 31.7037 36.6199ZM40.0095 36.1294L38.1143 36.2695L38.3762 39.8145C38.4458 40.7553 38.9555 41.1906 39.9054 41.1204C40.0962 41.1063 40.2517 41.0765 40.3717 41.0311L40.4408 41.9651C40.2396 42.0256 40.0231 42.0645 39.7913 42.0816C39.0823 42.134 38.5134 41.9796 38.0846 41.6183C37.6554 41.2524 37.4121 40.6809 37.3547 39.9037L37.0917 36.3451L35.7555 36.4438L35.6854 35.4962L37.0216 35.3975L36.8831 33.5227L37.9057 33.4471L38.0442 35.3219L39.9395 35.1818L40.0095 36.1294ZM46.6341 34.6871L47.6567 34.6115L48.158 41.3948L47.1354 41.4703L47.019 39.8955C46.8093 40.4594 46.477 40.9089 46.0219 41.2442C45.5711 41.5745 45.0253 41.7634 44.3844 41.8107C43.7709 41.8561 43.1934 41.7411 42.6522 41.4658C42.1154 41.1901 41.6769 40.7907 41.3366 40.2675C40.9964 39.7443 40.8024 39.16 40.7547 38.5146C40.707 37.8692 40.8131 37.265 41.0731 36.702C41.3331 36.139 41.7085 35.684 42.1992 35.337C42.6945 34.9896 43.2489 34.7933 43.8625 34.748C44.5033 34.7006 45.0734 34.8093 45.5728 35.074C46.0718 35.3341 46.4641 35.7255 46.7495 36.2482L46.6341 34.6871ZM44.5043 40.8354C45.2451 40.7806 45.8407 40.4921 46.2911 39.9699C46.7411 39.4431 46.9386 38.807 46.8835 38.0617C46.8287 37.3208 46.5402 36.7252 46.018 36.2749C45.4957 35.8245 44.8642 35.6267 44.1234 35.6815C43.4053 35.7345 42.817 36.0293 42.3586 36.5659C41.9047 37.1021 41.7041 37.727 41.7568 38.4405C41.8106 39.1677 42.1013 39.7631 42.6291 40.2268C43.1611 40.6856 43.7862 40.8884 44.5043 40.8354ZM50.4079 31.399L51.1304 41.1751L50.1077 41.2507L49.3853 31.4746L50.4079 31.399ZM55.8549 30.9965L61.3156 30.5929L61.3902 31.6019L56.9726 31.9284L57.1973 34.9689L61.1377 34.6777L61.2122 35.6866L57.2718 35.9779L57.5464 39.6933L61.964 39.3668L62.0381 40.369L56.5774 40.7725L55.8549 30.9965ZM68.7359 33.0537L69.7585 32.9781L70.2598 39.7614L69.2372 39.837L69.1208 38.2621C68.9112 38.826 68.5788 39.2756 68.1238 39.6108C67.6729 39.9411 67.1271 40.13 66.4863 40.1773C65.8727 40.2227 65.2953 40.1077 64.754 39.8324C64.2172 39.5568 63.7787 39.1573 63.4385 38.6341C63.0982 38.1109 62.9042 37.5266 62.8565 36.8812C62.8088 36.2358 62.915 35.6316 63.175 35.0686C63.435 34.5056 63.8103 34.0506 64.3011 33.7036C64.7963 33.3563 65.3508 33.1599 65.9643 33.1146C66.6051 33.0672 67.1753 33.1759 67.6746 33.4406C68.1737 33.7007 68.5659 34.0922 68.8513 34.6149L68.7359 33.0537ZM66.6061 39.202C67.3469 39.1472 67.9425 38.8587 68.3929 38.3365C68.8429 37.8097 69.0404 37.1736 68.9853 36.4283C68.9306 35.6875 68.6421 35.0919 68.1198 34.6415C67.5976 34.1911 66.9661 33.9933 66.2252 34.0481C65.5071 34.1011 64.9189 34.396 64.4604 34.9325C64.0065 35.4687 63.8059 36.0936 63.8587 36.8071C63.9124 37.5343 64.2032 38.1298 64.731 38.5934C65.263 39.0522 65.888 39.2551 66.6061 39.202ZM74.6292 32.4742C74.8064 32.4611 75.0198 32.4728 75.2692 32.5092L75.3398 33.4636C75.1113 33.4028 74.8881 33.3805 74.6699 33.3966C74.1382 33.4359 73.7044 33.6576 73.3687 34.0617C73.0372 34.4609 72.8926 34.9468 72.9349 35.5195L73.2322 39.5417L72.2096 39.6173L71.7083 32.834L72.7309 32.7585L72.811 33.8424C72.9828 33.4459 73.2265 33.1263 73.5421 32.8836C73.8578 32.6409 74.2201 32.5045 74.6292 32.4742ZM79.9194 32.0833C80.7966 32.0184 81.5121 32.2397 82.066 32.7472C82.6241 33.2497 82.9374 33.9646 83.0059 34.8917L83.2946 38.7981L82.272 38.8737L81.9904 35.0628C81.9423 34.4128 81.7153 33.9064 81.3091 33.5434C80.9076 33.1801 80.3977 33.0213 79.7796 33.0669C79.1433 33.114 78.6467 33.3495 78.2896 33.7734C77.9367 34.1925 77.7841 34.7247 77.8318 35.3701L78.1134 39.181L77.0908 39.2566L76.5895 32.4733L77.6121 32.3977L77.7098 33.7203C77.8937 33.2406 78.1763 32.8587 78.5574 32.5746C78.9382 32.286 79.3922 32.1222 79.9194 32.0833ZM85.042 28.8669C85.2374 28.8524 85.4155 28.9124 85.5762 29.0468C85.737 29.1811 85.8246 29.346 85.839 29.5414C85.8538 29.7414 85.7917 29.9219 85.6528 30.083C85.5136 30.2395 85.3463 30.325 85.1508 30.3394C84.9509 30.3542 84.7751 30.2941 84.6234 30.1591C84.4718 30.024 84.3884 29.8543 84.3733 29.6498C84.3588 29.4543 84.4167 29.2787 84.5468 29.1228C84.677 28.967 84.842 28.8817 85.042 28.8669ZM84.7431 31.8707L85.7657 31.7952L86.267 38.5784L85.2444 38.654L84.7431 31.8707ZM91.0453 31.261C91.9225 31.1962 92.638 31.4175 93.1919 31.9249C93.75 32.4275 94.0633 33.1423 94.1318 34.0695L94.4205 37.9758L93.3979 38.0514L93.1163 34.2405C93.0682 33.5906 92.8412 33.0842 92.435 32.7212C92.0335 32.3578 91.5236 32.199 90.9055 32.2447C90.2693 32.2917 89.7726 32.5272 89.4155 32.9512C89.0626 33.3703 88.91 33.9025 88.9577 34.5479L89.2393 38.3587L88.2167 38.4343L87.7154 31.6511L88.738 31.5755L88.8358 32.8981C89.0197 32.4184 89.3022 32.0365 89.6833 31.7524C90.0641 31.4638 90.5181 31.3 91.0453 31.261ZM101.595 30.6117L102.617 30.5361L103.104 37.1216C103.173 38.0533 102.912 38.8266 102.322 39.4414C101.733 40.0562 100.942 40.4002 99.9516 40.4734C99.5608 40.5023 99.1776 40.4804 98.8021 40.4076C98.4269 40.3393 98.0733 40.2238 97.7414 40.061C97.414 39.8978 97.1386 39.6646 96.9151 39.3612C96.6965 39.062 96.5656 38.713 96.5224 38.314L97.5109 38.241C97.5588 38.7036 97.8066 39.0577 98.2543 39.3033C98.7024 39.5536 99.2377 39.6557 99.8604 39.6096C100.551 39.5586 101.106 39.3119 101.526 38.8696C101.946 38.4319 102.132 37.888 102.084 37.2381L101.974 35.7451C101.764 36.2999 101.431 36.7426 100.975 37.0733C100.524 37.4037 99.9787 37.5925 99.3378 37.6399C98.7243 37.6852 98.147 37.5725 97.606 37.3017C97.0696 37.0306 96.6316 36.638 96.292 36.1239C95.9524 35.6098 95.7591 35.0346 95.7121 34.3983C95.6654 33.7665 95.7724 33.1737 96.0331 32.6198C96.2937 32.0659 96.6696 31.6177 97.1607 31.2752C97.6559 30.9279 98.2104 30.7315 98.8239 30.6862C99.4648 30.6388 100.032 30.7454 100.527 31.0059C101.026 31.2615 101.42 31.6459 101.709 32.1592L101.595 30.6117ZM99.4587 36.6781C100.199 36.6234 100.795 36.3394 101.246 35.8263C101.697 35.3086 101.895 34.6816 101.841 33.9453C101.787 33.2182 101.499 32.6339 100.978 32.1926C100.456 31.7468 99.8247 31.5513 99.0838 31.606C98.3657 31.6591 97.7771 31.9494 97.318 32.4768C96.8631 32.9994 96.6618 33.6152 96.7142 34.3242C96.767 35.0378 97.0569 35.6218 97.584 36.0764C98.1157 36.5306 98.7406 36.7312 99.4587 36.6781ZM107.315 37.16C106.552 37.2164 105.906 37.0699 105.377 36.7206C104.849 36.3712 104.526 35.8695 104.409 35.2156L105.384 35.1435C105.458 35.5265 105.663 35.8221 105.998 36.0304C106.333 36.2341 106.737 36.3185 107.209 36.2836C107.682 36.2486 108.054 36.1138 108.324 35.879C108.599 35.6394 108.724 35.3491 108.699 35.0082C108.682 34.781 108.609 34.5945 108.479 34.4487C108.349 34.2983 108.184 34.1918 107.982 34.1289C107.786 34.0658 107.562 34.0115 107.312 33.966C107.062 33.9205 106.806 33.8868 106.544 33.8651C106.282 33.8433 106.025 33.7983 105.773 33.7301C105.521 33.6619 105.293 33.5759 105.089 33.4722C104.889 33.3636 104.722 33.2023 104.587 32.9884C104.452 32.7698 104.373 32.5038 104.35 32.1902C104.309 31.6312 104.496 31.1581 104.91 30.771C105.325 30.384 105.896 30.1635 106.623 30.1098C107.291 30.0604 107.879 30.1952 108.387 30.5141C108.899 30.8281 109.216 31.2777 109.337 31.8628L108.307 31.9389C108.234 31.6244 108.044 31.3757 107.738 31.1927C107.432 31.0097 107.072 30.9334 106.659 30.964C106.245 30.9946 105.915 31.1103 105.67 31.3112C105.428 31.5073 105.318 31.7508 105.34 32.0416C105.358 32.2871 105.448 32.4815 105.609 32.6249C105.775 32.7681 105.981 32.8671 106.228 32.922C106.474 32.9769 106.744 33.0209 107.039 33.0539C107.338 33.0821 107.636 33.124 107.933 33.1798C108.234 33.2352 108.51 33.3177 108.76 33.4271C109.01 33.5366 109.22 33.7153 109.389 33.9633C109.563 34.2109 109.664 34.5256 109.692 34.9074C109.736 35.5073 109.532 36.0205 109.079 36.447C108.63 36.8686 108.043 37.1062 107.315 37.16Z" fill="black" fill-opacity="0.2"/>
<path d="M28.4969 33.0183L28.5715 34.0273L25.3605 34.2646L26.0084 43.0317L24.9586 43.1093L24.3106 34.3421L21.0997 34.5794L21.0251 33.5705L28.4969 33.0183ZM29.2126 36.8588C29.8394 36.127 30.6459 35.7247 31.6322 35.6518C32.6184 35.5789 33.4753 35.8583 34.2029 36.49C34.9347 37.1168 35.3373 37.9279 35.4109 38.9232C35.4844 39.9186 35.2055 40.7823 34.5742 41.5144C33.9471 42.2416 33.1404 42.6417 32.1541 42.7146C31.1679 42.7875 30.3111 42.5103 29.5839 41.8832C28.8609 41.2512 28.4626 40.4375 28.389 39.4422C28.3155 38.4468 28.59 37.5857 29.2126 36.8588ZM31.7037 36.6199C30.9992 36.6719 30.4243 36.9612 29.9788 37.4876C29.5333 38.0141 29.3374 38.6409 29.3912 39.3681C29.4446 40.0907 29.7305 40.6819 30.2488 41.1417C30.7672 41.6015 31.3786 41.8054 32.0831 41.7533C32.7875 41.7013 33.3646 41.4096 33.8143 40.8782C34.2637 40.3424 34.4618 39.7154 34.4087 38.9973C34.3553 38.2746 34.0673 37.6859 33.5448 37.231C33.0264 36.7712 32.4127 36.5675 31.7037 36.6199ZM40.0095 36.1294L38.1143 36.2695L38.3762 39.8145C38.4458 40.7553 38.9555 41.1906 39.9054 41.1204C40.0962 41.1063 40.2517 41.0765 40.3717 41.0311L40.4408 41.9651C40.2396 42.0256 40.0231 42.0645 39.7913 42.0816C39.0823 42.134 38.5134 41.9796 38.0846 41.6183C37.6554 41.2524 37.4121 40.6809 37.3547 39.9037L37.0917 36.3451L35.7555 36.4438L35.6854 35.4962L37.0216 35.3975L36.8831 33.5227L37.9057 33.4471L38.0442 35.3219L39.9395 35.1818L40.0095 36.1294ZM46.6341 34.6871L47.6567 34.6115L48.158 41.3948L47.1354 41.4703L47.019 39.8955C46.8093 40.4594 46.477 40.9089 46.0219 41.2442C45.5711 41.5745 45.0253 41.7634 44.3844 41.8107C43.7709 41.8561 43.1934 41.7411 42.6522 41.4658C42.1154 41.1901 41.6769 40.7907 41.3366 40.2675C40.9964 39.7443 40.8024 39.16 40.7547 38.5146C40.707 37.8692 40.8131 37.265 41.0731 36.702C41.3331 36.139 41.7085 35.684 42.1992 35.337C42.6945 34.9896 43.2489 34.7933 43.8625 34.748C44.5033 34.7006 45.0734 34.8093 45.5728 35.074C46.0718 35.3341 46.4641 35.7255 46.7495 36.2482L46.6341 34.6871ZM44.5043 40.8354C45.2451 40.7806 45.8407 40.4921 46.2911 39.9699C46.7411 39.4431 46.9386 38.807 46.8835 38.0617C46.8287 37.3208 46.5402 36.7252 46.018 36.2749C45.4957 35.8245 44.8642 35.6267 44.1234 35.6815C43.4053 35.7345 42.817 36.0293 42.3586 36.5659C41.9047 37.1021 41.7041 37.727 41.7568 38.4405C41.8106 39.1677 42.1013 39.7631 42.6291 40.2268C43.1611 40.6856 43.7862 40.8884 44.5043 40.8354ZM50.4079 31.399L51.1304 41.1751L50.1077 41.2507L49.3853 31.4746L50.4079 31.399ZM55.8549 30.9965L61.3156 30.5929L61.3902 31.6019L56.9726 31.9284L57.1973 34.9689L61.1377 34.6777L61.2122 35.6866L57.2718 35.9779L57.5464 39.6933L61.964 39.3668L62.0381 40.369L56.5774 40.7725L55.8549 30.9965ZM68.7359 33.0537L69.7585 32.9781L70.2598 39.7614L69.2372 39.837L69.1208 38.2621C68.9112 38.826 68.5788 39.2756 68.1238 39.6108C67.6729 39.9411 67.1271 40.13 66.4863 40.1773C65.8727 40.2227 65.2953 40.1077 64.754 39.8324C64.2172 39.5568 63.7787 39.1573 63.4385 38.6341C63.0982 38.1109 62.9042 37.5266 62.8565 36.8812C62.8088 36.2358 62.915 35.6316 63.175 35.0686C63.435 34.5056 63.8103 34.0506 64.3011 33.7036C64.7963 33.3563 65.3508 33.1599 65.9643 33.1146C66.6051 33.0672 67.1753 33.1759 67.6746 33.4406C68.1737 33.7007 68.5659 34.0922 68.8513 34.6149L68.7359 33.0537ZM66.6061 39.202C67.3469 39.1472 67.9425 38.8587 68.3929 38.3365C68.8429 37.8097 69.0404 37.1736 68.9853 36.4283C68.9306 35.6875 68.6421 35.0919 68.1198 34.6415C67.5976 34.1911 66.9661 33.9933 66.2252 34.0481C65.5071 34.1011 64.9189 34.396 64.4604 34.9325C64.0065 35.4687 63.8059 36.0936 63.8587 36.8071C63.9124 37.5343 64.2032 38.1298 64.731 38.5934C65.263 39.0522 65.888 39.2551 66.6061 39.202ZM74.6292 32.4742C74.8064 32.4611 75.0198 32.4728 75.2692 32.5092L75.3398 33.4636C75.1113 33.4028 74.8881 33.3805 74.6699 33.3966C74.1382 33.4359 73.7044 33.6576 73.3687 34.0617C73.0372 34.4609 72.8926 34.9468 72.9349 35.5195L73.2322 39.5417L72.2096 39.6173L71.7083 32.834L72.7309 32.7585L72.811 33.8424C72.9828 33.4459 73.2265 33.1263 73.5421 32.8836C73.8578 32.6409 74.2201 32.5045 74.6292 32.4742ZM79.9194 32.0833C80.7966 32.0184 81.5121 32.2397 82.066 32.7472C82.6241 33.2497 82.9374 33.9646 83.0059 34.8917L83.2946 38.7981L82.272 38.8737L81.9904 35.0628C81.9423 34.4128 81.7153 33.9064 81.3091 33.5434C80.9076 33.1801 80.3977 33.0213 79.7796 33.0669C79.1433 33.114 78.6467 33.3495 78.2896 33.7734C77.9367 34.1925 77.7841 34.7247 77.8318 35.3701L78.1134 39.181L77.0908 39.2566L76.5895 32.4733L77.6121 32.3977L77.7098 33.7203C77.8937 33.2406 78.1763 32.8587 78.5574 32.5746C78.9382 32.286 79.3922 32.1222 79.9194 32.0833ZM85.042 28.8669C85.2374 28.8524 85.4155 28.9124 85.5762 29.0468C85.737 29.1811 85.8246 29.346 85.839 29.5414C85.8538 29.7414 85.7917 29.9219 85.6528 30.083C85.5136 30.2395 85.3463 30.325 85.1508 30.3394C84.9509 30.3542 84.7751 30.2941 84.6234 30.1591C84.4718 30.024 84.3884 29.8543 84.3733 29.6498C84.3588 29.4543 84.4167 29.2787 84.5468 29.1228C84.677 28.967 84.842 28.8817 85.042 28.8669ZM84.7431 31.8707L85.7657 31.7952L86.267 38.5784L85.2444 38.654L84.7431 31.8707ZM91.0453 31.261C91.9225 31.1962 92.638 31.4175 93.1919 31.9249C93.75 32.4275 94.0633 33.1423 94.1318 34.0695L94.4205 37.9758L93.3979 38.0514L93.1163 34.2405C93.0682 33.5906 92.8412 33.0842 92.435 32.7212C92.0335 32.3578 91.5236 32.199 90.9055 32.2447C90.2693 32.2917 89.7726 32.5272 89.4155 32.9512C89.0626 33.3703 88.91 33.9025 88.9577 34.5479L89.2393 38.3587L88.2167 38.4343L87.7154 31.6511L88.738 31.5755L88.8358 32.8981C89.0197 32.4184 89.3022 32.0365 89.6833 31.7524C90.0641 31.4638 90.5181 31.3 91.0453 31.261ZM101.595 30.6117L102.617 30.5361L103.104 37.1216C103.173 38.0533 102.912 38.8266 102.322 39.4414C101.733 40.0562 100.942 40.4002 99.9516 40.4734C99.5608 40.5023 99.1776 40.4804 98.8021 40.4076C98.4269 40.3393 98.0733 40.2238 97.7414 40.061C97.414 39.8978 97.1386 39.6646 96.9151 39.3612C96.6965 39.062 96.5656 38.713 96.5224 38.314L97.5109 38.241C97.5588 38.7036 97.8066 39.0577 98.2543 39.3033C98.7024 39.5536 99.2377 39.6557 99.8604 39.6096C100.551 39.5586 101.106 39.3119 101.526 38.8696C101.946 38.4319 102.132 37.888 102.084 37.2381L101.974 35.7451C101.764 36.2999 101.431 36.7426 100.975 37.0733C100.524 37.4037 99.9787 37.5925 99.3378 37.6399C98.7243 37.6852 98.147 37.5725 97.606 37.3017C97.0696 37.0306 96.6316 36.638 96.292 36.1239C95.9524 35.6098 95.7591 35.0346 95.7121 34.3983C95.6654 33.7665 95.7724 33.1737 96.0331 32.6198C96.2937 32.0659 96.6696 31.6177 97.1607 31.2752C97.6559 30.9279 98.2104 30.7315 98.8239 30.6862C99.4648 30.6388 100.032 30.7454 100.527 31.0059C101.026 31.2615 101.42 31.6459 101.709 32.1592L101.595 30.6117ZM99.4587 36.6781C100.199 36.6234 100.795 36.3394 101.246 35.8263C101.697 35.3086 101.895 34.6816 101.841 33.9453C101.787 33.2182 101.499 32.6339 100.978 32.1926C100.456 31.7468 99.8247 31.5513 99.0838 31.606C98.3657 31.6591 97.7771 31.9494 97.318 32.4768C96.8631 32.9994 96.6618 33.6152 96.7142 34.3242C96.767 35.0378 97.0569 35.6218 97.584 36.0764C98.1157 36.5306 98.7406 36.7312 99.4587 36.6781ZM107.315 37.16C106.552 37.2164 105.906 37.0699 105.377 36.7206C104.849 36.3712 104.526 35.8695 104.409 35.2156L105.384 35.1435C105.458 35.5265 105.663 35.8221 105.998 36.0304C106.333 36.2341 106.737 36.3185 107.209 36.2836C107.682 36.2486 108.054 36.1138 108.324 35.879C108.599 35.6394 108.724 35.3491 108.699 35.0082C108.682 34.781 108.609 34.5945 108.479 34.4487C108.349 34.2983 108.184 34.1918 107.982 34.1289C107.786 34.0658 107.562 34.0115 107.312 33.966C107.062 33.9205 106.806 33.8868 106.544 33.8651C106.282 33.8433 106.025 33.7983 105.773 33.7301C105.521 33.6619 105.293 33.5759 105.089 33.4722C104.889 33.3636 104.722 33.2023 104.587 32.9884C104.452 32.7698 104.373 32.5038 104.35 32.1902C104.309 31.6312 104.496 31.1581 104.91 30.771C105.325 30.384 105.896 30.1635 106.623 30.1098C107.291 30.0604 107.879 30.1952 108.387 30.5141C108.899 30.8281 109.216 31.2777 109.337 31.8628L108.307 31.9389C108.234 31.6244 108.044 31.3757 107.738 31.1927C107.432 31.0097 107.072 30.9334 106.659 30.964C106.245 30.9946 105.915 31.1103 105.67 31.3112C105.428 31.5073 105.318 31.7508 105.34 32.0416C105.358 32.2871 105.448 32.4815 105.609 32.6249C105.775 32.7681 105.981 32.8671 106.228 32.922C106.474 32.9769 106.744 33.0209 107.039 33.0539C107.338 33.0821 107.636 33.124 107.933 33.1798C108.234 33.2352 108.51 33.3177 108.76 33.4271C109.01 33.5366 109.22 33.7153 109.389 33.9633C109.563 34.2109 109.664 34.5256 109.692 34.9074C109.736 35.5073 109.532 36.0205 109.079 36.447C108.63 36.8686 108.043 37.1062 107.315 37.16Z" fill="black" fill-opacity="0.2"/>
<path d="M28.4969 33.0183L28.5715 34.0273L25.3605 34.2646L26.0084 43.0317L24.9586 43.1093L24.3106 34.3421L21.0997 34.5794L21.0251 33.5705L28.4969 33.0183ZM29.2126 36.8588C29.8394 36.127 30.6459 35.7247 31.6322 35.6518C32.6184 35.5789 33.4753 35.8583 34.2029 36.49C34.9347 37.1168 35.3373 37.9279 35.4109 38.9232C35.4844 39.9186 35.2055 40.7823 34.5742 41.5144C33.9471 42.2416 33.1404 42.6417 32.1541 42.7146C31.1679 42.7875 30.3111 42.5103 29.5839 41.8832C28.8609 41.2512 28.4626 40.4375 28.389 39.4422C28.3155 38.4468 28.59 37.5857 29.2126 36.8588ZM31.7037 36.6199C30.9992 36.6719 30.4243 36.9612 29.9788 37.4876C29.5333 38.0141 29.3374 38.6409 29.3912 39.3681C29.4446 40.0907 29.7305 40.6819 30.2488 41.1417C30.7672 41.6015 31.3786 41.8054 32.0831 41.7533C32.7875 41.7013 33.3646 41.4096 33.8143 40.8782C34.2637 40.3424 34.4618 39.7154 34.4087 38.9973C34.3553 38.2746 34.0673 37.6859 33.5448 37.231C33.0264 36.7712 32.4127 36.5675 31.7037 36.6199ZM40.0095 36.1294L38.1143 36.2695L38.3762 39.8145C38.4458 40.7553 38.9555 41.1906 39.9054 41.1204C40.0962 41.1063 40.2517 41.0765 40.3717 41.0311L40.4408 41.9651C40.2396 42.0256 40.0231 42.0645 39.7913 42.0816C39.0823 42.134 38.5134 41.9796 38.0846 41.6183C37.6554 41.2524 37.4121 40.6809 37.3547 39.9037L37.0917 36.3451L35.7555 36.4438L35.6854 35.4962L37.0216 35.3975L36.8831 33.5227L37.9057 33.4471L38.0442 35.3219L39.9395 35.1818L40.0095 36.1294ZM46.6341 34.6871L47.6567 34.6115L48.158 41.3948L47.1354 41.4703L47.019 39.8955C46.8093 40.4594 46.477 40.9089 46.0219 41.2442C45.5711 41.5745 45.0253 41.7634 44.3844 41.8107C43.7709 41.8561 43.1934 41.7411 42.6522 41.4658C42.1154 41.1901 41.6769 40.7907 41.3366 40.2675C40.9964 39.7443 40.8024 39.16 40.7547 38.5146C40.707 37.8692 40.8131 37.265 41.0731 36.702C41.3331 36.139 41.7085 35.684 42.1992 35.337C42.6945 34.9896 43.2489 34.7933 43.8625 34.748C44.5033 34.7006 45.0734 34.8093 45.5728 35.074C46.0718 35.3341 46.4641 35.7255 46.7495 36.2482L46.6341 34.6871ZM44.5043 40.8354C45.2451 40.7806 45.8407 40.4921 46.2911 39.9699C46.7411 39.4431 46.9386 38.807 46.8835 38.0617C46.8287 37.3208 46.5402 36.7252 46.018 36.2749C45.4957 35.8245 44.8642 35.6267 44.1234 35.6815C43.4053 35.7345 42.817 36.0293 42.3586 36.5659C41.9047 37.1021 41.7041 37.727 41.7568 38.4405C41.8106 39.1677 42.1013 39.7631 42.6291 40.2268C43.1611 40.6856 43.7862 40.8884 44.5043 40.8354ZM50.4079 31.399L51.1304 41.1751L50.1077 41.2507L49.3853 31.4746L50.4079 31.399ZM55.8549 30.9965L61.3156 30.5929L61.3902 31.6019L56.9726 31.9284L57.1973 34.9689L61.1377 34.6777L61.2122 35.6866L57.2718 35.9779L57.5464 39.6933L61.964 39.3668L62.0381 40.369L56.5774 40.7725L55.8549 30.9965ZM68.7359 33.0537L69.7585 32.9781L70.2598 39.7614L69.2372 39.837L69.1208 38.2621C68.9112 38.826 68.5788 39.2756 68.1238 39.6108C67.6729 39.9411 67.1271 40.13 66.4863 40.1773C65.8727 40.2227 65.2953 40.1077 64.754 39.8324C64.2172 39.5568 63.7787 39.1573 63.4385 38.6341C63.0982 38.1109 62.9042 37.5266 62.8565 36.8812C62.8088 36.2358 62.915 35.6316 63.175 35.0686C63.435 34.5056 63.8103 34.0506 64.3011 33.7036C64.7963 33.3563 65.3508 33.1599 65.9643 33.1146C66.6051 33.0672 67.1753 33.1759 67.6746 33.4406C68.1737 33.7007 68.5659 34.0922 68.8513 34.6149L68.7359 33.0537ZM66.6061 39.202C67.3469 39.1472 67.9425 38.8587 68.3929 38.3365C68.8429 37.8097 69.0404 37.1736 68.9853 36.4283C68.9306 35.6875 68.6421 35.0919 68.1198 34.6415C67.5976 34.1911 66.9661 33.9933 66.2252 34.0481C65.5071 34.1011 64.9189 34.396 64.4604 34.9325C64.0065 35.4687 63.8059 36.0936 63.8587 36.8071C63.9124 37.5343 64.2032 38.1298 64.731 38.5934C65.263 39.0522 65.888 39.2551 66.6061 39.202ZM74.6292 32.4742C74.8064 32.4611 75.0198 32.4728 75.2692 32.5092L75.3398 33.4636C75.1113 33.4028 74.8881 33.3805 74.6699 33.3966C74.1382 33.4359 73.7044 33.6576 73.3687 34.0617C73.0372 34.4609 72.8926 34.9468 72.9349 35.5195L73.2322 39.5417L72.2096 39.6173L71.7083 32.834L72.7309 32.7585L72.811 33.8424C72.9828 33.4459 73.2265 33.1263 73.5421 32.8836C73.8578 32.6409 74.2201 32.5045 74.6292 32.4742ZM79.9194 32.0833C80.7966 32.0184 81.5121 32.2397 82.066 32.7472C82.6241 33.2497 82.9374 33.9646 83.0059 34.8917L83.2946 38.7981L82.272 38.8737L81.9904 35.0628C81.9423 34.4128 81.7153 33.9064 81.3091 33.5434C80.9076 33.1801 80.3977 33.0213 79.7796 33.0669C79.1433 33.114 78.6467 33.3495 78.2896 33.7734C77.9367 34.1925 77.7841 34.7247 77.8318 35.3701L78.1134 39.181L77.0908 39.2566L76.5895 32.4733L77.6121 32.3977L77.7098 33.7203C77.8937 33.2406 78.1763 32.8587 78.5574 32.5746C78.9382 32.286 79.3922 32.1222 79.9194 32.0833ZM85.042 28.8669C85.2374 28.8524 85.4155 28.9124 85.5762 29.0468C85.737 29.1811 85.8246 29.346 85.839 29.5414C85.8538 29.7414 85.7917 29.9219 85.6528 30.083C85.5136 30.2395 85.3463 30.325 85.1508 30.3394C84.9509 30.3542 84.7751 30.2941 84.6234 30.1591C84.4718 30.024 84.3884 29.8543 84.3733 29.6498C84.3588 29.4543 84.4167 29.2787 84.5468 29.1228C84.677 28.967 84.842 28.8817 85.042 28.8669ZM84.7431 31.8707L85.7657 31.7952L86.267 38.5784L85.2444 38.654L84.7431 31.8707ZM91.0453 31.261C91.9225 31.1962 92.638 31.4175 93.1919 31.9249C93.75 32.4275 94.0633 33.1423 94.1318 34.0695L94.4205 37.9758L93.3979 38.0514L93.1163 34.2405C93.0682 33.5906 92.8412 33.0842 92.435 32.7212C92.0335 32.3578 91.5236 32.199 90.9055 32.2447C90.2693 32.2917 89.7726 32.5272 89.4155 32.9512C89.0626 33.3703 88.91 33.9025 88.9577 34.5479L89.2393 38.3587L88.2167 38.4343L87.7154 31.6511L88.738 31.5755L88.8358 32.8981C89.0197 32.4184 89.3022 32.0365 89.6833 31.7524C90.0641 31.4638 90.5181 31.3 91.0453 31.261ZM101.595 30.6117L102.617 30.5361L103.104 37.1216C103.173 38.0533 102.912 38.8266 102.322 39.4414C101.733 40.0562 100.942 40.4002 99.9516 40.4734C99.5608 40.5023 99.1776 40.4804 98.8021 40.4076C98.4269 40.3393 98.0733 40.2238 97.7414 40.061C97.414 39.8978 97.1386 39.6646 96.9151 39.3612C96.6965 39.062 96.5656 38.713 96.5224 38.314L97.5109 38.241C97.5588 38.7036 97.8066 39.0577 98.2543 39.3033C98.7024 39.5536 99.2377 39.6557 99.8604 39.6096C100.551 39.5586 101.106 39.3119 101.526 38.8696C101.946 38.4319 102.132 37.888 102.084 37.2381L101.974 35.7451C101.764 36.2999 101.431 36.7426 100.975 37.0733C100.524 37.4037 99.9787 37.5925 99.3378 37.6399C98.7243 37.6852 98.147 37.5725 97.606 37.3017C97.0696 37.0306 96.6316 36.638 96.292 36.1239C95.9524 35.6098 95.7591 35.0346 95.7121 34.3983C95.6654 33.7665 95.7724 33.1737 96.0331 32.6198C96.2937 32.0659 96.6696 31.6177 97.1607 31.2752C97.6559 30.9279 98.2104 30.7315 98.8239 30.6862C99.4648 30.6388 100.032 30.7454 100.527 31.0059C101.026 31.2615 101.42 31.6459 101.709 32.1592L101.595 30.6117ZM99.4587 36.6781C100.199 36.6234 100.795 36.3394 101.246 35.8263C101.697 35.3086 101.895 34.6816 101.841 33.9453C101.787 33.2182 101.499 32.6339 100.978 32.1926C100.456 31.7468 99.8247 31.5513 99.0838 31.606C98.3657 31.6591 97.7771 31.9494 97.318 32.4768C96.8631 32.9994 96.6618 33.6152 96.7142 34.3242C96.767 35.0378 97.0569 35.6218 97.584 36.0764C98.1157 36.5306 98.7406 36.7312 99.4587 36.6781ZM107.315 37.16C106.552 37.2164 105.906 37.0699 105.377 36.7206C104.849 36.3712 104.526 35.8695 104.409 35.2156L105.384 35.1435C105.458 35.5265 105.663 35.8221 105.998 36.0304C106.333 36.2341 106.737 36.3185 107.209 36.2836C107.682 36.2486 108.054 36.1138 108.324 35.879C108.599 35.6394 108.724 35.3491 108.699 35.0082C108.682 34.781 108.609 34.5945 108.479 34.4487C108.349 34.2983 108.184 34.1918 107.982 34.1289C107.786 34.0658 107.562 34.0115 107.312 33.966C107.062 33.9205 106.806 33.8868 106.544 33.8651C106.282 33.8433 106.025 33.7983 105.773 33.7301C105.521 33.6619 105.293 33.5759 105.089 33.4722C104.889 33.3636 104.722 33.2023 104.587 32.9884C104.452 32.7698 104.373 32.5038 104.35 32.1902C104.309 31.6312 104.496 31.1581 104.91 30.771C105.325 30.384 105.896 30.1635 106.623 30.1098C107.291 30.0604 107.879 30.1952 108.387 30.5141C108.899 30.8281 109.216 31.2777 109.337 31.8628L108.307 31.9389C108.234 31.6244 108.044 31.3757 107.738 31.1927C107.432 31.0097 107.072 30.9334 106.659 30.964C106.245 30.9946 105.915 31.1103 105.67 31.3112C105.428 31.5073 105.318 31.7508 105.34 32.0416C105.358 32.2871 105.448 32.4815 105.609 32.6249C105.775 32.7681 105.981 32.8671 106.228 32.922C106.474 32.9769 106.744 33.0209 107.039 33.0539C107.338 33.0821 107.636 33.124 107.933 33.1798C108.234 33.2352 108.51 33.3177 108.76 33.4271C109.01 33.5366 109.22 33.7153 109.389 33.9633C109.563 34.2109 109.664 34.5256 109.692 34.9074C109.736 35.5073 109.532 36.0205 109.079 36.447C108.63 36.8686 108.043 37.1062 107.315 37.16Z" fill="black" fill-opacity="0.2"/>
<path d="M28.4969 33.0183L28.5715 34.0273L25.3605 34.2646L26.0084 43.0317L24.9586 43.1093L24.3106 34.3421L21.0997 34.5794L21.0251 33.5705L28.4969 33.0183ZM29.2126 36.8588C29.8394 36.127 30.6459 35.7247 31.6322 35.6518C32.6184 35.5789 33.4753 35.8583 34.2029 36.49C34.9347 37.1168 35.3373 37.9279 35.4109 38.9232C35.4844 39.9186 35.2055 40.7823 34.5742 41.5144C33.9471 42.2416 33.1404 42.6417 32.1541 42.7146C31.1679 42.7875 30.3111 42.5103 29.5839 41.8832C28.8609 41.2512 28.4626 40.4375 28.389 39.4422C28.3155 38.4468 28.59 37.5857 29.2126 36.8588ZM31.7037 36.6199C30.9992 36.6719 30.4243 36.9612 29.9788 37.4876C29.5333 38.0141 29.3374 38.6409 29.3912 39.3681C29.4446 40.0907 29.7305 40.6819 30.2488 41.1417C30.7672 41.6015 31.3786 41.8054 32.0831 41.7533C32.7875 41.7013 33.3646 41.4096 33.8143 40.8782C34.2637 40.3424 34.4618 39.7154 34.4087 38.9973C34.3553 38.2746 34.0673 37.6859 33.5448 37.231C33.0264 36.7712 32.4127 36.5675 31.7037 36.6199ZM40.0095 36.1294L38.1143 36.2695L38.3762 39.8145C38.4458 40.7553 38.9555 41.1906 39.9054 41.1204C40.0962 41.1063 40.2517 41.0765 40.3717 41.0311L40.4408 41.9651C40.2396 42.0256 40.0231 42.0645 39.7913 42.0816C39.0823 42.134 38.5134 41.9796 38.0846 41.6183C37.6554 41.2524 37.4121 40.6809 37.3547 39.9037L37.0917 36.3451L35.7555 36.4438L35.6854 35.4962L37.0216 35.3975L36.8831 33.5227L37.9057 33.4471L38.0442 35.3219L39.9395 35.1818L40.0095 36.1294ZM46.6341 34.6871L47.6567 34.6115L48.158 41.3948L47.1354 41.4703L47.019 39.8955C46.8093 40.4594 46.477 40.9089 46.0219 41.2442C45.5711 41.5745 45.0253 41.7634 44.3844 41.8107C43.7709 41.8561 43.1934 41.7411 42.6522 41.4658C42.1154 41.1901 41.6769 40.7907 41.3366 40.2675C40.9964 39.7443 40.8024 39.16 40.7547 38.5146C40.707 37.8692 40.8131 37.265 41.0731 36.702C41.3331 36.139 41.7085 35.684 42.1992 35.337C42.6945 34.9896 43.2489 34.7933 43.8625 34.748C44.5033 34.7006 45.0734 34.8093 45.5728 35.074C46.0718 35.3341 46.4641 35.7255 46.7495 36.2482L46.6341 34.6871ZM44.5043 40.8354C45.2451 40.7806 45.8407 40.4921 46.2911 39.9699C46.7411 39.4431 46.9386 38.807 46.8835 38.0617C46.8287 37.3208 46.5402 36.7252 46.018 36.2749C45.4957 35.8245 44.8642 35.6267 44.1234 35.6815C43.4053 35.7345 42.817 36.0293 42.3586 36.5659C41.9047 37.1021 41.7041 37.727 41.7568 38.4405C41.8106 39.1677 42.1013 39.7631 42.6291 40.2268C43.1611 40.6856 43.7862 40.8884 44.5043 40.8354ZM50.4079 31.399L51.1304 41.1751L50.1077 41.2507L49.3853 31.4746L50.4079 31.399ZM55.8549 30.9965L61.3156 30.5929L61.3902 31.6019L56.9726 31.9284L57.1973 34.9689L61.1377 34.6777L61.2122 35.6866L57.2718 35.9779L57.5464 39.6933L61.964 39.3668L62.0381 40.369L56.5774 40.7725L55.8549 30.9965ZM68.7359 33.0537L69.7585 32.9781L70.2598 39.7614L69.2372 39.837L69.1208 38.2621C68.9112 38.826 68.5788 39.2756 68.1238 39.6108C67.6729 39.9411 67.1271 40.13 66.4863 40.1773C65.8727 40.2227 65.2953 40.1077 64.754 39.8324C64.2172 39.5568 63.7787 39.1573 63.4385 38.6341C63.0982 38.1109 62.9042 37.5266 62.8565 36.8812C62.8088 36.2358 62.915 35.6316 63.175 35.0686C63.435 34.5056 63.8103 34.0506 64.3011 33.7036C64.7963 33.3563 65.3508 33.1599 65.9643 33.1146C66.6051 33.0672 67.1753 33.1759 67.6746 33.4406C68.1737 33.7007 68.5659 34.0922 68.8513 34.6149L68.7359 33.0537ZM66.6061 39.202C67.3469 39.1472 67.9425 38.8587 68.3929 38.3365C68.8429 37.8097 69.0404 37.1736 68.9853 36.4283C68.9306 35.6875 68.6421 35.0919 68.1198 34.6415C67.5976 34.1911 66.9661 33.9933 66.2252 34.0481C65.5071 34.1011 64.9189 34.396 64.4604 34.9325C64.0065 35.4687 63.8059 36.0936 63.8587 36.8071C63.9124 37.5343 64.2032 38.1298 64.731 38.5934C65.263 39.0522 65.888 39.2551 66.6061 39.202ZM74.6292 32.4742C74.8064 32.4611 75.0198 32.4728 75.2692 32.5092L75.3398 33.4636C75.1113 33.4028 74.8881 33.3805 74.6699 33.3966C74.1382 33.4359 73.7044 33.6576 73.3687 34.0617C73.0372 34.4609 72.8926 34.9468 72.9349 35.5195L73.2322 39.5417L72.2096 39.6173L71.7083 32.834L72.7309 32.7585L72.811 33.8424C72.9828 33.4459 73.2265 33.1263 73.5421 32.8836C73.8578 32.6409 74.2201 32.5045 74.6292 32.4742ZM79.9194 32.0833C80.7966 32.0184 81.5121 32.2397 82.066 32.7472C82.6241 33.2497 82.9374 33.9646 83.0059 34.8917L83.2946 38.7981L82.272 38.8737L81.9904 35.0628C81.9423 34.4128 81.7153 33.9064 81.3091 33.5434C80.9076 33.1801 80.3977 33.0213 79.7796 33.0669C79.1433 33.114 78.6467 33.3495 78.2896 33.7734C77.9367 34.1925 77.7841 34.7247 77.8318 35.3701L78.1134 39.181L77.0908 39.2566L76.5895 32.4733L77.6121 32.3977L77.7098 33.7203C77.8937 33.2406 78.1763 32.8587 78.5574 32.5746C78.9382 32.286 79.3922 32.1222 79.9194 32.0833ZM85.042 28.8669C85.2374 28.8524 85.4155 28.9124 85.5762 29.0468C85.737 29.1811 85.8246 29.346 85.839 29.5414C85.8538 29.7414 85.7917 29.9219 85.6528 30.083C85.5136 30.2395 85.3463 30.325 85.1508 30.3394C84.9509 30.3542 84.7751 30.2941 84.6234 30.1591C84.4718 30.024 84.3884 29.8543 84.3733 29.6498C84.3588 29.4543 84.4167 29.2787 84.5468 29.1228C84.677 28.967 84.842 28.8817 85.042 28.8669ZM84.7431 31.8707L85.7657 31.7952L86.267 38.5784L85.2444 38.654L84.7431 31.8707ZM91.0453 31.261C91.9225 31.1962 92.638 31.4175 93.1919 31.9249C93.75 32.4275 94.0633 33.1423 94.1318 34.0695L94.4205 37.9758L93.3979 38.0514L93.1163 34.2405C93.0682 33.5906 92.8412 33.0842 92.435 32.7212C92.0335 32.3578 91.5236 32.199 90.9055 32.2447C90.2693 32.2917 89.7726 32.5272 89.4155 32.9512C89.0626 33.3703 88.91 33.9025 88.9577 34.5479L89.2393 38.3587L88.2167 38.4343L87.7154 31.6511L88.738 31.5755L88.8358 32.8981C89.0197 32.4184 89.3022 32.0365 89.6833 31.7524C90.0641 31.4638 90.5181 31.3 91.0453 31.261ZM101.595 30.6117L102.617 30.5361L103.104 37.1216C103.173 38.0533 102.912 38.8266 102.322 39.4414C101.733 40.0562 100.942 40.4002 99.9516 40.4734C99.5608 40.5023 99.1776 40.4804 98.8021 40.4076C98.4269 40.3393 98.0733 40.2238 97.7414 40.061C97.414 39.8978 97.1386 39.6646 96.9151 39.3612C96.6965 39.062 96.5656 38.713 96.5224 38.314L97.5109 38.241C97.5588 38.7036 97.8066 39.0577 98.2543 39.3033C98.7024 39.5536 99.2377 39.6557 99.8604 39.6096C100.551 39.5586 101.106 39.3119 101.526 38.8696C101.946 38.4319 102.132 37.888 102.084 37.2381L101.974 35.7451C101.764 36.2999 101.431 36.7426 100.975 37.0733C100.524 37.4037 99.9787 37.5925 99.3378 37.6399C98.7243 37.6852 98.147 37.5725 97.606 37.3017C97.0696 37.0306 96.6316 36.638 96.292 36.1239C95.9524 35.6098 95.7591 35.0346 95.7121 34.3983C95.6654 33.7665 95.7724 33.1737 96.0331 32.6198C96.2937 32.0659 96.6696 31.6177 97.1607 31.2752C97.6559 30.9279 98.2104 30.7315 98.8239 30.6862C99.4648 30.6388 100.032 30.7454 100.527 31.0059C101.026 31.2615 101.42 31.6459 101.709 32.1592L101.595 30.6117ZM99.4587 36.6781C100.199 36.6234 100.795 36.3394 101.246 35.8263C101.697 35.3086 101.895 34.6816 101.841 33.9453C101.787 33.2182 101.499 32.6339 100.978 32.1926C100.456 31.7468 99.8247 31.5513 99.0838 31.606C98.3657 31.6591 97.7771 31.9494 97.318 32.4768C96.8631 32.9994 96.6618 33.6152 96.7142 34.3242C96.767 35.0378 97.0569 35.6218 97.584 36.0764C98.1157 36.5306 98.7406 36.7312 99.4587 36.6781ZM107.315 37.16C106.552 37.2164 105.906 37.0699 105.377 36.7206C104.849 36.3712 104.526 35.8695 104.409 35.2156L105.384 35.1435C105.458 35.5265 105.663 35.8221 105.998 36.0304C106.333 36.2341 106.737 36.3185 107.209 36.2836C107.682 36.2486 108.054 36.1138 108.324 35.879C108.599 35.6394 108.724 35.3491 108.699 35.0082C108.682 34.781 108.609 34.5945 108.479 34.4487C108.349 34.2983 108.184 34.1918 107.982 34.1289C107.786 34.0658 107.562 34.0115 107.312 33.966C107.062 33.9205 106.806 33.8868 106.544 33.8651C106.282 33.8433 106.025 33.7983 105.773 33.7301C105.521 33.6619 105.293 33.5759 105.089 33.4722C104.889 33.3636 104.722 33.2023 104.587 32.9884C104.452 32.7698 104.373 32.5038 104.35 32.1902C104.309 31.6312 104.496 31.1581 104.91 30.771C105.325 30.384 105.896 30.1635 106.623 30.1098C107.291 30.0604 107.879 30.1952 108.387 30.5141C108.899 30.8281 109.216 31.2777 109.337 31.8628L108.307 31.9389C108.234 31.6244 108.044 31.3757 107.738 31.1927C107.432 31.0097 107.072 30.9334 106.659 30.964C106.245 30.9946 105.915 31.1103 105.67 31.3112C105.428 31.5073 105.318 31.7508 105.34 32.0416C105.358 32.2871 105.448 32.4815 105.609 32.6249C105.775 32.7681 105.981 32.8671 106.228 32.922C106.474 32.9769 106.744 33.0209 107.039 33.0539C107.338 33.0821 107.636 33.124 107.933 33.1798C108.234 33.2352 108.51 33.3177 108.76 33.4271C109.01 33.5366 109.22 33.7153 109.389 33.9633C109.563 34.2109 109.664 34.5256 109.692 34.9074C109.736 35.5073 109.532 36.0205 109.079 36.447C108.63 36.8686 108.043 37.1062 107.315 37.16Z" fill="black" fill-opacity="0.2"/>
<path d="M34.2116 84.54L34.0528 82.3904L43.5913 71.3295C44.8705 69.8191 45.8003 68.4974 46.3806 67.3644C46.96 66.2189 47.212 65.1353 47.1365 64.1134C47.0287 62.6554 46.4289 61.4906 45.3371 60.619C44.2452 59.7474 42.9204 59.3692 41.3627 59.4843C39.5557 59.6178 38.132 60.2744 37.0915 61.4539C36.0634 62.6325 35.6362 64.1426 35.8099 65.9842L32.9312 66.1969C32.7515 64.4435 32.9978 62.8591 33.67 61.4436C34.3423 60.0282 35.3313 58.9151 36.6372 58.1044C37.9555 57.2928 39.4745 56.8234 41.1942 56.6963C43.5994 56.5186 45.6409 57.1007 47.3188 58.4427C48.9959 59.7722 49.9177 61.5648 50.0844 63.8204C50.2824 66.4997 48.8534 69.5435 45.7974 72.952L38.5281 81.4018L51.6504 80.432L51.8576 83.2359L34.2116 84.54ZM62.9139 82.7947C60.5711 82.9679 58.5168 82.4681 56.7512 81.2955C54.9855 80.1229 53.9185 78.4852 53.5501 76.3823L56.4287 76.1696C56.7968 77.4204 57.5525 78.4046 58.6956 79.122C59.8502 79.826 61.1877 80.1219 62.7081 80.0095C64.4029 79.8843 65.7941 79.2114 66.8817 77.9908C67.9684 76.7577 68.4509 75.3187 68.3294 73.6737C68.2023 71.954 67.5093 70.5455 66.2504 69.4482C64.9915 68.3509 63.5146 67.8649 61.8198 67.9901C60.7855 68.0665 59.8321 68.3062 58.9597 68.7089C58.0989 69.0983 57.4293 69.6177 56.9511 70.267L54.4649 70.4507L54.6619 56.0769L68.2515 55.0726L68.4532 57.8018L57.4432 58.6154L57.1994 67.5234C57.7099 66.9719 58.397 66.5202 59.2606 66.1682C60.1358 65.8028 61.0469 65.5851 61.994 65.5151C64.4614 65.3328 66.5775 65.9908 68.3422 67.4893C70.106 68.9753 71.0809 70.9769 71.2669 73.4942C71.4446 75.8994 70.7233 78.0076 69.103 79.8188C67.4818 81.6177 65.4187 82.6096 62.9139 82.7947ZM84.7844 81.1785C81.7562 81.4023 79.2915 80.3502 77.3903 78.0223C75.5016 75.6935 74.3993 72.3919 74.0834 68.1175C73.7676 63.8431 74.3725 60.4153 75.8984 57.8342C77.4367 55.2521 79.7199 53.8492 82.7482 53.6254C85.7639 53.4025 88.2161 54.4555 90.1048 56.7843C91.9935 59.1131 93.0958 62.4147 93.4117 66.6891C93.7276 70.9635 93.1226 74.3913 91.5968 76.9724C90.071 79.5536 87.8002 80.9556 84.7844 81.1785ZM84.5786 78.3932C86.6971 78.2367 88.2716 77.1618 89.3021 75.1686C90.345 73.1744 90.7367 70.4202 90.477 66.906C90.2173 63.3918 89.425 60.7251 88.1002 58.9059C86.7879 57.0858 85.0725 56.254 82.954 56.4106C80.823 56.5681 79.2423 57.6434 78.2118 59.6367C77.1928 61.6165 76.8136 64.3698 77.0743 67.8965C77.3349 71.4232 78.1152 74.097 79.415 75.918C80.7264 77.7257 82.4476 78.5507 84.5786 78.3932ZM114.759 78.5874L111.057 78.8609L100.964 70.4538L101.636 79.5572L98.8324 79.7644L96.8514 52.959L99.6553 52.7518L100.875 69.2575L109.253 60.2934L112.786 60.0323L103.741 69.6284L114.759 78.5874Z" fill="black"/>
<path d="M26.7291 66.3966C26.7835 67.1329 26.5523 67.776 26.0355 68.326C25.5231 68.8757 24.8358 69.2212 23.9734 69.3626L24.0893 70.9306L23.1144 71.0027L22.9986 69.4347C22.1091 69.3953 21.3636 69.1077 20.7619 68.5718C20.1644 68.031 19.8351 67.347 19.774 66.5199L20.8102 66.4433C20.8572 67.0796 21.1299 67.5849 21.6283 67.9594C22.1263 68.3293 22.7366 68.4875 23.4593 68.4341C24.141 68.3838 24.6923 68.1762 25.1132 67.8115C25.5337 67.4423 25.7247 66.9963 25.6861 66.4737C25.6659 66.201 25.5936 65.9641 25.4691 65.7631C25.3491 65.5618 25.1912 65.4044 24.9955 65.2909C24.8043 65.1771 24.5821 65.077 24.3289 64.9906C24.08 64.8993 23.8146 64.8321 23.5326 64.7889C23.2552 64.7455 22.9681 64.6936 22.6711 64.6332C22.3742 64.5729 22.0843 64.5144 21.8013 64.4576C21.5226 64.396 21.2555 64.306 21 64.1878C20.749 64.0693 20.524 63.9305 20.3249 63.7716C20.1303 63.6123 19.9684 63.4004 19.8392 63.1357C19.7145 62.8708 19.6394 62.5656 19.6139 62.2202C19.5622 61.5203 19.7823 60.9122 20.2742 60.396C20.7661 59.8799 21.4277 59.5568 22.259 59.4268L22.1446 57.8793L23.1195 57.8072L23.2358 59.382C24.0711 59.43 24.7419 59.6957 25.2483 60.1792C25.7589 60.6579 26.041 61.2585 26.0944 61.9812L25.024 62.0603C24.9617 61.5256 24.7134 61.103 24.2792 60.7924C23.8491 60.4769 23.316 60.3426 22.6797 60.3896C22.0434 60.4367 21.5362 60.6227 21.1581 60.9476C20.7845 61.2723 20.6152 61.6709 20.6501 62.1436C20.6703 62.4163 20.7536 62.6478 20.9002 62.838C21.0468 63.0282 21.2335 63.1744 21.4604 63.2764C21.6919 63.3781 21.9541 63.4638 22.2471 63.5336C22.5399 63.5988 22.8481 63.6582 23.172 63.712C23.4955 63.7612 23.8173 63.8174 24.1372 63.8806C24.4618 63.9434 24.7724 64.0347 25.0691 64.1544C25.3659 64.2742 25.6305 64.4237 25.8631 64.603C26.0999 64.7774 26.296 65.0188 26.4513 65.3272C26.6063 65.6311 26.6989 65.9875 26.7291 66.3966Z" fill="black"/>
<path d="M130.617 30.2763L130.706 31.4762L128.15 31.6651L128.338 34.2216L127.139 34.3103L126.95 31.7538L124.393 31.9427L124.304 30.7429L126.861 30.5539L126.672 27.9974L127.872 27.9088L128.061 30.4653L130.617 30.2763ZM138.721 34.839C137.83 34.9048 137.053 34.7155 136.389 34.271C135.726 33.8219 135.329 33.1909 135.201 32.3778L136.544 32.2786C136.675 32.6939 136.927 33.0179 137.301 33.2508C137.679 33.4833 138.121 33.581 138.625 33.5437C139.184 33.5024 139.641 33.279 139.994 32.8735C140.348 32.4636 140.505 31.9859 140.464 31.4405C140.422 30.8678 140.196 30.4047 139.786 30.0512C139.376 29.6931 138.891 29.5347 138.332 29.576C137.991 29.6012 137.675 29.6839 137.384 29.8243C137.092 29.9646 136.863 30.1437 136.697 30.3617L135.524 30.4484L135.589 25.1039L140.729 24.724L140.823 25.9989L136.883 26.2901L136.809 29.099C136.979 28.922 137.21 28.7769 137.504 28.6638C137.801 28.5459 138.111 28.475 138.434 28.4511C139.347 28.3836 140.128 28.6184 140.775 29.1555C141.423 29.6926 141.781 30.4292 141.85 31.3655C141.894 31.9563 141.784 32.5105 141.521 33.0281C141.257 33.5456 140.877 33.9667 140.38 34.2913C139.887 34.6111 139.334 34.7936 138.721 34.839ZM146.152 34.2898C145.261 34.3556 144.484 34.1663 143.82 33.7218C143.156 33.2728 142.76 32.6417 142.632 31.8287L143.975 31.7294C144.106 32.1447 144.358 32.4688 144.732 32.7016C145.11 32.9342 145.551 33.0318 146.056 32.9945C146.615 32.9532 147.071 32.7298 147.425 32.3244C147.779 31.9144 147.936 31.4367 147.895 30.8913C147.853 30.3187 147.627 29.8556 147.217 29.502C146.806 29.1439 146.322 28.9855 145.763 29.0268C145.422 29.052 145.106 29.1348 144.815 29.2751C144.523 29.4154 144.294 29.5946 144.128 29.8125L142.955 29.8992L143.019 24.5547L148.16 24.1748L148.254 25.4497L144.313 25.7409L144.24 28.5499C144.41 28.3728 144.641 28.2277 144.934 28.1147C145.232 27.9967 145.542 27.9258 145.865 27.902C146.778 27.8345 147.559 28.0693 148.206 28.6063C148.854 29.1434 149.212 29.8801 149.281 30.8163C149.325 31.4072 149.215 31.9614 148.952 32.4789C148.688 32.9965 148.308 33.4176 147.811 33.7422C147.318 34.0619 146.765 34.2445 146.152 34.2898ZM152.937 24.2605C153.329 24.6154 153.546 25.086 153.59 25.6723C153.633 26.2586 153.487 26.7583 153.152 27.1715C152.821 27.5844 152.377 27.8114 151.818 27.8528C151.259 27.8941 150.781 27.7352 150.384 27.3761C149.987 27.0169 149.767 26.5442 149.724 25.958C149.681 25.3717 149.829 24.874 150.169 24.4651C150.509 24.0561 150.958 23.8309 151.517 23.7896C152.076 23.7483 152.55 23.9053 152.937 24.2605ZM156.497 23.5587L157.554 23.4806L151.786 33.7363L150.73 33.8144L156.497 23.5587ZM152.481 26.6248C152.66 26.3831 152.736 26.0872 152.71 25.7373C152.684 25.3873 152.568 25.1103 152.361 24.9063C152.153 24.6977 151.893 24.605 151.579 24.6281C151.261 24.6517 151.013 24.782 150.834 25.0191C150.654 25.2517 150.578 25.543 150.604 25.893C150.629 26.2429 150.748 26.5243 150.961 26.7371C151.173 26.9454 151.438 27.0377 151.756 27.0142C152.065 26.9914 152.306 26.8616 152.481 26.6248ZM157.893 29.9194C158.284 30.2698 158.502 30.7381 158.545 31.3244C158.588 31.9107 158.442 32.4104 158.107 32.8236C157.772 33.2368 157.325 33.464 156.766 33.5054C156.207 33.5467 155.732 33.3876 155.34 33.0282C154.952 32.6684 154.736 32.1953 154.693 31.6091C154.65 31.0228 154.794 30.5277 155.125 30.124C155.46 29.7153 155.907 29.4904 156.467 29.449C157.026 29.4077 157.501 29.5645 157.893 29.9194ZM157.666 31.3894C157.64 31.0394 157.523 30.7602 157.316 30.5516C157.108 30.3384 156.845 30.2436 156.527 30.2671C156.209 30.2906 155.963 30.4208 155.788 30.6576C155.618 30.8941 155.546 31.1896 155.573 31.5441C155.599 31.8986 155.716 32.1824 155.923 32.3955C156.131 32.6041 156.391 32.6968 156.705 32.6736C157.023 32.6501 157.269 32.52 157.444 32.2832C157.618 32.0418 157.692 31.7439 157.666 31.3894Z" fill="#9747FF"/>
</g>
<rect x="0.655762" y="17.4429" width="227.775" height="131.032" rx="18.9813" transform="rotate(-4.22661 0.655762 17.4429)" stroke="black" stroke-opacity="0.1" stroke-width="1.2246"/>
<defs>
<clipPath id="clip0_316_1759">
<rect y="16.8774" width="229" height="132.257" rx="19.5936" transform="rotate(-4.22661 0 16.8774)" fill="white"/>
</clipPath>
<clipPath id="clip1_316_1759">
<rect width="229" height="108" fill="white" transform="translate(1.76855 40.812) rotate(-4.22661)"/>
</clipPath>
</defs>
</svg>
