<svg width="287" height="141" viewBox="0 0 287 141" fill="none" xmlns="http://www.w3.org/2000/svg">
<g filter="url(#filter0_dddd_413_179)">
<rect x="7.56592" y="6" width="213.585" height="61.7808" rx="30.8904" fill="#F48025"/>
<path d="M31.0194 24.5784H34.1067V43.909H45.0442V46.8257H31.0194V24.5784ZM49.6364 24.3612C50.1639 24.3612 50.6241 24.5577 51.0171 24.9507C51.4102 25.3438 51.6067 25.804 51.6067 26.3315C51.6067 26.8693 51.4102 27.3347 51.0171 27.7278C50.6241 28.1105 50.1639 28.3018 49.6364 28.3018C49.0882 28.3018 48.6228 28.1105 48.2401 27.7278C47.8574 27.3451 47.6661 26.8797 47.6661 26.3315C47.6661 25.804 47.8574 25.3438 48.2401 24.9507C48.6331 24.5577 49.0986 24.3612 49.6364 24.3612ZM48.147 31.3271H51.1102V46.8257H48.147V31.3271ZM69.2308 31.3271L62.6838 46.8257H60.155L53.608 31.3271H56.7884L61.4271 43.0092L66.0193 31.3271H69.2308Z" fill="white"/>
<rect x="81.7026" y="14.8267" width="128.303" height="44.182" rx="22.091" fill="white"/>
<rect x="82.5852" y="15.7092" width="126.538" height="42.4168" rx="21.2084" stroke="black" stroke-opacity="0.1" stroke-width="1.76516"/>
<path d="M101.001 45.4175V31.8219H105.836C106.936 31.8219 107.871 32.1632 108.642 32.8459C109.413 33.5222 109.799 34.3343 109.799 35.2824C109.799 35.9777 109.59 36.6066 109.173 37.1691C108.762 37.7317 108.241 38.0856 107.609 38.231C108.43 38.3384 109.113 38.7177 109.657 39.3687C110.206 40.0134 110.481 40.7687 110.481 41.6346C110.481 42.6965 110.086 43.594 109.296 44.3272C108.513 45.054 107.555 45.4175 106.424 45.4175H101.001ZM102.868 37.6147H105.779C106.373 37.6147 106.875 37.4156 107.286 37.0174C107.703 36.6192 107.912 36.1326 107.912 35.5574C107.912 35.0138 107.703 34.5556 107.286 34.1827C106.875 33.8034 106.373 33.6138 105.779 33.6138H102.868V37.6147ZM102.868 43.6351H106.31C106.961 43.6351 107.501 43.4202 107.931 42.9904C108.361 42.5543 108.576 42.017 108.576 41.3786C108.576 40.7592 108.358 40.2314 107.922 39.7953C107.485 39.3592 106.955 39.1411 106.329 39.1411H102.868V43.6351ZM118.825 31.6323C119.779 31.6323 120.68 31.8124 121.527 32.1727C122.38 32.5267 123.11 33.0133 123.717 33.6328C124.33 34.2459 124.813 34.9822 125.167 35.8418C125.521 36.7014 125.698 37.6147 125.698 38.5818C125.698 39.5615 125.521 40.4874 125.167 41.3597C124.813 42.2256 124.33 42.9714 123.717 43.5972C123.11 44.2166 122.38 44.7064 121.527 45.0667C120.68 45.427 119.779 45.6071 118.825 45.6071C117.864 45.6071 116.957 45.427 116.104 45.0667C115.257 44.7064 114.53 44.2166 113.923 43.5972C113.316 42.9714 112.836 42.2256 112.482 41.3597C112.128 40.4874 111.951 39.5615 111.951 38.5818C111.951 37.2924 112.248 36.1168 112.842 35.0549C113.443 33.993 114.267 33.1587 115.317 32.5519C116.372 31.9388 117.541 31.6323 118.825 31.6323ZM121.337 34.1163C120.579 33.6612 119.741 33.4337 118.825 33.4337C117.908 33.4337 117.071 33.6612 116.312 34.1163C115.554 34.565 114.956 35.1845 114.52 35.9745C114.09 36.7646 113.876 37.6337 113.876 38.5818C113.876 40.0545 114.35 41.2933 115.298 42.2983C116.252 43.3032 117.428 43.8057 118.825 43.8057C120.221 43.8057 121.394 43.3032 122.342 42.2983C123.296 41.2933 123.774 40.0545 123.774 38.5818C123.774 37.6337 123.555 36.7646 123.119 35.9745C122.69 35.1845 122.095 34.565 121.337 34.1163ZM132.287 45.6071C130.853 45.6071 129.664 45.1836 128.723 44.3367C127.781 43.4834 127.31 42.412 127.31 41.1226H129.159C129.159 41.9254 129.449 42.5795 130.031 43.0852C130.619 43.5908 131.371 43.8437 132.287 43.8437C133.147 43.8437 133.852 43.6414 134.402 43.2369C134.958 42.826 135.236 42.2983 135.236 41.6536C135.236 41.2807 135.147 40.9583 134.97 40.6865C134.793 40.4084 134.556 40.1872 134.259 40.0229C133.962 39.8522 133.621 39.7037 133.235 39.5773C132.85 39.4509 132.442 39.3339 132.012 39.2265C131.583 39.119 131.153 39.0053 130.723 38.8852C130.3 38.7651 129.895 38.6134 129.509 38.4301C129.124 38.2405 128.783 38.0192 128.486 37.7664C128.188 37.5136 127.951 37.1818 127.774 36.7709C127.598 36.3601 127.509 35.8892 127.509 35.3583C127.509 34.2775 127.936 33.3863 128.789 32.6847C129.649 31.9831 130.729 31.6323 132.031 31.6323C133.479 31.6323 134.613 32.0242 135.435 32.8079C136.257 33.5854 136.668 34.5587 136.668 35.728H134.752C134.733 35.0517 134.468 34.4955 133.956 34.0594C133.444 33.617 132.784 33.3957 131.975 33.3957C131.197 33.3957 130.562 33.579 130.069 33.9456C129.576 34.3059 129.329 34.7768 129.329 35.3583C129.329 35.6933 129.418 35.9872 129.595 36.24C129.772 36.4865 130.009 36.6856 130.306 36.8373C130.609 36.9827 130.954 37.1122 131.339 37.226C131.731 37.3398 132.142 37.4504 132.572 37.5578C133.002 37.659 133.428 37.7727 133.852 37.8992C134.282 38.0192 134.689 38.1804 135.075 38.3827C135.467 38.5786 135.811 38.8125 136.108 39.0843C136.412 39.356 136.652 39.7132 136.829 40.1556C137.006 40.5917 137.094 41.091 137.094 41.6536C137.094 42.7976 136.639 43.7425 135.729 44.4884C134.819 45.2342 133.672 45.6071 132.287 45.6071ZM143.835 45.6071C142.4 45.6071 141.212 45.1836 140.27 44.3367C139.328 43.4834 138.858 42.412 138.858 41.1226H140.706C140.706 41.9254 140.997 42.5795 141.579 43.0852C142.166 43.5908 142.919 43.8437 143.835 43.8437C144.695 43.8437 145.399 43.6414 145.949 43.2369C146.506 42.826 146.784 42.2983 146.784 41.6536C146.784 41.2807 146.695 40.9583 146.518 40.6865C146.341 40.4084 146.104 40.1872 145.807 40.0229C145.51 39.8522 145.169 39.7037 144.783 39.5773C144.398 39.4509 143.99 39.3339 143.56 39.2265C143.13 39.119 142.701 39.0053 142.271 38.8852C141.847 38.7651 141.443 38.6134 141.057 38.4301C140.672 38.2405 140.33 38.0192 140.033 37.7664C139.736 37.5136 139.499 37.1818 139.322 36.7709C139.145 36.3601 139.057 35.8892 139.057 35.3583C139.057 34.2775 139.483 33.3863 140.337 32.6847C141.196 31.9831 142.277 31.6323 143.579 31.6323C145.026 31.6323 146.161 32.0242 146.983 32.8079C147.804 33.5854 148.215 34.5587 148.215 35.728H146.3C146.281 35.0517 146.016 34.4955 145.504 34.0594C144.992 33.617 144.331 33.3957 143.522 33.3957C142.745 33.3957 142.11 33.579 141.617 33.9456C141.124 34.3059 140.877 34.7768 140.877 35.3583C140.877 35.6933 140.966 35.9872 141.143 36.24C141.319 36.4865 141.557 36.6856 141.854 36.8373C142.157 36.9827 142.501 37.1122 142.887 37.226C143.279 37.3398 143.69 37.4504 144.119 37.5578C144.549 37.659 144.976 37.7727 145.399 37.8992C145.829 38.0192 146.237 38.1804 146.622 38.3827C147.014 38.5786 147.359 38.8125 147.656 39.0843C147.959 39.356 148.199 39.7132 148.376 40.1556C148.553 40.5917 148.642 41.091 148.642 41.6536C148.642 42.7976 148.187 43.7425 147.277 44.4884C146.366 45.2342 145.219 45.6071 143.835 45.6071ZM160.55 31.8219C161.744 31.8219 162.74 32.2075 163.536 32.9786C164.333 33.7434 164.731 34.7041 164.731 35.8608C164.731 37.0174 164.333 37.9845 163.536 38.7619C162.74 39.533 161.744 39.9186 160.55 39.9186H157.213V45.4175H155.326V31.8219H160.55ZM160.55 38.1362C161.201 38.1362 161.748 37.9181 162.19 37.482C162.639 37.0396 162.863 36.4991 162.863 35.8608C162.863 35.2224 162.639 34.6883 162.19 34.2585C161.748 33.8287 161.201 33.6138 160.55 33.6138H157.213V38.1362H160.55ZM176.819 45.4175H174.572L170.96 39.7669H168.646V45.4175H166.76V31.8219H171.775C172.919 31.8219 173.886 32.2012 174.676 32.9596C175.473 33.7181 175.871 34.6535 175.871 35.766C175.871 36.7456 175.612 37.58 175.093 38.2689C174.575 38.9515 173.877 39.4066 172.998 39.6342L176.819 45.4175ZM168.628 33.6138L168.646 37.9845H171.737C172.388 37.9845 172.926 37.7759 173.349 37.3587C173.772 36.9353 173.984 36.4043 173.984 35.766C173.984 35.1465 173.772 34.6346 173.349 34.2301C172.926 33.8192 172.388 33.6138 171.737 33.6138H168.628ZM184.337 31.6323C185.292 31.6323 186.192 31.8124 187.039 32.1727C187.893 32.5267 188.623 33.0133 189.229 33.6328C189.843 34.2459 190.326 34.9822 190.68 35.8418C191.034 36.7014 191.211 37.6147 191.211 38.5818C191.211 39.5615 191.034 40.4874 190.68 41.3597C190.326 42.2256 189.843 42.9714 189.229 43.5972C188.623 44.2166 187.893 44.7064 187.039 45.0667C186.192 45.427 185.292 45.6071 184.337 45.6071C183.377 45.6071 182.47 45.427 181.616 45.0667C180.769 44.7064 180.042 44.2166 179.436 43.5972C178.829 42.9714 178.349 42.2256 177.995 41.3597C177.641 40.4874 177.464 39.5615 177.464 38.5818C177.464 37.2924 177.761 36.1168 178.355 35.0549C178.955 33.993 179.78 33.1587 180.829 32.5519C181.885 31.9388 183.054 31.6323 184.337 31.6323ZM186.85 34.1163C186.091 33.6612 185.254 33.4337 184.337 33.4337C183.421 33.4337 182.583 33.6612 181.825 34.1163C181.066 34.565 180.469 35.1845 180.033 35.9745C179.603 36.7646 179.388 37.6337 179.388 38.5818C179.388 40.0545 179.862 41.2933 180.81 42.2983C181.765 43.3032 182.94 43.8057 184.337 43.8057C185.734 43.8057 186.907 43.3032 187.855 42.2983C188.809 41.2933 189.286 40.0545 189.286 38.5818C189.286 37.6337 189.068 36.7646 188.632 35.9745C188.202 35.1845 187.608 34.565 186.85 34.1163Z" fill="#444444"/>
<path d="M101.001 45.4175V31.8219H105.836C106.936 31.8219 107.871 32.1632 108.642 32.8459C109.413 33.5222 109.799 34.3343 109.799 35.2824C109.799 35.9777 109.59 36.6066 109.173 37.1691C108.762 37.7317 108.241 38.0856 107.609 38.231C108.43 38.3384 109.113 38.7177 109.657 39.3687C110.206 40.0134 110.481 40.7687 110.481 41.6346C110.481 42.6965 110.086 43.594 109.296 44.3272C108.513 45.054 107.555 45.4175 106.424 45.4175H101.001ZM102.868 37.6147H105.779C106.373 37.6147 106.875 37.4156 107.286 37.0174C107.703 36.6192 107.912 36.1326 107.912 35.5574C107.912 35.0138 107.703 34.5556 107.286 34.1827C106.875 33.8034 106.373 33.6138 105.779 33.6138H102.868V37.6147ZM102.868 43.6351H106.31C106.961 43.6351 107.501 43.4202 107.931 42.9904C108.361 42.5543 108.576 42.017 108.576 41.3786C108.576 40.7592 108.358 40.2314 107.922 39.7953C107.485 39.3592 106.955 39.1411 106.329 39.1411H102.868V43.6351ZM118.825 31.6323C119.779 31.6323 120.68 31.8124 121.527 32.1727C122.38 32.5267 123.11 33.0133 123.717 33.6328C124.33 34.2459 124.813 34.9822 125.167 35.8418C125.521 36.7014 125.698 37.6147 125.698 38.5818C125.698 39.5615 125.521 40.4874 125.167 41.3597C124.813 42.2256 124.33 42.9714 123.717 43.5972C123.11 44.2166 122.38 44.7064 121.527 45.0667C120.68 45.427 119.779 45.6071 118.825 45.6071C117.864 45.6071 116.957 45.427 116.104 45.0667C115.257 44.7064 114.53 44.2166 113.923 43.5972C113.316 42.9714 112.836 42.2256 112.482 41.3597C112.128 40.4874 111.951 39.5615 111.951 38.5818C111.951 37.2924 112.248 36.1168 112.842 35.0549C113.443 33.993 114.267 33.1587 115.317 32.5519C116.372 31.9388 117.541 31.6323 118.825 31.6323ZM121.337 34.1163C120.579 33.6612 119.741 33.4337 118.825 33.4337C117.908 33.4337 117.071 33.6612 116.312 34.1163C115.554 34.565 114.956 35.1845 114.52 35.9745C114.09 36.7646 113.876 37.6337 113.876 38.5818C113.876 40.0545 114.35 41.2933 115.298 42.2983C116.252 43.3032 117.428 43.8057 118.825 43.8057C120.221 43.8057 121.394 43.3032 122.342 42.2983C123.296 41.2933 123.774 40.0545 123.774 38.5818C123.774 37.6337 123.555 36.7646 123.119 35.9745C122.69 35.1845 122.095 34.565 121.337 34.1163ZM132.287 45.6071C130.853 45.6071 129.664 45.1836 128.723 44.3367C127.781 43.4834 127.31 42.412 127.31 41.1226H129.159C129.159 41.9254 129.449 42.5795 130.031 43.0852C130.619 43.5908 131.371 43.8437 132.287 43.8437C133.147 43.8437 133.852 43.6414 134.402 43.2369C134.958 42.826 135.236 42.2983 135.236 41.6536C135.236 41.2807 135.147 40.9583 134.97 40.6865C134.793 40.4084 134.556 40.1872 134.259 40.0229C133.962 39.8522 133.621 39.7037 133.235 39.5773C132.85 39.4509 132.442 39.3339 132.012 39.2265C131.583 39.119 131.153 39.0053 130.723 38.8852C130.3 38.7651 129.895 38.6134 129.509 38.4301C129.124 38.2405 128.783 38.0192 128.486 37.7664C128.188 37.5136 127.951 37.1818 127.774 36.7709C127.598 36.3601 127.509 35.8892 127.509 35.3583C127.509 34.2775 127.936 33.3863 128.789 32.6847C129.649 31.9831 130.729 31.6323 132.031 31.6323C133.479 31.6323 134.613 32.0242 135.435 32.8079C136.257 33.5854 136.668 34.5587 136.668 35.728H134.752C134.733 35.0517 134.468 34.4955 133.956 34.0594C133.444 33.617 132.784 33.3957 131.975 33.3957C131.197 33.3957 130.562 33.579 130.069 33.9456C129.576 34.3059 129.329 34.7768 129.329 35.3583C129.329 35.6933 129.418 35.9872 129.595 36.24C129.772 36.4865 130.009 36.6856 130.306 36.8373C130.609 36.9827 130.954 37.1122 131.339 37.226C131.731 37.3398 132.142 37.4504 132.572 37.5578C133.002 37.659 133.428 37.7727 133.852 37.8992C134.282 38.0192 134.689 38.1804 135.075 38.3827C135.467 38.5786 135.811 38.8125 136.108 39.0843C136.412 39.356 136.652 39.7132 136.829 40.1556C137.006 40.5917 137.094 41.091 137.094 41.6536C137.094 42.7976 136.639 43.7425 135.729 44.4884C134.819 45.2342 133.672 45.6071 132.287 45.6071ZM143.835 45.6071C142.4 45.6071 141.212 45.1836 140.27 44.3367C139.328 43.4834 138.858 42.412 138.858 41.1226H140.706C140.706 41.9254 140.997 42.5795 141.579 43.0852C142.166 43.5908 142.919 43.8437 143.835 43.8437C144.695 43.8437 145.399 43.6414 145.949 43.2369C146.506 42.826 146.784 42.2983 146.784 41.6536C146.784 41.2807 146.695 40.9583 146.518 40.6865C146.341 40.4084 146.104 40.1872 145.807 40.0229C145.51 39.8522 145.169 39.7037 144.783 39.5773C144.398 39.4509 143.99 39.3339 143.56 39.2265C143.13 39.119 142.701 39.0053 142.271 38.8852C141.847 38.7651 141.443 38.6134 141.057 38.4301C140.672 38.2405 140.33 38.0192 140.033 37.7664C139.736 37.5136 139.499 37.1818 139.322 36.7709C139.145 36.3601 139.057 35.8892 139.057 35.3583C139.057 34.2775 139.483 33.3863 140.337 32.6847C141.196 31.9831 142.277 31.6323 143.579 31.6323C145.026 31.6323 146.161 32.0242 146.983 32.8079C147.804 33.5854 148.215 34.5587 148.215 35.728H146.3C146.281 35.0517 146.016 34.4955 145.504 34.0594C144.992 33.617 144.331 33.3957 143.522 33.3957C142.745 33.3957 142.11 33.579 141.617 33.9456C141.124 34.3059 140.877 34.7768 140.877 35.3583C140.877 35.6933 140.966 35.9872 141.143 36.24C141.319 36.4865 141.557 36.6856 141.854 36.8373C142.157 36.9827 142.501 37.1122 142.887 37.226C143.279 37.3398 143.69 37.4504 144.119 37.5578C144.549 37.659 144.976 37.7727 145.399 37.8992C145.829 38.0192 146.237 38.1804 146.622 38.3827C147.014 38.5786 147.359 38.8125 147.656 39.0843C147.959 39.356 148.199 39.7132 148.376 40.1556C148.553 40.5917 148.642 41.091 148.642 41.6536C148.642 42.7976 148.187 43.7425 147.277 44.4884C146.366 45.2342 145.219 45.6071 143.835 45.6071ZM160.55 31.8219C161.744 31.8219 162.74 32.2075 163.536 32.9786C164.333 33.7434 164.731 34.7041 164.731 35.8608C164.731 37.0174 164.333 37.9845 163.536 38.7619C162.74 39.533 161.744 39.9186 160.55 39.9186H157.213V45.4175H155.326V31.8219H160.55ZM160.55 38.1362C161.201 38.1362 161.748 37.9181 162.19 37.482C162.639 37.0396 162.863 36.4991 162.863 35.8608C162.863 35.2224 162.639 34.6883 162.19 34.2585C161.748 33.8287 161.201 33.6138 160.55 33.6138H157.213V38.1362H160.55ZM176.819 45.4175H174.572L170.96 39.7669H168.646V45.4175H166.76V31.8219H171.775C172.919 31.8219 173.886 32.2012 174.676 32.9596C175.473 33.7181 175.871 34.6535 175.871 35.766C175.871 36.7456 175.612 37.58 175.093 38.2689C174.575 38.9515 173.877 39.4066 172.998 39.6342L176.819 45.4175ZM168.628 33.6138L168.646 37.9845H171.737C172.388 37.9845 172.926 37.7759 173.349 37.3587C173.772 36.9353 173.984 36.4043 173.984 35.766C173.984 35.1465 173.772 34.6346 173.349 34.2301C172.926 33.8192 172.388 33.6138 171.737 33.6138H168.628ZM184.337 31.6323C185.292 31.6323 186.192 31.8124 187.039 32.1727C187.893 32.5267 188.623 33.0133 189.229 33.6328C189.843 34.2459 190.326 34.9822 190.68 35.8418C191.034 36.7014 191.211 37.6147 191.211 38.5818C191.211 39.5615 191.034 40.4874 190.68 41.3597C190.326 42.2256 189.843 42.9714 189.229 43.5972C188.623 44.2166 187.893 44.7064 187.039 45.0667C186.192 45.427 185.292 45.6071 184.337 45.6071C183.377 45.6071 182.47 45.427 181.616 45.0667C180.769 44.7064 180.042 44.2166 179.436 43.5972C178.829 42.9714 178.349 42.2256 177.995 41.3597C177.641 40.4874 177.464 39.5615 177.464 38.5818C177.464 37.2924 177.761 36.1168 178.355 35.0549C178.955 33.993 179.78 33.1587 180.829 32.5519C181.885 31.9388 183.054 31.6323 184.337 31.6323ZM186.85 34.1163C186.091 33.6612 185.254 33.4337 184.337 33.4337C183.421 33.4337 182.583 33.6612 181.825 34.1163C181.066 34.565 180.469 35.1845 180.033 35.9745C179.603 36.7646 179.388 37.6337 179.388 38.5818C179.388 40.0545 179.862 41.2933 180.81 42.2983C181.765 43.3032 182.94 43.8057 184.337 43.8057C185.734 43.8057 186.907 43.3032 187.855 42.2983C188.809 41.2933 189.286 40.0545 189.286 38.5818C189.286 37.6337 189.068 36.7646 188.632 35.9745C188.202 35.1845 187.608 34.565 186.85 34.1163Z" fill="black" fill-opacity="0.2"/>
<path d="M101.001 45.4175V31.8219H105.836C106.936 31.8219 107.871 32.1632 108.642 32.8459C109.413 33.5222 109.799 34.3343 109.799 35.2824C109.799 35.9777 109.59 36.6066 109.173 37.1691C108.762 37.7317 108.241 38.0856 107.609 38.231C108.43 38.3384 109.113 38.7177 109.657 39.3687C110.206 40.0134 110.481 40.7687 110.481 41.6346C110.481 42.6965 110.086 43.594 109.296 44.3272C108.513 45.054 107.555 45.4175 106.424 45.4175H101.001ZM102.868 37.6147H105.779C106.373 37.6147 106.875 37.4156 107.286 37.0174C107.703 36.6192 107.912 36.1326 107.912 35.5574C107.912 35.0138 107.703 34.5556 107.286 34.1827C106.875 33.8034 106.373 33.6138 105.779 33.6138H102.868V37.6147ZM102.868 43.6351H106.31C106.961 43.6351 107.501 43.4202 107.931 42.9904C108.361 42.5543 108.576 42.017 108.576 41.3786C108.576 40.7592 108.358 40.2314 107.922 39.7953C107.485 39.3592 106.955 39.1411 106.329 39.1411H102.868V43.6351ZM118.825 31.6323C119.779 31.6323 120.68 31.8124 121.527 32.1727C122.38 32.5267 123.11 33.0133 123.717 33.6328C124.33 34.2459 124.813 34.9822 125.167 35.8418C125.521 36.7014 125.698 37.6147 125.698 38.5818C125.698 39.5615 125.521 40.4874 125.167 41.3597C124.813 42.2256 124.33 42.9714 123.717 43.5972C123.11 44.2166 122.38 44.7064 121.527 45.0667C120.68 45.427 119.779 45.6071 118.825 45.6071C117.864 45.6071 116.957 45.427 116.104 45.0667C115.257 44.7064 114.53 44.2166 113.923 43.5972C113.316 42.9714 112.836 42.2256 112.482 41.3597C112.128 40.4874 111.951 39.5615 111.951 38.5818C111.951 37.2924 112.248 36.1168 112.842 35.0549C113.443 33.993 114.267 33.1587 115.317 32.5519C116.372 31.9388 117.541 31.6323 118.825 31.6323ZM121.337 34.1163C120.579 33.6612 119.741 33.4337 118.825 33.4337C117.908 33.4337 117.071 33.6612 116.312 34.1163C115.554 34.565 114.956 35.1845 114.52 35.9745C114.09 36.7646 113.876 37.6337 113.876 38.5818C113.876 40.0545 114.35 41.2933 115.298 42.2983C116.252 43.3032 117.428 43.8057 118.825 43.8057C120.221 43.8057 121.394 43.3032 122.342 42.2983C123.296 41.2933 123.774 40.0545 123.774 38.5818C123.774 37.6337 123.555 36.7646 123.119 35.9745C122.69 35.1845 122.095 34.565 121.337 34.1163ZM132.287 45.6071C130.853 45.6071 129.664 45.1836 128.723 44.3367C127.781 43.4834 127.31 42.412 127.31 41.1226H129.159C129.159 41.9254 129.449 42.5795 130.031 43.0852C130.619 43.5908 131.371 43.8437 132.287 43.8437C133.147 43.8437 133.852 43.6414 134.402 43.2369C134.958 42.826 135.236 42.2983 135.236 41.6536C135.236 41.2807 135.147 40.9583 134.97 40.6865C134.793 40.4084 134.556 40.1872 134.259 40.0229C133.962 39.8522 133.621 39.7037 133.235 39.5773C132.85 39.4509 132.442 39.3339 132.012 39.2265C131.583 39.119 131.153 39.0053 130.723 38.8852C130.3 38.7651 129.895 38.6134 129.509 38.4301C129.124 38.2405 128.783 38.0192 128.486 37.7664C128.188 37.5136 127.951 37.1818 127.774 36.7709C127.598 36.3601 127.509 35.8892 127.509 35.3583C127.509 34.2775 127.936 33.3863 128.789 32.6847C129.649 31.9831 130.729 31.6323 132.031 31.6323C133.479 31.6323 134.613 32.0242 135.435 32.8079C136.257 33.5854 136.668 34.5587 136.668 35.728H134.752C134.733 35.0517 134.468 34.4955 133.956 34.0594C133.444 33.617 132.784 33.3957 131.975 33.3957C131.197 33.3957 130.562 33.579 130.069 33.9456C129.576 34.3059 129.329 34.7768 129.329 35.3583C129.329 35.6933 129.418 35.9872 129.595 36.24C129.772 36.4865 130.009 36.6856 130.306 36.8373C130.609 36.9827 130.954 37.1122 131.339 37.226C131.731 37.3398 132.142 37.4504 132.572 37.5578C133.002 37.659 133.428 37.7727 133.852 37.8992C134.282 38.0192 134.689 38.1804 135.075 38.3827C135.467 38.5786 135.811 38.8125 136.108 39.0843C136.412 39.356 136.652 39.7132 136.829 40.1556C137.006 40.5917 137.094 41.091 137.094 41.6536C137.094 42.7976 136.639 43.7425 135.729 44.4884C134.819 45.2342 133.672 45.6071 132.287 45.6071ZM143.835 45.6071C142.4 45.6071 141.212 45.1836 140.27 44.3367C139.328 43.4834 138.858 42.412 138.858 41.1226H140.706C140.706 41.9254 140.997 42.5795 141.579 43.0852C142.166 43.5908 142.919 43.8437 143.835 43.8437C144.695 43.8437 145.399 43.6414 145.949 43.2369C146.506 42.826 146.784 42.2983 146.784 41.6536C146.784 41.2807 146.695 40.9583 146.518 40.6865C146.341 40.4084 146.104 40.1872 145.807 40.0229C145.51 39.8522 145.169 39.7037 144.783 39.5773C144.398 39.4509 143.99 39.3339 143.56 39.2265C143.13 39.119 142.701 39.0053 142.271 38.8852C141.847 38.7651 141.443 38.6134 141.057 38.4301C140.672 38.2405 140.33 38.0192 140.033 37.7664C139.736 37.5136 139.499 37.1818 139.322 36.7709C139.145 36.3601 139.057 35.8892 139.057 35.3583C139.057 34.2775 139.483 33.3863 140.337 32.6847C141.196 31.9831 142.277 31.6323 143.579 31.6323C145.026 31.6323 146.161 32.0242 146.983 32.8079C147.804 33.5854 148.215 34.5587 148.215 35.728H146.3C146.281 35.0517 146.016 34.4955 145.504 34.0594C144.992 33.617 144.331 33.3957 143.522 33.3957C142.745 33.3957 142.11 33.579 141.617 33.9456C141.124 34.3059 140.877 34.7768 140.877 35.3583C140.877 35.6933 140.966 35.9872 141.143 36.24C141.319 36.4865 141.557 36.6856 141.854 36.8373C142.157 36.9827 142.501 37.1122 142.887 37.226C143.279 37.3398 143.69 37.4504 144.119 37.5578C144.549 37.659 144.976 37.7727 145.399 37.8992C145.829 38.0192 146.237 38.1804 146.622 38.3827C147.014 38.5786 147.359 38.8125 147.656 39.0843C147.959 39.356 148.199 39.7132 148.376 40.1556C148.553 40.5917 148.642 41.091 148.642 41.6536C148.642 42.7976 148.187 43.7425 147.277 44.4884C146.366 45.2342 145.219 45.6071 143.835 45.6071ZM160.55 31.8219C161.744 31.8219 162.74 32.2075 163.536 32.9786C164.333 33.7434 164.731 34.7041 164.731 35.8608C164.731 37.0174 164.333 37.9845 163.536 38.7619C162.74 39.533 161.744 39.9186 160.55 39.9186H157.213V45.4175H155.326V31.8219H160.55ZM160.55 38.1362C161.201 38.1362 161.748 37.9181 162.19 37.482C162.639 37.0396 162.863 36.4991 162.863 35.8608C162.863 35.2224 162.639 34.6883 162.19 34.2585C161.748 33.8287 161.201 33.6138 160.55 33.6138H157.213V38.1362H160.55ZM176.819 45.4175H174.572L170.96 39.7669H168.646V45.4175H166.76V31.8219H171.775C172.919 31.8219 173.886 32.2012 174.676 32.9596C175.473 33.7181 175.871 34.6535 175.871 35.766C175.871 36.7456 175.612 37.58 175.093 38.2689C174.575 38.9515 173.877 39.4066 172.998 39.6342L176.819 45.4175ZM168.628 33.6138L168.646 37.9845H171.737C172.388 37.9845 172.926 37.7759 173.349 37.3587C173.772 36.9353 173.984 36.4043 173.984 35.766C173.984 35.1465 173.772 34.6346 173.349 34.2301C172.926 33.8192 172.388 33.6138 171.737 33.6138H168.628ZM184.337 31.6323C185.292 31.6323 186.192 31.8124 187.039 32.1727C187.893 32.5267 188.623 33.0133 189.229 33.6328C189.843 34.2459 190.326 34.9822 190.68 35.8418C191.034 36.7014 191.211 37.6147 191.211 38.5818C191.211 39.5615 191.034 40.4874 190.68 41.3597C190.326 42.2256 189.843 42.9714 189.229 43.5972C188.623 44.2166 187.893 44.7064 187.039 45.0667C186.192 45.427 185.292 45.6071 184.337 45.6071C183.377 45.6071 182.47 45.427 181.616 45.0667C180.769 44.7064 180.042 44.2166 179.436 43.5972C178.829 42.9714 178.349 42.2256 177.995 41.3597C177.641 40.4874 177.464 39.5615 177.464 38.5818C177.464 37.2924 177.761 36.1168 178.355 35.0549C178.955 33.993 179.78 33.1587 180.829 32.5519C181.885 31.9388 183.054 31.6323 184.337 31.6323ZM186.85 34.1163C186.091 33.6612 185.254 33.4337 184.337 33.4337C183.421 33.4337 182.583 33.6612 181.825 34.1163C181.066 34.565 180.469 35.1845 180.033 35.9745C179.603 36.7646 179.388 37.6337 179.388 38.5818C179.388 40.0545 179.862 41.2933 180.81 42.2983C181.765 43.3032 182.94 43.8057 184.337 43.8057C185.734 43.8057 186.907 43.3032 187.855 42.2983C188.809 41.2933 189.286 40.0545 189.286 38.5818C189.286 37.6337 189.068 36.7646 188.632 35.9745C188.202 35.1845 187.608 34.565 186.85 34.1163Z" fill="black" fill-opacity="0.2"/>
<path d="M101.001 45.4175V31.8219H105.836C106.936 31.8219 107.871 32.1632 108.642 32.8459C109.413 33.5222 109.799 34.3343 109.799 35.2824C109.799 35.9777 109.59 36.6066 109.173 37.1691C108.762 37.7317 108.241 38.0856 107.609 38.231C108.43 38.3384 109.113 38.7177 109.657 39.3687C110.206 40.0134 110.481 40.7687 110.481 41.6346C110.481 42.6965 110.086 43.594 109.296 44.3272C108.513 45.054 107.555 45.4175 106.424 45.4175H101.001ZM102.868 37.6147H105.779C106.373 37.6147 106.875 37.4156 107.286 37.0174C107.703 36.6192 107.912 36.1326 107.912 35.5574C107.912 35.0138 107.703 34.5556 107.286 34.1827C106.875 33.8034 106.373 33.6138 105.779 33.6138H102.868V37.6147ZM102.868 43.6351H106.31C106.961 43.6351 107.501 43.4202 107.931 42.9904C108.361 42.5543 108.576 42.017 108.576 41.3786C108.576 40.7592 108.358 40.2314 107.922 39.7953C107.485 39.3592 106.955 39.1411 106.329 39.1411H102.868V43.6351ZM118.825 31.6323C119.779 31.6323 120.68 31.8124 121.527 32.1727C122.38 32.5267 123.11 33.0133 123.717 33.6328C124.33 34.2459 124.813 34.9822 125.167 35.8418C125.521 36.7014 125.698 37.6147 125.698 38.5818C125.698 39.5615 125.521 40.4874 125.167 41.3597C124.813 42.2256 124.33 42.9714 123.717 43.5972C123.11 44.2166 122.38 44.7064 121.527 45.0667C120.68 45.427 119.779 45.6071 118.825 45.6071C117.864 45.6071 116.957 45.427 116.104 45.0667C115.257 44.7064 114.53 44.2166 113.923 43.5972C113.316 42.9714 112.836 42.2256 112.482 41.3597C112.128 40.4874 111.951 39.5615 111.951 38.5818C111.951 37.2924 112.248 36.1168 112.842 35.0549C113.443 33.993 114.267 33.1587 115.317 32.5519C116.372 31.9388 117.541 31.6323 118.825 31.6323ZM121.337 34.1163C120.579 33.6612 119.741 33.4337 118.825 33.4337C117.908 33.4337 117.071 33.6612 116.312 34.1163C115.554 34.565 114.956 35.1845 114.52 35.9745C114.09 36.7646 113.876 37.6337 113.876 38.5818C113.876 40.0545 114.35 41.2933 115.298 42.2983C116.252 43.3032 117.428 43.8057 118.825 43.8057C120.221 43.8057 121.394 43.3032 122.342 42.2983C123.296 41.2933 123.774 40.0545 123.774 38.5818C123.774 37.6337 123.555 36.7646 123.119 35.9745C122.69 35.1845 122.095 34.565 121.337 34.1163ZM132.287 45.6071C130.853 45.6071 129.664 45.1836 128.723 44.3367C127.781 43.4834 127.31 42.412 127.31 41.1226H129.159C129.159 41.9254 129.449 42.5795 130.031 43.0852C130.619 43.5908 131.371 43.8437 132.287 43.8437C133.147 43.8437 133.852 43.6414 134.402 43.2369C134.958 42.826 135.236 42.2983 135.236 41.6536C135.236 41.2807 135.147 40.9583 134.97 40.6865C134.793 40.4084 134.556 40.1872 134.259 40.0229C133.962 39.8522 133.621 39.7037 133.235 39.5773C132.85 39.4509 132.442 39.3339 132.012 39.2265C131.583 39.119 131.153 39.0053 130.723 38.8852C130.3 38.7651 129.895 38.6134 129.509 38.4301C129.124 38.2405 128.783 38.0192 128.486 37.7664C128.188 37.5136 127.951 37.1818 127.774 36.7709C127.598 36.3601 127.509 35.8892 127.509 35.3583C127.509 34.2775 127.936 33.3863 128.789 32.6847C129.649 31.9831 130.729 31.6323 132.031 31.6323C133.479 31.6323 134.613 32.0242 135.435 32.8079C136.257 33.5854 136.668 34.5587 136.668 35.728H134.752C134.733 35.0517 134.468 34.4955 133.956 34.0594C133.444 33.617 132.784 33.3957 131.975 33.3957C131.197 33.3957 130.562 33.579 130.069 33.9456C129.576 34.3059 129.329 34.7768 129.329 35.3583C129.329 35.6933 129.418 35.9872 129.595 36.24C129.772 36.4865 130.009 36.6856 130.306 36.8373C130.609 36.9827 130.954 37.1122 131.339 37.226C131.731 37.3398 132.142 37.4504 132.572 37.5578C133.002 37.659 133.428 37.7727 133.852 37.8992C134.282 38.0192 134.689 38.1804 135.075 38.3827C135.467 38.5786 135.811 38.8125 136.108 39.0843C136.412 39.356 136.652 39.7132 136.829 40.1556C137.006 40.5917 137.094 41.091 137.094 41.6536C137.094 42.7976 136.639 43.7425 135.729 44.4884C134.819 45.2342 133.672 45.6071 132.287 45.6071ZM143.835 45.6071C142.4 45.6071 141.212 45.1836 140.27 44.3367C139.328 43.4834 138.858 42.412 138.858 41.1226H140.706C140.706 41.9254 140.997 42.5795 141.579 43.0852C142.166 43.5908 142.919 43.8437 143.835 43.8437C144.695 43.8437 145.399 43.6414 145.949 43.2369C146.506 42.826 146.784 42.2983 146.784 41.6536C146.784 41.2807 146.695 40.9583 146.518 40.6865C146.341 40.4084 146.104 40.1872 145.807 40.0229C145.51 39.8522 145.169 39.7037 144.783 39.5773C144.398 39.4509 143.99 39.3339 143.56 39.2265C143.13 39.119 142.701 39.0053 142.271 38.8852C141.847 38.7651 141.443 38.6134 141.057 38.4301C140.672 38.2405 140.33 38.0192 140.033 37.7664C139.736 37.5136 139.499 37.1818 139.322 36.7709C139.145 36.3601 139.057 35.8892 139.057 35.3583C139.057 34.2775 139.483 33.3863 140.337 32.6847C141.196 31.9831 142.277 31.6323 143.579 31.6323C145.026 31.6323 146.161 32.0242 146.983 32.8079C147.804 33.5854 148.215 34.5587 148.215 35.728H146.3C146.281 35.0517 146.016 34.4955 145.504 34.0594C144.992 33.617 144.331 33.3957 143.522 33.3957C142.745 33.3957 142.11 33.579 141.617 33.9456C141.124 34.3059 140.877 34.7768 140.877 35.3583C140.877 35.6933 140.966 35.9872 141.143 36.24C141.319 36.4865 141.557 36.6856 141.854 36.8373C142.157 36.9827 142.501 37.1122 142.887 37.226C143.279 37.3398 143.69 37.4504 144.119 37.5578C144.549 37.659 144.976 37.7727 145.399 37.8992C145.829 38.0192 146.237 38.1804 146.622 38.3827C147.014 38.5786 147.359 38.8125 147.656 39.0843C147.959 39.356 148.199 39.7132 148.376 40.1556C148.553 40.5917 148.642 41.091 148.642 41.6536C148.642 42.7976 148.187 43.7425 147.277 44.4884C146.366 45.2342 145.219 45.6071 143.835 45.6071ZM160.55 31.8219C161.744 31.8219 162.74 32.2075 163.536 32.9786C164.333 33.7434 164.731 34.7041 164.731 35.8608C164.731 37.0174 164.333 37.9845 163.536 38.7619C162.74 39.533 161.744 39.9186 160.55 39.9186H157.213V45.4175H155.326V31.8219H160.55ZM160.55 38.1362C161.201 38.1362 161.748 37.9181 162.19 37.482C162.639 37.0396 162.863 36.4991 162.863 35.8608C162.863 35.2224 162.639 34.6883 162.19 34.2585C161.748 33.8287 161.201 33.6138 160.55 33.6138H157.213V38.1362H160.55ZM176.819 45.4175H174.572L170.96 39.7669H168.646V45.4175H166.76V31.8219H171.775C172.919 31.8219 173.886 32.2012 174.676 32.9596C175.473 33.7181 175.871 34.6535 175.871 35.766C175.871 36.7456 175.612 37.58 175.093 38.2689C174.575 38.9515 173.877 39.4066 172.998 39.6342L176.819 45.4175ZM168.628 33.6138L168.646 37.9845H171.737C172.388 37.9845 172.926 37.7759 173.349 37.3587C173.772 36.9353 173.984 36.4043 173.984 35.766C173.984 35.1465 173.772 34.6346 173.349 34.2301C172.926 33.8192 172.388 33.6138 171.737 33.6138H168.628ZM184.337 31.6323C185.292 31.6323 186.192 31.8124 187.039 32.1727C187.893 32.5267 188.623 33.0133 189.229 33.6328C189.843 34.2459 190.326 34.9822 190.68 35.8418C191.034 36.7014 191.211 37.6147 191.211 38.5818C191.211 39.5615 191.034 40.4874 190.68 41.3597C190.326 42.2256 189.843 42.9714 189.229 43.5972C188.623 44.2166 187.893 44.7064 187.039 45.0667C186.192 45.427 185.292 45.6071 184.337 45.6071C183.377 45.6071 182.47 45.427 181.616 45.0667C180.769 44.7064 180.042 44.2166 179.436 43.5972C178.829 42.9714 178.349 42.2256 177.995 41.3597C177.641 40.4874 177.464 39.5615 177.464 38.5818C177.464 37.2924 177.761 36.1168 178.355 35.0549C178.955 33.993 179.78 33.1587 180.829 32.5519C181.885 31.9388 183.054 31.6323 184.337 31.6323ZM186.85 34.1163C186.091 33.6612 185.254 33.4337 184.337 33.4337C183.421 33.4337 182.583 33.6612 181.825 34.1163C181.066 34.565 180.469 35.1845 180.033 35.9745C179.603 36.7646 179.388 37.6337 179.388 38.5818C179.388 40.0545 179.862 41.2933 180.81 42.2983C181.765 43.3032 182.94 43.8057 184.337 43.8057C185.734 43.8057 186.907 43.3032 187.855 42.2983C188.809 41.2933 189.286 40.0545 189.286 38.5818C189.286 37.6337 189.068 36.7646 188.632 35.9745C188.202 35.1845 187.608 34.565 186.85 34.1163Z" fill="black" fill-opacity="0.2"/>
<path d="M101.001 45.4175V31.8219H105.836C106.936 31.8219 107.871 32.1632 108.642 32.8459C109.413 33.5222 109.799 34.3343 109.799 35.2824C109.799 35.9777 109.59 36.6066 109.173 37.1691C108.762 37.7317 108.241 38.0856 107.609 38.231C108.43 38.3384 109.113 38.7177 109.657 39.3687C110.206 40.0134 110.481 40.7687 110.481 41.6346C110.481 42.6965 110.086 43.594 109.296 44.3272C108.513 45.054 107.555 45.4175 106.424 45.4175H101.001ZM102.868 37.6147H105.779C106.373 37.6147 106.875 37.4156 107.286 37.0174C107.703 36.6192 107.912 36.1326 107.912 35.5574C107.912 35.0138 107.703 34.5556 107.286 34.1827C106.875 33.8034 106.373 33.6138 105.779 33.6138H102.868V37.6147ZM102.868 43.6351H106.31C106.961 43.6351 107.501 43.4202 107.931 42.9904C108.361 42.5543 108.576 42.017 108.576 41.3786C108.576 40.7592 108.358 40.2314 107.922 39.7953C107.485 39.3592 106.955 39.1411 106.329 39.1411H102.868V43.6351ZM118.825 31.6323C119.779 31.6323 120.68 31.8124 121.527 32.1727C122.38 32.5267 123.11 33.0133 123.717 33.6328C124.33 34.2459 124.813 34.9822 125.167 35.8418C125.521 36.7014 125.698 37.6147 125.698 38.5818C125.698 39.5615 125.521 40.4874 125.167 41.3597C124.813 42.2256 124.33 42.9714 123.717 43.5972C123.11 44.2166 122.38 44.7064 121.527 45.0667C120.68 45.427 119.779 45.6071 118.825 45.6071C117.864 45.6071 116.957 45.427 116.104 45.0667C115.257 44.7064 114.53 44.2166 113.923 43.5972C113.316 42.9714 112.836 42.2256 112.482 41.3597C112.128 40.4874 111.951 39.5615 111.951 38.5818C111.951 37.2924 112.248 36.1168 112.842 35.0549C113.443 33.993 114.267 33.1587 115.317 32.5519C116.372 31.9388 117.541 31.6323 118.825 31.6323ZM121.337 34.1163C120.579 33.6612 119.741 33.4337 118.825 33.4337C117.908 33.4337 117.071 33.6612 116.312 34.1163C115.554 34.565 114.956 35.1845 114.52 35.9745C114.09 36.7646 113.876 37.6337 113.876 38.5818C113.876 40.0545 114.35 41.2933 115.298 42.2983C116.252 43.3032 117.428 43.8057 118.825 43.8057C120.221 43.8057 121.394 43.3032 122.342 42.2983C123.296 41.2933 123.774 40.0545 123.774 38.5818C123.774 37.6337 123.555 36.7646 123.119 35.9745C122.69 35.1845 122.095 34.565 121.337 34.1163ZM132.287 45.6071C130.853 45.6071 129.664 45.1836 128.723 44.3367C127.781 43.4834 127.31 42.412 127.31 41.1226H129.159C129.159 41.9254 129.449 42.5795 130.031 43.0852C130.619 43.5908 131.371 43.8437 132.287 43.8437C133.147 43.8437 133.852 43.6414 134.402 43.2369C134.958 42.826 135.236 42.2983 135.236 41.6536C135.236 41.2807 135.147 40.9583 134.97 40.6865C134.793 40.4084 134.556 40.1872 134.259 40.0229C133.962 39.8522 133.621 39.7037 133.235 39.5773C132.85 39.4509 132.442 39.3339 132.012 39.2265C131.583 39.119 131.153 39.0053 130.723 38.8852C130.3 38.7651 129.895 38.6134 129.509 38.4301C129.124 38.2405 128.783 38.0192 128.486 37.7664C128.188 37.5136 127.951 37.1818 127.774 36.7709C127.598 36.3601 127.509 35.8892 127.509 35.3583C127.509 34.2775 127.936 33.3863 128.789 32.6847C129.649 31.9831 130.729 31.6323 132.031 31.6323C133.479 31.6323 134.613 32.0242 135.435 32.8079C136.257 33.5854 136.668 34.5587 136.668 35.728H134.752C134.733 35.0517 134.468 34.4955 133.956 34.0594C133.444 33.617 132.784 33.3957 131.975 33.3957C131.197 33.3957 130.562 33.579 130.069 33.9456C129.576 34.3059 129.329 34.7768 129.329 35.3583C129.329 35.6933 129.418 35.9872 129.595 36.24C129.772 36.4865 130.009 36.6856 130.306 36.8373C130.609 36.9827 130.954 37.1122 131.339 37.226C131.731 37.3398 132.142 37.4504 132.572 37.5578C133.002 37.659 133.428 37.7727 133.852 37.8992C134.282 38.0192 134.689 38.1804 135.075 38.3827C135.467 38.5786 135.811 38.8125 136.108 39.0843C136.412 39.356 136.652 39.7132 136.829 40.1556C137.006 40.5917 137.094 41.091 137.094 41.6536C137.094 42.7976 136.639 43.7425 135.729 44.4884C134.819 45.2342 133.672 45.6071 132.287 45.6071ZM143.835 45.6071C142.4 45.6071 141.212 45.1836 140.27 44.3367C139.328 43.4834 138.858 42.412 138.858 41.1226H140.706C140.706 41.9254 140.997 42.5795 141.579 43.0852C142.166 43.5908 142.919 43.8437 143.835 43.8437C144.695 43.8437 145.399 43.6414 145.949 43.2369C146.506 42.826 146.784 42.2983 146.784 41.6536C146.784 41.2807 146.695 40.9583 146.518 40.6865C146.341 40.4084 146.104 40.1872 145.807 40.0229C145.51 39.8522 145.169 39.7037 144.783 39.5773C144.398 39.4509 143.99 39.3339 143.56 39.2265C143.13 39.119 142.701 39.0053 142.271 38.8852C141.847 38.7651 141.443 38.6134 141.057 38.4301C140.672 38.2405 140.33 38.0192 140.033 37.7664C139.736 37.5136 139.499 37.1818 139.322 36.7709C139.145 36.3601 139.057 35.8892 139.057 35.3583C139.057 34.2775 139.483 33.3863 140.337 32.6847C141.196 31.9831 142.277 31.6323 143.579 31.6323C145.026 31.6323 146.161 32.0242 146.983 32.8079C147.804 33.5854 148.215 34.5587 148.215 35.728H146.3C146.281 35.0517 146.016 34.4955 145.504 34.0594C144.992 33.617 144.331 33.3957 143.522 33.3957C142.745 33.3957 142.11 33.579 141.617 33.9456C141.124 34.3059 140.877 34.7768 140.877 35.3583C140.877 35.6933 140.966 35.9872 141.143 36.24C141.319 36.4865 141.557 36.6856 141.854 36.8373C142.157 36.9827 142.501 37.1122 142.887 37.226C143.279 37.3398 143.69 37.4504 144.119 37.5578C144.549 37.659 144.976 37.7727 145.399 37.8992C145.829 38.0192 146.237 38.1804 146.622 38.3827C147.014 38.5786 147.359 38.8125 147.656 39.0843C147.959 39.356 148.199 39.7132 148.376 40.1556C148.553 40.5917 148.642 41.091 148.642 41.6536C148.642 42.7976 148.187 43.7425 147.277 44.4884C146.366 45.2342 145.219 45.6071 143.835 45.6071ZM160.55 31.8219C161.744 31.8219 162.74 32.2075 163.536 32.9786C164.333 33.7434 164.731 34.7041 164.731 35.8608C164.731 37.0174 164.333 37.9845 163.536 38.7619C162.74 39.533 161.744 39.9186 160.55 39.9186H157.213V45.4175H155.326V31.8219H160.55ZM160.55 38.1362C161.201 38.1362 161.748 37.9181 162.19 37.482C162.639 37.0396 162.863 36.4991 162.863 35.8608C162.863 35.2224 162.639 34.6883 162.19 34.2585C161.748 33.8287 161.201 33.6138 160.55 33.6138H157.213V38.1362H160.55ZM176.819 45.4175H174.572L170.96 39.7669H168.646V45.4175H166.76V31.8219H171.775C172.919 31.8219 173.886 32.2012 174.676 32.9596C175.473 33.7181 175.871 34.6535 175.871 35.766C175.871 36.7456 175.612 37.58 175.093 38.2689C174.575 38.9515 173.877 39.4066 172.998 39.6342L176.819 45.4175ZM168.628 33.6138L168.646 37.9845H171.737C172.388 37.9845 172.926 37.7759 173.349 37.3587C173.772 36.9353 173.984 36.4043 173.984 35.766C173.984 35.1465 173.772 34.6346 173.349 34.2301C172.926 33.8192 172.388 33.6138 171.737 33.6138H168.628ZM184.337 31.6323C185.292 31.6323 186.192 31.8124 187.039 32.1727C187.893 32.5267 188.623 33.0133 189.229 33.6328C189.843 34.2459 190.326 34.9822 190.68 35.8418C191.034 36.7014 191.211 37.6147 191.211 38.5818C191.211 39.5615 191.034 40.4874 190.68 41.3597C190.326 42.2256 189.843 42.9714 189.229 43.5972C188.623 44.2166 187.893 44.7064 187.039 45.0667C186.192 45.427 185.292 45.6071 184.337 45.6071C183.377 45.6071 182.47 45.427 181.616 45.0667C180.769 44.7064 180.042 44.2166 179.436 43.5972C178.829 42.9714 178.349 42.2256 177.995 41.3597C177.641 40.4874 177.464 39.5615 177.464 38.5818C177.464 37.2924 177.761 36.1168 178.355 35.0549C178.955 33.993 179.78 33.1587 180.829 32.5519C181.885 31.9388 183.054 31.6323 184.337 31.6323ZM186.85 34.1163C186.091 33.6612 185.254 33.4337 184.337 33.4337C183.421 33.4337 182.583 33.6612 181.825 34.1163C181.066 34.565 180.469 35.1845 180.033 35.9745C179.603 36.7646 179.388 37.6337 179.388 38.5818C179.388 40.0545 179.862 41.2933 180.81 42.2983C181.765 43.3032 182.94 43.8057 184.337 43.8057C185.734 43.8057 186.907 43.3032 187.855 42.2983C188.809 41.2933 189.286 40.0545 189.286 38.5818C189.286 37.6337 189.068 36.7646 188.632 35.9745C188.202 35.1845 187.608 34.565 186.85 34.1163Z" fill="black" fill-opacity="0.2"/>
</g>
<defs>
<filter id="filter0_dddd_413_179" x="0.50526" y="-1.06066" width="285.957" height="141.213" filterUnits="userSpaceOnUse" color-interpolation-filters="sRGB">
<feFlood flood-opacity="0" result="BackgroundImageFix"/>
<feColorMatrix in="SourceAlpha" type="matrix" values="0 0 0 0 0 0 0 0 0 0 0 0 0 0 0 0 0 0 127 0" result="hardAlpha"/>
<feOffset dx="1.76516" dy="3.53033"/>
<feGaussianBlur stdDeviation="4.41291"/>
<feColorMatrix type="matrix" values="0 0 0 0 0.25098 0 0 0 0 0.25098 0 0 0 0 0.25098 0 0 0 0.1 0"/>
<feBlend mode="normal" in2="BackgroundImageFix" result="effect1_dropShadow_413_179"/>
<feColorMatrix in="SourceAlpha" type="matrix" values="0 0 0 0 0 0 0 0 0 0 0 0 0 0 0 0 0 0 127 0" result="hardAlpha"/>
<feOffset dx="10.591" dy="12.3562"/>
<feGaussianBlur stdDeviation="7.94324"/>
<feColorMatrix type="matrix" values="0 0 0 0 0.25098 0 0 0 0 0.25098 0 0 0 0 0.25098 0 0 0 0.09 0"/>
<feBlend mode="normal" in2="effect1_dropShadow_413_179" result="effect2_dropShadow_413_179"/>
<feColorMatrix in="SourceAlpha" type="matrix" values="0 0 0 0 0 0 0 0 0 0 0 0 0 0 0 0 0 0 127 0" result="hardAlpha"/>
<feOffset dx="22.9471" dy="26.4775"/>
<feGaussianBlur stdDeviation="10.591"/>
<feColorMatrix type="matrix" values="0 0 0 0 0.25098 0 0 0 0 0.25098 0 0 0 0 0.25098 0 0 0 0.05 0"/>
<feBlend mode="normal" in2="effect2_dropShadow_413_179" result="effect3_dropShadow_413_179"/>
<feColorMatrix in="SourceAlpha" type="matrix" values="0 0 0 0 0 0 0 0 0 0 0 0 0 0 0 0 0 0 127 0" result="hardAlpha"/>
<feOffset dx="40.5988" dy="47.6594"/>
<feGaussianBlur stdDeviation="12.3562"/>
<feColorMatrix type="matrix" values="0 0 0 0 0.25098 0 0 0 0 0.25098 0 0 0 0 0.25098 0 0 0 0.01 0"/>
<feBlend mode="normal" in2="effect3_dropShadow_413_179" result="effect4_dropShadow_413_179"/>
<feBlend mode="normal" in="SourceGraphic" in2="effect4_dropShadow_413_179" result="shape"/>
</filter>
</defs>
</svg>
