<svg width="40" height="40" viewBox="0 0 40 40" fill="none" xmlns="http://www.w3.org/2000/svg">
<g clip-path="url(#clip0_356_54)">
<path d="M27.9987 0H32.9987C36.6805 0 39.6653 2.98477 39.6653 6.66664V11.6666C39.6653 15.3485 36.6805 18.3333 32.9987 18.3333H27.9987C24.3168 18.3334 21.332 15.3486 21.332 11.6666V6.66664C21.332 2.98477 24.3168 0 27.9987 0Z" fill="#444444"/>
<path d="M6.66566 0H11.6657C15.3475 0 18.3323 2.98477 18.3323 6.66664V11.6666C18.3323 15.3485 15.3475 18.3333 11.6657 18.3333H6.66566C2.98379 18.3333 -0.000976561 15.3485 -0.000976561 11.6666V6.66664C-0.00105469 2.98477 2.98371 0 6.66566 0Z" fill="#444444"/>
<path d="M6.66664 21.667H11.6666C15.3485 21.667 18.3333 24.6518 18.3333 28.3336V33.3336C18.3333 37.0155 15.3485 40.0003 11.6666 40.0003H6.66664C2.98477 40.0004 0 37.0156 0 33.3337V28.3337C0 24.6518 2.98477 21.667 6.66664 21.667Z" fill="#444444"/>
<path d="M27.9996 21.3335H32.9996C36.6815 21.3335 39.6663 24.3183 39.6663 28.0001V33.0001C39.6663 36.6821 36.6815 39.6669 32.9996 39.6669H27.9996C24.3178 39.6669 21.333 36.6821 21.333 33.0002V28.0002C21.3329 24.3183 24.3177 21.3335 27.9996 21.3335Z" fill="#F48025"/>
</g>
<defs>
<clipPath id="clip0_356_54">
<rect width="40" height="40" fill="white"/>
</clipPath>
</defs>
</svg>
