<svg width="40" height="40" viewBox="0 0 40 40" fill="none" xmlns="http://www.w3.org/2000/svg">
<path fill-rule="evenodd" clip-rule="evenodd" d="M38 4H27.78C24.9953 4.04439 22.258 4.72869 19.78 6L18.54 6.62C16.5717 7.5721 14.406 8.0449 12.22 8H2C0.89543 8 0 8.8954 0 10V34C0 35.1046 0.89543 36 2 36H12.22C14.9969 35.9866 17.7337 35.3367 20.22 34.1L21.46 33.48C23.4198 32.4934 25.5859 31.9861 27.78 32H38C39.1046 32 40 31.1046 40 30V6C40 4.89543 39.1046 4 38 4ZM36 22C32.6863 22 30 24.6863 30 28H27.78C25.0034 28.0155 22.2671 28.6654 19.78 29.9L18.54 30.52C16.5768 31.4974 14.413 32.0041 12.22 32H10C10 28.6863 7.3137 26 4 26V18C7.3137 18 10 15.3137 10 12H12.22C15.0045 11.9535 17.7412 11.2693 20.22 10L21.46 9.38C23.4315 8.4371 25.5949 7.9647 27.78 8H30C30 11.3137 32.6863 14 36 14V22Z" fill="#F48025"/>
<path d="M26 20C26 23.3137 23.3137 26 20 26C16.6863 26 14 23.3137 14 20C14 16.6863 16.6863 14 20 14C23.3137 14 26 16.6863 26 20Z" fill="white"/>
</svg>
