<svg width="48" height="40" viewBox="0 0 48 40" fill="none" xmlns="http://www.w3.org/2000/svg">
<path d="M22.2222 25.9259H16.6667L16.2037 25.3889C15.5 24.5556 14.463 24.0741 13.3704 24.0741H4.62963C2.07407 24.0741 0 26.1481 0 28.7037C0 31.2593 2.07407 33.3333 4.62963 33.3333H22.2222V25.9259ZM13.3889 20.3704C15.2037 20.3704 16.9444 21.037 18.2963 22.2222H22.4074C23.2963 16.9815 27.8519 12.963 33.3519 12.963H37.0556C38.3519 12.963 39.5926 13.2037 40.7593 13.6111V9.25926C40.7593 4.14815 36.6111 0 31.5 0H12.963C7.85185 0 3.7037 4.14815 3.7037 9.25926V20.5741C4.2963 20.4444 4.92593 20.3704 5.55556 20.3704H13.3889Z" fill="#F48025"/>
<g clip-path="url(#clip0_375_230)">
<path d="M36.112 16.667C29.6788 16.667 24.4453 21.9005 24.4453 28.3337C24.4453 34.7669 29.6788 40.0003 36.112 40.0003C42.5452 40.0003 47.7786 34.7669 47.7786 28.3337C47.7786 21.9005 42.5452 16.667 36.112 16.667ZM38.5425 32.5434C38.3899 32.6319 38.2227 32.6737 38.0574 32.6737C37.721 32.6737 37.3943 32.4996 37.2145 32.1875L35.27 28.8198C35.1845 28.672 35.1398 28.5048 35.1398 28.3337V22.5003C35.1398 21.9637 35.5743 21.5281 36.112 21.5281C36.6496 21.5281 37.0842 21.9637 37.0842 22.5003V28.0731L38.8984 31.2153C39.1667 31.68 39.0073 32.275 38.5425 32.5434Z" fill="white"/>
</g>
<defs>
<clipPath id="clip0_375_230">
<rect width="23.3333" height="23.3333" fill="white" transform="translate(24.4453 16.667)"/>
</clipPath>
</defs>
</svg>
