<svg width="40" height="40" viewBox="0 0 40 40" fill="none" xmlns="http://www.w3.org/2000/svg">
<g clip-path="url(#clip0_375_208)">
<path d="M30 20C24.4767 20 20 24.4767 20 30C20 35.5233 24.4767 40 30 40C35.5233 40 40 35.5233 40 30C40 24.4767 35.5233 20 30 20ZM36.1383 29.52L31.6333 33.8767C30.88 34.62 29.88 34.995 28.8783 34.995C27.8767 34.995 26.8733 34.62 26.1067 33.8717L23.85 31.6517C23.1917 31.0067 23.1833 29.9517 23.8267 29.295C24.47 28.6367 25.525 28.6267 26.1833 29.2717L28.44 31.49C28.68 31.7267 29.0733 31.7217 29.31 31.4867L33.8317 27.1133C34.4933 26.4783 35.55 26.4967 36.1883 27.1617C36.825 27.825 36.8033 28.88 36.14 29.5183L36.1383 29.52ZM16.6667 30L17 27L18.05 24.1233C20.2267 19.7133 24.7583 16.6667 30 16.6667C30.5867 16.6667 31.16 16.7183 31.7283 16.7917C30.86 15.6017 29.6983 14.6383 28.3333 14.04V11.6667C28.3333 5.23333 23.1 0 16.6667 0C10.2333 0 5 5.23333 5 11.6667V14.04C2.06167 15.33 0 18.2583 0 21.6667V31.6667C0 36.2617 3.73833 40 8.33333 40H21.21C18.4317 37.555 16.5 34 16.6667 30ZM8.33333 11.6667C8.33333 7.07167 12.0717 3.33333 16.6667 3.33333C21.2617 3.33333 25 7.07167 25 11.6667V13.3333H8.33333V11.6667Z" fill="#F48025"/>
<path d="M30 20C24.4767 20 20 24.4767 20 30C20 35.5233 24.4767 40 30 40C35.5233 40 40 35.5233 40 30C40 24.4767 35.5233 20 30 20ZM36.1383 29.52L31.6333 33.8767C30.88 34.62 29.88 34.995 28.8783 34.995C27.8767 34.995 26.8733 34.62 26.1067 33.8717L23.85 31.6517C23.1917 31.0067 23.1833 29.9517 23.8267 29.295C24.47 28.6367 25.525 28.6267 26.1833 29.2717L28.44 31.49C28.68 31.7267 29.0733 31.7217 29.31 31.4867L33.8317 27.1133C34.4933 26.4783 35.55 26.4967 36.1883 27.1617C36.825 27.825 36.8033 28.88 36.14 29.5183L36.1383 29.52Z" fill="white"/>
</g>
<defs>
<clipPath id="clip0_375_208">
<rect width="40" height="40" fill="white"/>
</clipPath>
</defs>
</svg>
