<svg width="40" height="41" viewBox="0 0 40 41" fill="none" xmlns="http://www.w3.org/2000/svg">
<g clip-path="url(#clip0_356_60)">
<path d="M16.6667 29.2544H12.215C11.5579 29.2565 10.9069 29.1281 10.2997 28.8766C9.69263 28.6251 9.1415 28.2556 8.67833 27.7894L0.0866667 19.1978C0.0383333 19.7678 0 20.3394 0 20.9211C0.00731967 25.9332 1.8949 30.7602 5.28957 34.4478C8.68424 38.1353 13.3389 40.415 18.3333 40.8361V30.9211C18.3333 30.4791 18.1577 30.0551 17.8452 29.7426C17.5326 29.43 17.1087 29.2544 16.6667 29.2544Z" fill="#444444"/>
<path d="M34.06 6.71777L31.0767 9.70111C30.2939 10.4796 29.2357 10.918 28.1317 10.9211H25.8333C25.6123 10.9211 25.4004 11.0089 25.2441 11.1652C25.0878 11.3215 25 11.5334 25 11.7544V13.4211C25 14.5262 24.561 15.586 23.7796 16.3674C22.9982 17.1488 21.9384 17.5878 20.8333 17.5878C20.6123 17.5878 20.4004 17.6756 20.2441 17.8319C20.0878 17.9881 20 18.2001 20 18.4211V19.2544C20 19.6965 20.1756 20.1204 20.4882 20.433C20.8007 20.7455 21.2246 20.9211 21.6667 20.9211H26.6667C27.9928 20.9211 29.2645 21.4479 30.2022 22.3856C31.1399 23.3233 31.6667 24.595 31.6667 25.9211V27.5244C31.6667 27.745 31.7542 27.9566 31.91 28.1128L36.285 32.4894C39.043 28.6322 40.3342 23.9174 39.9263 19.1932C39.5185 14.4689 37.4383 10.0452 34.06 6.71777Z" fill="#F48025"/>
<path d="M28.334 27.5241V25.9208C28.334 25.4787 28.1584 25.0548 27.8458 24.7423C27.5333 24.4297 27.1093 24.2541 26.6673 24.2541H21.6673C20.3412 24.2541 19.0695 23.7273 18.1318 22.7896C17.1941 21.852 16.6673 20.5802 16.6673 19.2541V18.4208C16.6673 17.3157 17.1063 16.2559 17.8877 15.4745C18.6691 14.6931 19.7289 14.2541 20.834 14.2541C21.055 14.2541 21.267 14.1663 21.4232 14.01C21.5795 13.8537 21.6673 13.6418 21.6673 13.4208V11.7541C21.6673 10.649 22.1063 9.58922 22.8877 8.80782C23.6691 8.02642 24.7289 7.58743 25.834 7.58743H28.1323C28.3527 7.58613 28.5638 7.49882 28.7207 7.3441L31.489 4.57577C28.8972 2.74522 25.9063 1.55906 22.7644 1.1157C19.6224 0.672338 16.4201 0.984556 13.423 2.02645C10.4258 3.06835 7.72036 4.80988 5.53097 7.10658C3.34158 9.40328 1.73139 12.1889 0.833984 15.2324L11.034 25.4324C11.1891 25.5876 11.3733 25.7106 11.5761 25.7944C11.7789 25.8782 11.9962 25.9212 12.2157 25.9208H16.6673C17.9934 25.9208 19.2652 26.4476 20.2029 27.3852C21.1405 28.3229 21.6673 29.5947 21.6673 30.9208V40.8358C26.3785 40.4481 30.7987 38.3989 34.139 35.0541L29.554 30.4691C28.7755 29.6863 28.3371 28.6281 28.334 27.5241Z" fill="#444444"/>
</g>
<defs>
<clipPath id="clip0_356_60">
<rect width="40" height="40" fill="white" transform="translate(0 0.920898)"/>
</clipPath>
</defs>
</svg>
