<svg width="534" height="308" viewBox="0 0 534 308" fill="none" xmlns="http://www.w3.org/2000/svg">
<g clip-path="url(#clip0_396_2280)">
<rect width="534" height="308" rx="20" fill="#FFC08A"/>
<g filter="url(#filter0_dddd_396_2280)">
<rect x="27" y="25" width="479.998" height="257.999" rx="16" fill="white"/>
<rect x="39" y="37" width="72" height="234" rx="7.99998" fill="#EADBCE"/>
<rect x="127" y="125" width="363" height="24" rx="7.99998" fill="#EADBCE"/>
<rect x="127" y="159" width="363" height="24" rx="7.99998" fill="#EADBCE"/>
<rect x="127" y="193" width="363" height="24" rx="7.99998" fill="#EADBCE"/>
<rect x="127" y="227" width="363" height="24" rx="7.99998" fill="#EADBCE"/>
<rect x="363" y="74.9995" width="10" height="236" rx="5" transform="rotate(90 363 74.9995)" fill="#EADBCE"/>
<rect x="490" y="38.9995" width="10" height="10" rx="5" transform="rotate(90 490 38.9995)" fill="#F48025"/>
<rect x="474" y="38.9995" width="10" height="10" rx="5" transform="rotate(90 474 38.9995)" fill="#EADBCE"/>
<rect x="458" y="38.9995" width="10" height="10" rx="5" transform="rotate(90 458 38.9995)" fill="#EADBCE"/>
<rect x="214" y="58.9995" width="10" height="87" rx="5" transform="rotate(90 214 58.9995)" fill="#F48025"/>
<path d="M133.41 40.5972H134.57V48.9995H133.41V45.1968H129.016V48.9995H127.85V40.5972H129.016V44.0894H133.41V40.5972ZM141.701 45.9292C141.701 46.0972 141.693 46.2437 141.678 46.3687H136.973C137.039 46.9038 137.244 47.3296 137.588 47.646C137.936 47.9624 138.379 48.1206 138.918 48.1206C139.328 48.1206 139.682 48.0288 139.979 47.8452C140.275 47.6577 140.461 47.4097 140.535 47.1011H141.643C141.533 47.7104 141.225 48.1987 140.717 48.5659C140.209 48.9331 139.598 49.1167 138.883 49.1167C138.031 49.1167 137.318 48.8237 136.744 48.2378C136.17 47.6479 135.883 46.9175 135.883 46.0464C135.883 45.4917 136.014 44.9839 136.275 44.5229C136.537 44.0581 136.896 43.6929 137.354 43.4272C137.814 43.1577 138.32 43.0229 138.871 43.0229C139.664 43.0229 140.334 43.2983 140.881 43.8491C141.428 44.3999 141.701 45.0933 141.701 45.9292ZM137.008 45.437H140.5C140.453 45.0229 140.275 44.6851 139.967 44.4233C139.662 44.1616 139.281 44.0308 138.824 44.0308C138.363 44.0308 137.971 44.1558 137.646 44.4058C137.322 44.6558 137.109 44.9995 137.008 45.437ZM146.752 43.146H147.941L144.596 51.1382H143.406L144.438 48.7944L142.076 43.146H143.26L145 47.5112L146.752 43.146ZM151.17 48.0034C151.217 48.0112 151.301 48.0151 151.422 48.0151C151.836 48.0151 152.146 47.8901 152.354 47.6401C152.564 47.3862 152.67 46.9878 152.67 46.4448V40.5972H153.836V46.7319C153.836 47.478 153.646 48.0601 153.268 48.478C152.889 48.896 152.377 49.105 151.732 49.105C151.541 49.105 151.354 49.0933 151.17 49.0698V48.0034ZM158.102 43.0229C158.66 43.0229 159.17 43.1577 159.631 43.4272C160.092 43.6929 160.455 44.0601 160.721 44.5288C160.99 44.9976 161.125 45.5151 161.125 46.0815C161.125 46.937 160.832 47.6577 160.246 48.2437C159.664 48.8257 158.949 49.1167 158.102 49.1167C157.543 49.1167 157.031 48.9839 156.566 48.7183C156.105 48.4526 155.742 48.0874 155.477 47.6226C155.211 47.1577 155.078 46.644 155.078 46.0815C155.078 45.2183 155.369 44.4937 155.951 43.9077C156.533 43.3179 157.25 43.0229 158.102 43.0229ZM158.102 44.0776C157.551 44.0776 157.088 44.269 156.713 44.6519C156.342 45.0347 156.156 45.5112 156.156 46.0815C156.156 46.6401 156.342 47.1108 156.713 47.4937C157.088 47.8726 157.551 48.062 158.102 48.062C158.648 48.062 159.109 47.8706 159.484 47.4878C159.859 47.105 160.047 46.6362 160.047 46.0815C160.047 45.5112 159.859 45.0347 159.484 44.6519C159.109 44.269 158.648 44.0776 158.102 44.0776ZM167.705 45.9292C167.705 46.0972 167.697 46.2437 167.682 46.3687H162.977C163.043 46.9038 163.248 47.3296 163.592 47.646C163.939 47.9624 164.383 48.1206 164.922 48.1206C165.332 48.1206 165.686 48.0288 165.982 47.8452C166.279 47.6577 166.465 47.4097 166.539 47.1011H167.646C167.537 47.7104 167.229 48.1987 166.721 48.5659C166.213 48.9331 165.602 49.1167 164.887 49.1167C164.035 49.1167 163.322 48.8237 162.748 48.2378C162.174 47.6479 161.887 46.9175 161.887 46.0464C161.887 45.4917 162.018 44.9839 162.279 44.5229C162.541 44.0581 162.9 43.6929 163.357 43.4272C163.818 43.1577 164.324 43.0229 164.875 43.0229C165.668 43.0229 166.338 43.2983 166.885 43.8491C167.432 44.3999 167.705 45.0933 167.705 45.9292ZM163.012 45.437H166.504C166.457 45.0229 166.279 44.6851 165.971 44.4233C165.666 44.1616 165.285 44.0308 164.828 44.0308C164.367 44.0308 163.975 44.1558 163.65 44.4058C163.326 44.6558 163.113 44.9995 163.012 45.437Z" fill="black"/>
<path opacity="0.7" d="M127.708 111V103.998H128.86L131.36 109.588L133.919 103.998H134.9V111H133.929V105.912L131.648 111H130.94L128.68 105.912V111H127.708ZM140.223 106.122H141.146V111H140.223V109.999C140.04 110.353 139.791 110.625 139.476 110.814C139.16 111.003 138.789 111.097 138.362 111.097C137.705 111.097 137.145 110.851 136.683 110.36C136.224 109.865 135.994 109.264 135.994 108.558C135.994 107.852 136.224 107.253 136.683 106.761C137.145 106.266 137.705 106.019 138.362 106.019C138.789 106.019 139.16 106.113 139.476 106.302C139.791 106.491 140.04 106.763 140.223 107.118V106.122ZM138.553 110.218C139.035 110.218 139.433 110.062 139.749 109.75C140.065 109.437 140.223 109.04 140.223 108.558C140.223 108.076 140.065 107.679 139.749 107.367C139.433 107.054 139.035 106.898 138.553 106.898C138.09 106.898 137.698 107.059 137.376 107.381C137.054 107.704 136.893 108.096 136.893 108.558C136.893 109.02 137.054 109.413 137.376 109.735C137.698 110.057 138.09 110.218 138.553 110.218ZM144.915 106.019C145.543 106.019 146.04 106.216 146.404 106.61C146.772 107.004 146.956 107.538 146.956 108.211V111H146.033V108.309C146.033 107.883 145.913 107.541 145.672 107.284C145.431 107.027 145.109 106.898 144.705 106.898C144.295 106.898 143.968 107.027 143.724 107.284C143.479 107.541 143.357 107.883 143.357 108.309V111H142.425V106.122H143.357V106.971C143.514 106.668 143.725 106.434 143.992 106.268C144.262 106.102 144.57 106.019 144.915 106.019ZM152.215 106.122H153.138V111H152.215V109.999C152.033 110.353 151.784 110.625 151.468 110.814C151.152 111.003 150.781 111.097 150.354 111.097C149.697 111.097 149.137 110.851 148.675 110.36C148.216 109.865 147.986 109.264 147.986 108.558C147.986 107.852 148.216 107.253 148.675 106.761C149.137 106.266 149.697 106.019 150.354 106.019C150.781 106.019 151.152 106.113 151.468 106.302C151.784 106.491 152.033 106.763 152.215 107.118V106.122ZM150.545 110.218C151.027 110.218 151.425 110.062 151.741 109.75C152.057 109.437 152.215 109.04 152.215 108.558C152.215 108.076 152.057 107.679 151.741 107.367C151.425 107.054 151.027 106.898 150.545 106.898C150.083 106.898 149.69 107.059 149.368 107.381C149.046 107.704 148.885 108.096 148.885 108.558C148.885 109.02 149.046 109.413 149.368 109.735C149.69 110.057 150.083 110.218 150.545 110.218ZM158.387 106.122H159.31V110.829C159.31 111.502 159.08 112.041 158.621 112.445C158.165 112.848 157.578 113.05 156.858 113.05C156.585 113.05 156.316 113.018 156.053 112.953C155.789 112.888 155.537 112.788 155.296 112.655C155.058 112.525 154.861 112.342 154.705 112.108C154.552 111.877 154.469 111.61 154.456 111.307H155.369C155.382 111.6 155.529 111.834 155.809 112.01C156.089 112.189 156.429 112.279 156.829 112.279C157.275 112.279 157.646 112.149 157.942 111.888C158.239 111.628 158.387 111.288 158.387 110.868V109.911C158.204 110.256 157.954 110.523 157.635 110.711C157.319 110.897 156.95 110.99 156.526 110.99C155.869 110.99 155.309 110.747 154.847 110.262C154.388 109.777 154.158 109.19 154.158 108.5C154.158 108.047 154.262 107.63 154.471 107.25C154.682 106.869 154.969 106.569 155.33 106.351C155.695 106.13 156.093 106.019 156.526 106.019C156.95 106.019 157.319 106.112 157.635 106.297C157.954 106.483 158.204 106.747 158.387 107.088V106.122ZM156.717 110.13C157.199 110.13 157.597 109.977 157.913 109.671C158.229 109.362 158.387 108.972 158.387 108.5C158.387 108.034 158.229 107.648 157.913 107.342C157.597 107.033 157.199 106.878 156.717 106.878C156.255 106.878 155.862 107.036 155.54 107.352C155.218 107.668 155.057 108.05 155.057 108.5C155.057 108.955 155.218 109.341 155.54 109.657C155.862 109.972 156.255 110.13 156.717 110.13ZM165.179 108.441C165.179 108.581 165.172 108.703 165.159 108.807H161.238C161.294 109.253 161.465 109.608 161.751 109.872C162.041 110.135 162.41 110.267 162.859 110.267C163.201 110.267 163.496 110.191 163.743 110.038C163.991 109.881 164.145 109.675 164.207 109.417H165.13C165.039 109.925 164.782 110.332 164.358 110.638C163.935 110.944 163.426 111.097 162.83 111.097C162.12 111.097 161.526 110.853 161.048 110.365C160.569 109.873 160.33 109.264 160.33 108.539C160.33 108.076 160.439 107.653 160.657 107.269C160.875 106.882 161.175 106.577 161.556 106.356C161.94 106.131 162.361 106.019 162.82 106.019C163.481 106.019 164.039 106.249 164.495 106.708C164.951 107.167 165.179 107.744 165.179 108.441ZM161.268 108.031H164.178C164.139 107.686 163.991 107.404 163.733 107.186C163.479 106.968 163.162 106.859 162.781 106.859C162.397 106.859 162.07 106.963 161.8 107.171C161.53 107.38 161.352 107.666 161.268 108.031ZM171.258 103.998C171.873 103.998 172.386 104.196 172.796 104.593C173.206 104.987 173.411 105.482 173.411 106.078C173.411 106.673 173.206 107.171 172.796 107.572C172.386 107.969 171.873 108.167 171.258 108.167H169.539V111H168.567V103.998H171.258ZM171.258 107.25C171.593 107.25 171.875 107.137 172.103 106.913C172.334 106.685 172.449 106.406 172.449 106.078C172.449 105.749 172.334 105.474 172.103 105.252C171.875 105.031 171.593 104.92 171.258 104.92H169.539V107.25H171.258ZM176.57 106.029C176.727 106.029 176.876 106.048 177.02 106.087V106.942C176.847 106.887 176.688 106.859 176.541 106.859C176.167 106.859 175.854 106.987 175.604 107.245C175.356 107.499 175.232 107.834 175.232 108.25V111H174.3V106.122H175.232V106.83C175.379 106.579 175.568 106.384 175.799 106.244C176.03 106.1 176.287 106.029 176.57 106.029ZM179.773 106.019C180.239 106.019 180.664 106.131 181.048 106.356C181.432 106.577 181.735 106.883 181.956 107.274C182.181 107.665 182.293 108.096 182.293 108.568C182.293 109.281 182.049 109.881 181.561 110.37C181.076 110.855 180.48 111.097 179.773 111.097C179.308 111.097 178.882 110.986 178.494 110.765C178.11 110.544 177.807 110.239 177.586 109.852C177.365 109.465 177.254 109.037 177.254 108.568C177.254 107.848 177.496 107.245 177.981 106.756C178.466 106.265 179.064 106.019 179.773 106.019ZM179.773 106.898C179.314 106.898 178.929 107.057 178.616 107.376C178.307 107.695 178.152 108.093 178.152 108.568C178.152 109.033 178.307 109.426 178.616 109.745C178.929 110.06 179.314 110.218 179.773 110.218C180.229 110.218 180.613 110.059 180.926 109.74C181.238 109.421 181.395 109.03 181.395 108.568C181.395 108.093 181.238 107.695 180.926 107.376C180.613 107.057 180.229 106.898 179.773 106.898ZM183.782 103.929C183.948 103.929 184.093 103.991 184.217 104.115C184.34 104.238 184.402 104.383 184.402 104.549C184.402 104.719 184.34 104.865 184.217 104.989C184.093 105.109 183.948 105.169 183.782 105.169C183.61 105.169 183.463 105.109 183.343 104.989C183.222 104.868 183.162 104.722 183.162 104.549C183.162 104.383 183.222 104.238 183.343 104.115C183.466 103.991 183.613 103.929 183.782 103.929ZM182.552 112.127C182.578 112.134 182.622 112.137 182.684 112.137C183.104 112.137 183.313 111.841 183.313 111.249V106.122H184.246V111.332C184.246 111.865 184.118 112.276 183.86 112.562C183.603 112.848 183.24 112.992 182.771 112.992C182.749 112.992 182.713 112.99 182.664 112.987C182.615 112.984 182.578 112.982 182.552 112.982V112.127ZM190.11 108.441C190.11 108.581 190.104 108.703 190.091 108.807H186.17C186.225 109.253 186.396 109.608 186.683 109.872C186.972 110.135 187.342 110.267 187.791 110.267C188.133 110.267 188.427 110.191 188.675 110.038C188.922 109.881 189.077 109.675 189.139 109.417H190.062C189.97 109.925 189.713 110.332 189.29 110.638C188.867 110.944 188.357 111.097 187.762 111.097C187.052 111.097 186.458 110.853 185.979 110.365C185.501 109.873 185.262 109.264 185.262 108.539C185.262 108.076 185.371 107.653 185.589 107.269C185.807 106.882 186.106 106.577 186.487 106.356C186.871 106.131 187.293 106.019 187.752 106.019C188.413 106.019 188.971 106.249 189.427 106.708C189.882 107.167 190.11 107.744 190.11 108.441ZM186.199 108.031H189.109C189.07 107.686 188.922 107.404 188.665 107.186C188.411 106.968 188.094 106.859 187.713 106.859C187.329 106.859 187.002 106.963 186.731 107.171C186.461 107.38 186.284 107.666 186.199 108.031ZM193.26 111.097C192.794 111.097 192.368 110.986 191.98 110.765C191.596 110.544 191.294 110.239 191.072 109.852C190.851 109.465 190.74 109.037 190.74 108.568C190.74 107.848 190.983 107.245 191.468 106.756C191.953 106.265 192.55 106.019 193.26 106.019C193.829 106.019 194.332 106.19 194.769 106.532C195.208 106.87 195.468 107.293 195.55 107.801H194.607C194.536 107.541 194.373 107.326 194.119 107.157C193.865 106.984 193.579 106.898 193.26 106.898C192.801 106.898 192.415 107.057 192.103 107.376C191.793 107.695 191.639 108.093 191.639 108.568C191.639 109.033 191.793 109.426 192.103 109.745C192.415 110.06 192.801 110.218 193.26 110.218C193.585 110.218 193.877 110.132 194.134 109.959C194.391 109.784 194.552 109.557 194.617 109.281H195.55C195.478 109.811 195.224 110.248 194.788 110.589C194.352 110.928 193.842 111.097 193.26 111.097ZM199.246 107H197.928V109.251C197.928 109.876 198.253 110.189 198.904 110.189C199.044 110.189 199.158 110.176 199.246 110.15V111C199.096 111.039 198.919 111.058 198.714 111.058C198.187 111.058 197.77 110.907 197.464 110.604C197.158 110.298 197.005 109.854 197.005 109.271V107H196.058V106.122H197.005V104.798H197.928V106.122H199.246V107ZM201.907 111.097C201.334 111.097 200.861 110.954 200.486 110.667C200.115 110.381 199.905 109.992 199.856 109.5H200.74C200.77 109.741 200.887 109.935 201.092 110.082C201.3 110.228 201.559 110.301 201.868 110.301C202.171 110.301 202.413 110.238 202.596 110.111C202.778 109.981 202.869 109.813 202.869 109.608C202.869 109.445 202.815 109.312 202.708 109.208C202.601 109.103 202.462 109.027 202.293 108.978C202.124 108.926 201.935 108.88 201.727 108.841C201.521 108.802 201.315 108.757 201.106 108.705C200.901 108.649 200.714 108.578 200.545 108.49C200.376 108.402 200.237 108.272 200.13 108.099C200.022 107.923 199.969 107.71 199.969 107.459C199.969 107.04 200.133 106.694 200.462 106.424C200.791 106.154 201.224 106.019 201.761 106.019C202.265 106.019 202.698 106.151 203.06 106.415C203.421 106.675 203.631 107.033 203.689 107.489H202.757C202.728 107.29 202.618 107.126 202.43 106.996C202.244 106.865 202.013 106.8 201.736 106.8C201.479 106.8 201.269 106.854 201.106 106.961C200.947 107.069 200.867 107.212 200.867 107.391C200.867 107.547 200.921 107.674 201.028 107.772C201.136 107.866 201.274 107.936 201.443 107.982C201.613 108.028 201.8 108.068 202.005 108.104C202.213 108.14 202.42 108.187 202.625 108.246C202.833 108.301 203.022 108.376 203.191 108.47C203.361 108.565 203.499 108.706 203.606 108.895C203.714 109.084 203.768 109.315 203.768 109.588C203.768 110.021 203.59 110.381 203.235 110.667C202.881 110.954 202.438 111.097 201.907 111.097Z" fill="black"/>
</g>
</g>
<defs>
<filter id="filter0_dddd_396_2280" x="13" y="10" width="678.998" height="442.999" filterUnits="userSpaceOnUse" color-interpolation-filters="sRGB">
<feFlood flood-opacity="0" result="BackgroundImageFix"/>
<feColorMatrix in="SourceAlpha" type="matrix" values="0 0 0 0 0 0 0 0 0 0 0 0 0 0 0 0 0 0 127 0" result="hardAlpha"/>
<feOffset dx="8" dy="7"/>
<feGaussianBlur stdDeviation="11"/>
<feColorMatrix type="matrix" values="0 0 0 0 0.188235 0 0 0 0 0.188235 0 0 0 0 0.188235 0 0 0 0.1 0"/>
<feBlend mode="normal" in2="BackgroundImageFix" result="effect1_dropShadow_396_2280"/>
<feColorMatrix in="SourceAlpha" type="matrix" values="0 0 0 0 0 0 0 0 0 0 0 0 0 0 0 0 0 0 127 0" result="hardAlpha"/>
<feOffset dx="30" dy="26"/>
<feGaussianBlur stdDeviation="20"/>
<feColorMatrix type="matrix" values="0 0 0 0 0.188235 0 0 0 0 0.188235 0 0 0 0 0.188235 0 0 0 0.09 0"/>
<feBlend mode="normal" in2="effect1_dropShadow_396_2280" result="effect2_dropShadow_396_2280"/>
<feColorMatrix in="SourceAlpha" type="matrix" values="0 0 0 0 0 0 0 0 0 0 0 0 0 0 0 0 0 0 127 0" result="hardAlpha"/>
<feOffset dx="68" dy="60"/>
<feGaussianBlur stdDeviation="27"/>
<feColorMatrix type="matrix" values="0 0 0 0 0.188235 0 0 0 0 0.188235 0 0 0 0 0.188235 0 0 0 0.05 0"/>
<feBlend mode="normal" in2="effect2_dropShadow_396_2280" result="effect3_dropShadow_396_2280"/>
<feColorMatrix in="SourceAlpha" type="matrix" values="0 0 0 0 0 0 0 0 0 0 0 0 0 0 0 0 0 0 127 0" result="hardAlpha"/>
<feOffset dx="121" dy="106"/>
<feGaussianBlur stdDeviation="32"/>
<feColorMatrix type="matrix" values="0 0 0 0 0.188235 0 0 0 0 0.188235 0 0 0 0 0.188235 0 0 0 0.01 0"/>
<feBlend mode="normal" in2="effect3_dropShadow_396_2280" result="effect4_dropShadow_396_2280"/>
<feBlend mode="normal" in="SourceGraphic" in2="effect4_dropShadow_396_2280" result="shape"/>
</filter>
<clipPath id="clip0_396_2280">
<rect width="534" height="308" rx="20" fill="white"/>
</clipPath>
</defs>
</svg>
