<svg width="246" height="202" viewBox="0 0 246 202" fill="none" xmlns="http://www.w3.org/2000/svg">
<g clip-path="url(#clip0_396_3404)">
<rect width="246" height="202" rx="20" fill="#FFC08A"/>
<g filter="url(#filter0_dddd_396_3404)">
<rect x="23" y="22" width="198" height="92" rx="16" fill="white"/>
<path opacity="0.4" d="M45.7969 37.9961C47.0273 37.9961 48.0527 38.3932 48.873 39.1875C49.6934 39.9753 50.1035 40.9648 50.1035 42.1562C50.1035 43.3477 49.6934 44.3438 48.873 45.1445C48.0527 45.9388 47.0273 46.3359 45.7969 46.3359H42.3594V52H40.416V37.9961H45.7969ZM45.7969 44.5C46.4674 44.5 47.0306 44.2754 47.4863 43.8262C47.9486 43.3704 48.1797 42.8138 48.1797 42.1562C48.1797 41.4987 47.9486 40.9486 47.4863 40.5059C47.0306 40.0632 46.4674 39.8418 45.7969 39.8418H42.3594V44.5H45.7969ZM59.2148 42.2441H61.0605V52H59.2148V49.998C58.8503 50.7077 58.3522 51.2513 57.7207 51.6289C57.0892 52.0065 56.347 52.1953 55.4941 52.1953C54.179 52.1953 53.0592 51.7038 52.1348 50.7207C51.2168 49.7311 50.7578 48.5299 50.7578 47.1172C50.7578 45.7044 51.2168 44.5065 52.1348 43.5234C53.0592 42.5339 54.179 42.0391 55.4941 42.0391C56.347 42.0391 57.0892 42.2279 57.7207 42.6055C58.3522 42.9831 58.8503 43.5267 59.2148 44.2363V42.2441ZM55.875 50.4375C56.8385 50.4375 57.6361 50.125 58.2676 49.5C58.8991 48.875 59.2148 48.0807 59.2148 47.1172C59.2148 46.1536 58.8991 45.3594 58.2676 44.7344C57.6361 44.1094 56.8385 43.7969 55.875 43.7969C54.9505 43.7969 54.166 44.1191 53.5215 44.7637C52.877 45.4082 52.5547 46.1927 52.5547 47.1172C52.5547 48.0417 52.877 48.8262 53.5215 49.4707C54.166 50.1152 54.9505 50.4375 55.875 50.4375ZM70.4355 42.2441H72.418L66.8418 55.5645H64.8594L66.5781 51.6582L62.6426 42.2441H64.6152L67.5156 49.5195L70.4355 42.2441Z" fill="black"/>
<path opacity="0.99" d="M76.4062 94V92.2031L85.0156 83.5938C86.1719 82.4167 87.026 81.375 87.5781 80.4688C88.1302 79.5521 88.4062 78.6667 88.4062 77.8125C88.4062 76.5938 87.9792 75.5885 87.125 74.7969C86.2708 74.0052 85.1927 73.6094 83.8906 73.6094C82.3802 73.6094 81.1562 74.0677 80.2188 74.9844C79.2917 75.901 78.8438 77.1302 78.875 78.6719H76.4688C76.4271 77.2031 76.7292 75.901 77.375 74.7656C78.0208 73.6302 78.9115 72.7656 80.0469 72.1719C81.1927 71.5781 82.4844 71.2812 83.9219 71.2812C85.9323 71.2812 87.5938 71.8906 88.9062 73.1094C90.2188 74.3177 90.875 75.8646 90.875 77.75C90.875 79.9896 89.5 82.4323 86.75 85.0781L80.1875 91.6562H91.1562V94H76.4062ZM108.531 86.7656V88.9688H105.5V94H103.094V88.9688H91.7344V87.2188L99.9844 71.5938H102.703L94.7031 86.7656H103.094V79.0938H105.5V86.7656H108.531ZM115.297 90.8906L113.156 97.3906H111.297L112.672 90.8906H115.297ZM120.062 72.2812C121.229 71.6146 122.495 71.2812 123.859 71.2812C125.224 71.2812 126.484 71.6146 127.641 72.2812C128.797 72.9375 129.714 73.8385 130.391 74.9844C131.068 76.1198 131.406 77.3594 131.406 78.7031C131.406 79.4948 131.24 80.3854 130.906 81.375C130.583 82.3542 130.12 83.3281 129.516 84.2969L123.469 94H120.719L126.312 85.2344C125.458 85.7656 124.521 86.0312 123.5 86.0312C121.469 86.0312 119.76 85.3281 118.375 83.9219C116.99 82.5156 116.297 80.776 116.297 78.7031C116.297 77.3594 116.635 76.1198 117.312 74.9844C117.99 73.8385 118.906 72.9375 120.062 72.2812ZM123.891 83.9531C125.328 83.9531 126.542 83.4479 127.531 82.4375C128.531 81.4271 129.031 80.1927 129.031 78.7344C129.031 77.2865 128.531 76.0677 127.531 75.0781C126.542 74.0781 125.318 73.5781 123.859 73.5781C122.391 73.5781 121.151 74.0781 120.141 75.0781C119.141 76.0677 118.641 77.2865 118.641 78.7344C118.641 80.1927 119.146 81.4271 120.156 82.4375C121.177 83.4479 122.422 83.9531 123.891 83.9531ZM137.094 72.2812C138.26 71.6146 139.526 71.2812 140.891 71.2812C142.255 71.2812 143.516 71.6146 144.672 72.2812C145.828 72.9375 146.745 73.8385 147.422 74.9844C148.099 76.1198 148.438 77.3594 148.438 78.7031C148.438 79.4948 148.271 80.3854 147.938 81.375C147.615 82.3542 147.151 83.3281 146.547 84.2969L140.5 94H137.75L143.344 85.2344C142.49 85.7656 141.552 86.0312 140.531 86.0312C138.5 86.0312 136.792 85.3281 135.406 83.9219C134.021 82.5156 133.328 80.776 133.328 78.7031C133.328 77.3594 133.667 76.1198 134.344 74.9844C135.021 73.8385 135.938 72.9375 137.094 72.2812ZM140.922 83.9531C142.359 83.9531 143.573 83.4479 144.562 82.4375C145.562 81.4271 146.062 80.1927 146.062 78.7344C146.062 77.2865 145.562 76.0677 144.562 75.0781C143.573 74.0781 142.349 73.5781 140.891 73.5781C139.422 73.5781 138.182 74.0781 137.172 75.0781C136.172 76.0677 135.672 77.2865 135.672 78.7344C135.672 80.1927 136.177 81.4271 137.188 82.4375C138.208 83.4479 139.453 83.9531 140.922 83.9531ZM154.125 72.2812C155.292 71.6146 156.557 71.2812 157.922 71.2812C159.286 71.2812 160.547 71.6146 161.703 72.2812C162.859 72.9375 163.776 73.8385 164.453 74.9844C165.13 76.1198 165.469 77.3594 165.469 78.7031C165.469 79.4948 165.302 80.3854 164.969 81.375C164.646 82.3542 164.182 83.3281 163.578 84.2969L157.531 94H154.781L160.375 85.2344C159.521 85.7656 158.583 86.0312 157.562 86.0312C155.531 86.0312 153.823 85.3281 152.438 83.9219C151.052 82.5156 150.359 80.776 150.359 78.7031C150.359 77.3594 150.698 76.1198 151.375 74.9844C152.052 73.8385 152.969 72.9375 154.125 72.2812ZM157.953 83.9531C159.391 83.9531 160.604 83.4479 161.594 82.4375C162.594 81.4271 163.094 80.1927 163.094 78.7344C163.094 77.2865 162.594 76.0677 161.594 75.0781C160.604 74.0781 159.38 73.5781 157.922 73.5781C156.453 73.5781 155.214 74.0781 154.203 75.0781C153.203 76.0677 152.703 77.2865 152.703 78.7344C152.703 80.1927 153.208 81.4271 154.219 82.4375C155.24 83.4479 156.484 83.9531 157.953 83.9531Z" fill="black"/>
<path opacity="0.99" d="M63.3047 88.8664C63.3047 90.819 62.5859 92.4781 61.1484 93.8438C59.7229 95.2094 57.8781 96.024 55.6141 96.2875V100.42H52.3797V96.2156C50.1156 95.8682 48.2768 94.9279 46.8633 93.3945C45.4617 91.8612 44.7609 90.0164 44.7609 87.8602H48.2648C48.2648 89.3815 48.8159 90.6214 49.918 91.5797C51.032 92.538 52.4576 93.0172 54.1945 93.0172C55.8237 93.0172 57.1594 92.6339 58.2016 91.8672C59.2557 91.0885 59.7828 90.0883 59.7828 88.8664C59.7828 88.1596 59.6151 87.5487 59.2797 87.0336C58.9443 86.5065 58.4951 86.0872 57.932 85.7758C57.369 85.4523 56.7221 85.1708 55.9914 84.9313C55.2607 84.6917 54.488 84.4701 53.6734 84.2664C52.8589 84.0628 52.0443 83.8471 51.2297 83.6195C50.4271 83.3919 49.6604 83.1044 48.9297 82.757C48.199 82.3977 47.5521 81.9784 46.9891 81.4992C46.426 81.0201 45.9768 80.3911 45.6414 79.6125C45.306 78.8339 45.1383 77.9414 45.1383 76.9352C45.1383 75.0784 45.8091 73.5091 47.1508 72.2273C48.4924 70.9456 50.2354 70.1849 52.3797 69.9453V65.8305H55.6141V70.0172C57.7943 70.3526 59.4833 71.2271 60.6812 72.6406C61.8911 74.0422 62.4961 75.7073 62.4961 77.6359H58.8664C58.8305 76.3542 58.3273 75.3 57.357 74.4734C56.3867 73.6349 55.1349 73.2156 53.6016 73.2156C52.1281 73.2156 50.9242 73.563 49.9898 74.2578C49.0555 74.9406 48.5883 75.8331 48.5883 76.9352C48.5883 77.5701 48.756 78.1271 49.0914 78.6063C49.4268 79.0734 49.876 79.4508 50.4391 79.7383C51.0141 80.0138 51.6669 80.2594 52.3977 80.475C53.1404 80.6906 53.919 80.9003 54.7336 81.1039C55.5482 81.2956 56.3568 81.5112 57.1594 81.7508C57.974 81.9784 58.7466 82.2839 59.4773 82.6672C60.2201 83.0385 60.8729 83.4818 61.4359 83.9969C62.0109 84.512 62.4661 85.1888 62.8016 86.0273C63.137 86.8539 63.3047 87.8003 63.3047 88.8664Z" fill="#37774D"/>
</g>
<g filter="url(#filter1_dddd_396_3404)">
<rect x="23" y="124" width="71.558" height="24.6587" rx="12.3293" fill="white" fill-opacity="0.75"/>
<path d="M40.7004 130.001H37.0056C36.7527 130.001 36.5377 130.185 36.4982 130.434L35.0039 139.909C34.9742 140.096 35.119 140.264 35.3086 140.264H37.0726C37.3254 140.264 37.5404 140.081 37.5799 139.831L37.9829 137.275C38.0218 137.025 38.2373 136.841 38.4896 136.841H39.6593C42.0932 136.841 43.4979 135.664 43.8648 133.33C44.03 132.308 43.8717 131.506 43.3936 130.944C42.8685 130.327 41.9371 130.001 40.7004 130.001ZM41.1267 133.461C40.9246 134.787 39.9116 134.787 38.9321 134.787H38.3746L38.7657 132.311C38.789 132.162 38.9186 132.051 39.0699 132.051H39.3254C39.9926 132.051 40.6221 132.051 40.9473 132.432C41.1413 132.659 41.2007 132.996 41.1267 133.461Z" fill="#283B82"/>
<path d="M51.745 133.418H49.9758C49.825 133.418 49.6948 133.529 49.6715 133.678L49.5933 134.173L49.4695 133.994C49.0865 133.438 48.2323 133.252 47.3798 133.252C45.4245 133.252 43.7546 134.733 43.4294 136.81C43.2603 137.846 43.5007 138.837 44.0885 139.528C44.6277 140.163 45.3991 140.428 46.3172 140.428C47.8926 140.428 48.7661 139.415 48.7661 139.415L48.6872 139.907C48.6574 140.095 48.8023 140.263 48.9909 140.263H50.5845C50.838 140.263 51.0519 140.08 51.0919 139.83L52.0481 133.774C52.0784 133.587 51.9342 133.418 51.745 133.418ZM49.2788 136.862C49.1081 137.873 48.3058 138.551 47.2826 138.551C46.7688 138.551 46.3581 138.387 46.0945 138.074C45.8331 137.764 45.7336 137.323 45.8168 136.831C45.9762 135.829 46.792 135.128 47.7995 135.128C48.302 135.128 48.7104 135.295 48.9795 135.61C49.2491 135.928 49.356 136.372 49.2788 136.862Z" fill="#283B82"/>
<path d="M61.1684 133.418H59.3904C59.2208 133.418 59.0614 133.503 58.9652 133.644L56.5129 137.256L55.4735 133.785C55.4081 133.568 55.2078 133.418 54.9808 133.418H53.2336C53.0213 133.418 52.8738 133.626 52.9413 133.826L54.8997 139.573L53.0586 142.172C52.9137 142.377 53.0596 142.659 53.3099 142.659H55.0857C55.2542 142.659 55.412 142.576 55.5075 142.438L61.4213 133.902C61.5628 133.698 61.4175 133.418 61.1684 133.418Z" fill="#283B82"/>
<path d="M67.0549 130H63.3595C63.1072 130 62.8922 130.184 62.8527 130.434L61.3584 139.908C61.3287 140.095 61.4734 140.264 61.662 140.264H63.5583C63.7344 140.264 63.8853 140.135 63.9127 139.96L64.3368 137.275C64.3757 137.025 64.5913 136.841 64.8436 136.841H66.0127C68.4471 136.841 69.8513 135.663 70.2187 133.329C70.3845 132.308 70.2252 131.506 69.747 130.944C69.2224 130.327 68.2916 130 67.0549 130ZM67.4812 133.461C67.2797 134.787 66.2667 134.787 65.2866 134.787H64.7296L65.1213 132.311C65.1446 132.161 65.2731 132.051 65.4249 132.051H65.6804C66.3472 132.051 66.9771 132.051 67.3023 132.431C67.4963 132.658 67.5552 132.995 67.4812 133.461Z" fill="#469BDB"/>
<path d="M78.0988 133.418H76.3305C76.1787 133.418 76.0495 133.529 76.0268 133.678L75.9485 134.173L75.8243 133.994C75.4412 133.438 74.5876 133.252 73.735 133.252C71.7798 133.252 70.1104 134.733 69.7852 136.81C69.6167 137.846 69.856 138.837 70.4438 139.528C70.9841 140.163 71.7544 140.428 72.6723 140.428C74.2477 140.428 75.1214 139.415 75.1214 139.415L75.0424 139.907C75.0128 140.095 75.1575 140.263 75.3472 140.263H76.9404C77.1927 140.263 77.4078 140.08 77.4472 139.83L78.404 133.774C78.4331 133.587 78.2884 133.418 78.0988 133.418ZM75.6324 136.862C75.4628 137.873 74.6594 138.551 73.6362 138.551C73.1235 138.551 72.7118 138.387 72.4481 138.074C72.1867 137.764 72.0883 137.323 72.1705 136.831C72.3309 135.829 73.1456 135.128 74.1532 135.128C74.6557 135.128 75.064 135.295 75.3331 135.61C75.6038 135.928 75.7108 136.372 75.6324 136.862Z" fill="#469BDB"/>
<path d="M80.185 130.26L78.6684 139.908C78.6388 140.095 78.7835 140.264 78.972 140.264H80.4966C80.7501 140.264 80.9651 140.08 81.004 139.83L82.4994 130.356C82.5291 130.169 82.3844 130 82.1958 130H80.4885C80.3379 130 80.2082 130.111 80.185 130.26Z" fill="#469BDB"/>
</g>
<g filter="url(#filter2_dddd_396_3404)">
<rect x="101" y="124" width="61.0784" height="24" rx="12" fill="white" fill-opacity="0.75"/>
<g clip-path="url(#clip1_396_3404)">
<path d="M129.068 141.827H126.064L127.943 130.21H130.946L129.068 141.827Z" fill="#00579F"/>
<path d="M139.956 130.495C139.363 130.26 138.424 130 137.262 130C134.296 130 132.207 131.582 132.194 133.843C132.169 135.512 133.69 136.438 134.827 136.995C135.989 137.563 136.384 137.934 136.384 138.441C136.372 139.219 135.445 139.578 134.58 139.578C133.381 139.578 132.738 139.393 131.762 138.96L131.366 138.774L130.946 141.382C131.65 141.703 132.948 141.988 134.296 142C137.447 142 139.499 140.443 139.523 138.033C139.535 136.711 138.733 135.697 137.002 134.869C135.952 134.338 135.308 133.979 135.308 133.436C135.321 132.941 135.852 132.435 137.038 132.435C138.015 132.41 138.732 132.645 139.276 132.88L139.547 133.003L139.956 130.495Z" fill="#00579F"/>
<path d="M143.948 137.712C144.195 137.044 145.147 134.461 145.147 134.461C145.135 134.486 145.394 133.782 145.542 133.349L145.752 134.35C145.752 134.35 146.321 137.131 146.444 137.712C145.975 137.712 144.541 137.712 143.948 137.712ZM147.655 130.21H145.332C144.616 130.21 144.071 130.42 143.762 131.174L139.301 141.827H142.452C142.452 141.827 142.971 140.393 143.083 140.084C143.429 140.084 146.494 140.084 146.939 140.084C147.025 140.492 147.298 141.827 147.298 141.827H150.079L147.655 130.21Z" fill="#00579F"/>
<path d="M123.555 130.21L120.613 138.132L120.292 136.525C119.748 134.671 118.042 132.657 116.139 131.656L118.833 141.814H122.01L126.731 130.21H123.555Z" fill="#00579F"/>
<path d="M117.882 130.21H113.049L113 130.445C116.77 131.409 119.266 133.733 120.292 136.526L119.241 131.187C119.068 130.445 118.537 130.235 117.882 130.21Z" fill="#FAA61A"/>
</g>
</g>
<g filter="url(#filter3_dddd_396_3404)">
<rect x="168" y="124" width="53.6471" height="24" rx="12" fill="white" fill-opacity="0.75"/>
<g clip-path="url(#clip2_396_3404)">
<path fill-rule="evenodd" clip-rule="evenodd" d="M209.487 136.332C209.487 134.254 208.481 132.615 206.558 132.615C204.627 132.615 203.458 134.254 203.458 136.315C203.458 138.757 204.838 139.99 206.817 139.99C207.783 139.99 208.513 139.772 209.065 139.463V137.84C208.513 138.116 207.88 138.286 207.077 138.286C206.29 138.286 205.592 138.01 205.503 137.053H209.47C209.47 136.947 209.486 136.526 209.486 136.331L209.487 136.332ZM205.483 135.561C205.483 134.644 206.042 134.263 206.554 134.263C207.049 134.263 207.576 134.644 207.576 135.561H205.483ZM200.331 132.616C199.535 132.616 199.025 132.989 198.74 133.249L198.634 132.746H196.846V142.206L198.874 141.776L198.883 139.48C199.175 139.691 199.605 139.991 200.319 139.991C201.771 139.991 203.094 138.826 203.094 136.251C203.086 133.898 201.747 132.615 200.327 132.615L200.331 132.616ZM199.844 138.206C199.365 138.206 199.081 138.036 198.886 137.825L198.878 134.815C199.089 134.579 199.381 134.417 199.844 134.417C200.582 134.417 201.093 135.245 201.093 136.308C201.093 137.395 200.59 138.206 199.844 138.206ZM194.055 132.137L196.092 131.7V130.053L194.055 130.483V132.137ZM194.055 132.754H196.092V139.853H194.055V132.754ZM191.872 133.354L191.743 132.754H189.99V139.854H192.018V135.042C192.497 134.417 193.308 134.531 193.56 134.62V132.754C193.3 132.657 192.351 132.478 191.872 133.354L191.872 133.354ZM187.816 130.989L185.836 131.412L185.828 137.911C185.828 139.111 186.729 139.996 187.929 139.996C188.595 139.996 189.081 139.874 189.349 139.728V138.08C189.089 138.186 187.808 138.559 187.808 137.358V134.482H189.349V132.754H187.807L187.816 130.989ZM182.331 134.811C182.331 134.494 182.591 134.373 183.021 134.373C183.722 134.388 184.411 134.566 185.032 134.892V132.989C184.359 132.721 183.694 132.616 183.021 132.616C181.373 132.616 180.278 133.476 180.278 134.912C180.278 137.152 183.362 136.795 183.362 137.761C183.362 138.134 183.037 138.255 182.583 138.255C181.909 138.255 181.049 137.979 180.368 137.606V139.537C181.122 139.861 181.885 139.995 182.583 139.995C184.27 139.995 185.431 139.16 185.431 137.707C185.423 135.29 182.331 135.72 182.331 134.811Z" fill="#6772E5"/>
</g>
</g>
<g filter="url(#filter4_dddd_396_3404)">
<rect x="23" y="154.659" width="145.314" height="26" rx="13" fill="white" fill-opacity="0.75"/>
<path d="M47.3717 162.156H41.2461V173.161H47.3717V162.156Z" fill="#FF5A00"/>
<path d="M41.6537 167.659C41.6537 165.423 42.7049 163.438 44.3178 162.156C43.1307 161.223 41.6333 160.659 40 160.659C36.1307 160.659 33 163.789 33 167.659C33 171.528 36.1307 174.659 40 174.659C41.6333 174.659 43.1307 174.095 44.3178 173.161C42.7026 171.897 41.6537 169.895 41.6537 167.659Z" fill="#EB001B"/>
<path d="M55.6357 167.659C55.6357 171.528 52.5049 174.659 48.6357 174.659C47.0023 174.659 45.5049 174.095 44.3179 173.161C45.9512 171.877 46.9819 169.895 46.9819 167.659C46.9819 165.423 45.9308 163.438 44.3179 162.156C45.5027 161.223 47.0001 160.659 48.6334 160.659C52.5049 160.659 55.6357 163.81 55.6357 167.659Z" fill="#F79E1B"/>
<path d="M79.137 172.846V167.551C79.137 165.525 77.9031 164.198 75.7848 164.198C74.7257 164.198 73.574 164.548 72.7823 165.7C72.1653 164.733 71.281 164.198 69.9545 164.198C69.0702 164.198 68.1859 164.466 67.4866 165.432V164.373H65.6357V172.846H67.4866V168.168C67.4866 166.666 68.2784 165.957 69.5123 165.957C70.7463 165.957 71.3632 166.749 71.3632 168.168V172.846H73.2141V168.168C73.2141 166.666 74.0985 165.957 75.2399 165.957C76.4738 165.957 77.0908 166.749 77.0908 168.168V172.846H79.137ZM106.592 164.373H103.589V161.813H101.739V164.373H100.062V166.049H101.739V169.936C101.739 171.88 102.53 173.021 104.649 173.021C105.44 173.021 106.325 172.754 106.942 172.404L106.407 170.81C105.872 171.16 105.255 171.252 104.813 171.252C103.929 171.252 103.579 170.718 103.579 169.844V166.049H106.582V164.373H106.592ZM122.304 164.188C121.245 164.188 120.535 164.723 120.093 165.422V164.363H118.242V172.836H120.093V168.065C120.093 166.656 120.71 165.854 121.862 165.854C122.212 165.854 122.654 165.946 123.014 166.029L123.548 164.26C123.178 164.188 122.654 164.188 122.304 164.188ZM98.5612 165.072C97.6769 164.455 96.4429 164.188 95.1165 164.188C92.9982 164.188 91.5895 165.247 91.5895 166.923C91.5895 168.332 92.6486 169.134 94.4995 169.391L95.3838 169.484C96.3504 169.659 96.8851 169.926 96.8851 170.368C96.8851 170.985 96.1756 171.427 94.9417 171.427C93.7077 171.427 92.7309 170.985 92.1139 170.543L91.2296 171.952C92.1962 172.661 93.5226 173.011 94.8491 173.011C97.317 173.011 98.736 171.859 98.736 170.275C98.736 168.774 97.5843 167.982 95.826 167.715L94.9417 167.623C94.1499 167.53 93.5329 167.355 93.5329 166.831C93.5329 166.214 94.1499 165.864 95.1267 165.864C96.1859 165.864 97.245 166.306 97.7797 166.574L98.5612 165.072ZM147.805 164.188C146.746 164.188 146.037 164.723 145.595 165.422V164.363H143.744V172.836H145.595V168.065C145.595 166.656 146.212 165.854 147.363 165.854C147.713 165.854 148.155 165.946 148.515 166.029L149.05 164.281C148.69 164.188 148.165 164.188 147.805 164.188ZM124.155 168.61C124.155 171.17 125.924 173.021 128.659 173.021C129.893 173.021 130.777 172.754 131.661 172.054L130.777 170.553C130.068 171.088 129.368 171.345 128.566 171.345C127.065 171.345 126.006 170.286 126.006 168.61C126.006 167.016 127.065 165.957 128.566 165.874C129.358 165.874 130.068 166.142 130.777 166.666L131.661 165.165C130.777 164.455 129.893 164.198 128.659 164.198C125.924 164.188 124.155 166.049 124.155 168.61ZM141.276 168.61V164.373H139.425V165.432C138.808 164.641 137.924 164.198 136.772 164.198C134.386 164.198 132.535 166.049 132.535 168.61C132.535 171.17 134.386 173.021 136.772 173.021C138.006 173.021 138.89 172.579 139.425 171.787V172.846H141.276V168.61ZM134.479 168.61C134.479 167.108 135.446 165.874 137.039 165.874C138.541 165.874 139.6 167.026 139.6 168.61C139.6 170.111 138.541 171.345 137.039 171.345C135.456 171.252 134.479 170.101 134.479 168.61ZM112.33 164.188C109.862 164.188 108.093 165.957 108.093 168.599C108.093 171.252 109.862 173.011 112.422 173.011C113.656 173.011 114.89 172.661 115.867 171.859L114.983 170.533C114.273 171.067 113.389 171.417 112.515 171.417C111.363 171.417 110.222 170.882 109.955 169.391H116.217C116.217 169.124 116.217 168.949 116.217 168.682C116.299 165.957 114.705 164.188 112.33 164.188ZM112.33 165.782C113.482 165.782 114.273 166.491 114.448 167.808H110.037C110.212 166.666 111.003 165.782 112.33 165.782ZM158.314 168.61V161.021H156.464V165.432C155.847 164.641 154.962 164.198 153.811 164.198C151.425 164.198 149.574 166.049 149.574 168.61C149.574 171.17 151.425 173.021 153.811 173.021C155.044 173.021 155.929 172.579 156.464 171.787V172.846H158.314V168.61ZM151.517 168.61C151.517 167.108 152.484 165.874 154.078 165.874C155.579 165.874 156.638 167.026 156.638 168.61C156.638 170.111 155.579 171.345 154.078 171.345C152.484 171.252 151.517 170.101 151.517 168.61ZM89.5535 168.61V164.373H87.7026V165.432C87.0856 164.641 86.2013 164.198 85.0496 164.198C82.664 164.198 80.8131 166.049 80.8131 168.61C80.8131 171.17 82.664 173.021 85.0496 173.021C86.2836 173.021 87.1679 172.579 87.7026 171.787V172.846H89.5535V168.61ZM82.6743 168.61C82.6743 167.108 83.6409 165.874 85.2347 165.874C86.736 165.874 87.7951 167.026 87.7951 168.61C87.7951 170.111 86.736 171.345 85.2347 171.345C83.6409 171.252 82.6743 170.101 82.6743 168.61Z" fill="black"/>
</g>
<g filter="url(#filter5_dddd_396_3404)">
<rect x="173" y="155" width="49.2335" height="24" rx="12" fill="white" fill-opacity="0.75"/>
<path d="M188.344 162.547C188.676 162.127 188.908 161.575 188.841 161C188.355 161.022 187.759 161.32 187.416 161.74C187.107 162.094 186.83 162.68 186.908 163.232C187.449 163.276 188.002 162.956 188.344 162.547Z" fill="#010202"/>
<path d="M188.83 163.331C188.035 163.287 187.361 163.784 186.985 163.784C186.609 163.784 186.024 163.353 185.394 163.365C184.576 163.376 183.814 163.84 183.405 164.58C182.554 166.05 183.184 168.237 184.013 169.431C184.421 170.028 184.908 170.679 185.537 170.657C186.145 170.635 186.377 170.271 187.117 170.271C187.858 170.271 188.068 170.657 188.709 170.646C189.372 170.635 189.792 170.05 190.189 169.464C190.653 168.79 190.841 168.138 190.852 168.094C190.841 168.083 189.571 167.597 189.559 166.138C189.548 164.912 190.554 164.337 190.609 164.293C190.035 163.453 189.14 163.353 188.83 163.331Z" fill="#010202"/>
<path d="M196.764 161.674C198.488 161.674 199.692 162.868 199.692 164.602C199.692 166.348 198.466 167.542 196.72 167.542H194.808V170.58H193.427V161.674H196.764ZM194.808 166.381H196.4C197.604 166.381 198.289 165.73 198.289 164.614C198.289 163.486 197.604 162.846 196.411 162.846H194.82C194.808 162.846 194.808 166.381 194.808 166.381Z" fill="#010202"/>
<path d="M200.035 168.735C200.035 167.597 200.908 166.934 202.51 166.845L204.234 166.746V166.249C204.234 165.53 203.759 165.133 202.908 165.133C202.212 165.133 201.704 165.486 201.604 166.039H200.356C200.389 164.89 201.483 164.05 202.952 164.05C204.532 164.05 205.56 164.879 205.56 166.16V170.591H204.278V169.519H204.245C203.88 170.216 203.074 170.658 202.212 170.658C200.93 170.646 200.035 169.884 200.035 168.735ZM204.234 168.16V167.663L202.698 167.763C201.836 167.818 201.383 168.138 201.383 168.702C201.383 169.243 201.847 169.597 202.588 169.597C203.527 169.597 204.234 169 204.234 168.16Z" fill="#010202"/>
<path d="M206.731 172.967V171.895C206.82 171.906 207.03 171.917 207.14 171.917C207.748 171.917 208.101 171.663 208.311 170.989L208.433 170.591L206.09 164.116H207.538L209.162 169.376H209.195L210.82 164.116H212.234L209.803 170.923C209.251 172.481 208.61 173 207.262 173C207.162 173 206.831 172.989 206.731 172.967Z" fill="#010202"/>
</g>
</g>
<defs>
<filter id="filter0_dddd_396_3404" x="13" y="13" width="317" height="217" filterUnits="userSpaceOnUse" color-interpolation-filters="sRGB">
<feFlood flood-opacity="0" result="BackgroundImageFix"/>
<feColorMatrix in="SourceAlpha" type="matrix" values="0 0 0 0 0 0 0 0 0 0 0 0 0 0 0 0 0 0 127 0" result="hardAlpha"/>
<feOffset dx="4" dy="5"/>
<feGaussianBlur stdDeviation="7"/>
<feColorMatrix type="matrix" values="0 0 0 0 0 0 0 0 0 0 0 0 0 0 0 0 0 0 0.1 0"/>
<feBlend mode="normal" in2="BackgroundImageFix" result="effect1_dropShadow_396_3404"/>
<feColorMatrix in="SourceAlpha" type="matrix" values="0 0 0 0 0 0 0 0 0 0 0 0 0 0 0 0 0 0 127 0" result="hardAlpha"/>
<feOffset dx="17" dy="19"/>
<feGaussianBlur stdDeviation="12.5"/>
<feColorMatrix type="matrix" values="0 0 0 0 0 0 0 0 0 0 0 0 0 0 0 0 0 0 0.09 0"/>
<feBlend mode="normal" in2="effect1_dropShadow_396_3404" result="effect2_dropShadow_396_3404"/>
<feColorMatrix in="SourceAlpha" type="matrix" values="0 0 0 0 0 0 0 0 0 0 0 0 0 0 0 0 0 0 127 0" result="hardAlpha"/>
<feOffset dx="38" dy="42"/>
<feGaussianBlur stdDeviation="17"/>
<feColorMatrix type="matrix" values="0 0 0 0 0 0 0 0 0 0 0 0 0 0 0 0 0 0 0.05 0"/>
<feBlend mode="normal" in2="effect2_dropShadow_396_3404" result="effect3_dropShadow_396_3404"/>
<feColorMatrix in="SourceAlpha" type="matrix" values="0 0 0 0 0 0 0 0 0 0 0 0 0 0 0 0 0 0 127 0" result="hardAlpha"/>
<feOffset dx="68" dy="75"/>
<feGaussianBlur stdDeviation="20.5"/>
<feColorMatrix type="matrix" values="0 0 0 0 0 0 0 0 0 0 0 0 0 0 0 0 0 0 0.01 0"/>
<feBlend mode="normal" in2="effect3_dropShadow_396_3404" result="effect4_dropShadow_396_3404"/>
<feBlend mode="normal" in="SourceGraphic" in2="effect4_dropShadow_396_3404" result="shape"/>
</filter>
<filter id="filter1_dddd_396_3404" x="18.1016" y="119.102" width="121.767" height="79.7656" filterUnits="userSpaceOnUse" color-interpolation-filters="sRGB">
<feFlood flood-opacity="0" result="BackgroundImageFix"/>
<feColorMatrix in="SourceAlpha" type="matrix" values="0 0 0 0 0 0 0 0 0 0 0 0 0 0 0 0 0 0 127 0" result="hardAlpha"/>
<feOffset dx="1.2246" dy="2.4492"/>
<feGaussianBlur stdDeviation="3.0615"/>
<feColorMatrix type="matrix" values="0 0 0 0 0.25098 0 0 0 0 0.25098 0 0 0 0 0.25098 0 0 0 0.1 0"/>
<feBlend mode="normal" in2="BackgroundImageFix" result="effect1_dropShadow_396_3404"/>
<feColorMatrix in="SourceAlpha" type="matrix" values="0 0 0 0 0 0 0 0 0 0 0 0 0 0 0 0 0 0 127 0" result="hardAlpha"/>
<feOffset dx="7.34759" dy="8.57219"/>
<feGaussianBlur stdDeviation="5.51069"/>
<feColorMatrix type="matrix" values="0 0 0 0 0.25098 0 0 0 0 0.25098 0 0 0 0 0.25098 0 0 0 0.09 0"/>
<feBlend mode="normal" in2="effect1_dropShadow_396_3404" result="effect2_dropShadow_396_3404"/>
<feColorMatrix in="SourceAlpha" type="matrix" values="0 0 0 0 0 0 0 0 0 0 0 0 0 0 0 0 0 0 127 0" result="hardAlpha"/>
<feOffset dx="15.9198" dy="18.369"/>
<feGaussianBlur stdDeviation="7.34759"/>
<feColorMatrix type="matrix" values="0 0 0 0 0.25098 0 0 0 0 0.25098 0 0 0 0 0.25098 0 0 0 0.05 0"/>
<feBlend mode="normal" in2="effect2_dropShadow_396_3404" result="effect3_dropShadow_396_3404"/>
<feColorMatrix in="SourceAlpha" type="matrix" values="0 0 0 0 0 0 0 0 0 0 0 0 0 0 0 0 0 0 127 0" result="hardAlpha"/>
<feOffset dx="28.1658" dy="33.0642"/>
<feGaussianBlur stdDeviation="8.57219"/>
<feColorMatrix type="matrix" values="0 0 0 0 0.25098 0 0 0 0 0.25098 0 0 0 0 0.25098 0 0 0 0.01 0"/>
<feBlend mode="normal" in2="effect3_dropShadow_396_3404" result="effect4_dropShadow_396_3404"/>
<feBlend mode="normal" in="SourceGraphic" in2="effect4_dropShadow_396_3404" result="shape"/>
</filter>
<filter id="filter2_dddd_396_3404" x="96.1016" y="119.102" width="111.287" height="79.107" filterUnits="userSpaceOnUse" color-interpolation-filters="sRGB">
<feFlood flood-opacity="0" result="BackgroundImageFix"/>
<feColorMatrix in="SourceAlpha" type="matrix" values="0 0 0 0 0 0 0 0 0 0 0 0 0 0 0 0 0 0 127 0" result="hardAlpha"/>
<feOffset dx="1.2246" dy="2.4492"/>
<feGaussianBlur stdDeviation="3.0615"/>
<feColorMatrix type="matrix" values="0 0 0 0 0.25098 0 0 0 0 0.25098 0 0 0 0 0.25098 0 0 0 0.1 0"/>
<feBlend mode="normal" in2="BackgroundImageFix" result="effect1_dropShadow_396_3404"/>
<feColorMatrix in="SourceAlpha" type="matrix" values="0 0 0 0 0 0 0 0 0 0 0 0 0 0 0 0 0 0 127 0" result="hardAlpha"/>
<feOffset dx="7.34759" dy="8.57219"/>
<feGaussianBlur stdDeviation="5.51069"/>
<feColorMatrix type="matrix" values="0 0 0 0 0.25098 0 0 0 0 0.25098 0 0 0 0 0.25098 0 0 0 0.09 0"/>
<feBlend mode="normal" in2="effect1_dropShadow_396_3404" result="effect2_dropShadow_396_3404"/>
<feColorMatrix in="SourceAlpha" type="matrix" values="0 0 0 0 0 0 0 0 0 0 0 0 0 0 0 0 0 0 127 0" result="hardAlpha"/>
<feOffset dx="15.9198" dy="18.369"/>
<feGaussianBlur stdDeviation="7.34759"/>
<feColorMatrix type="matrix" values="0 0 0 0 0.25098 0 0 0 0 0.25098 0 0 0 0 0.25098 0 0 0 0.05 0"/>
<feBlend mode="normal" in2="effect2_dropShadow_396_3404" result="effect3_dropShadow_396_3404"/>
<feColorMatrix in="SourceAlpha" type="matrix" values="0 0 0 0 0 0 0 0 0 0 0 0 0 0 0 0 0 0 127 0" result="hardAlpha"/>
<feOffset dx="28.1658" dy="33.0642"/>
<feGaussianBlur stdDeviation="8.57219"/>
<feColorMatrix type="matrix" values="0 0 0 0 0.25098 0 0 0 0 0.25098 0 0 0 0 0.25098 0 0 0 0.01 0"/>
<feBlend mode="normal" in2="effect3_dropShadow_396_3404" result="effect4_dropShadow_396_3404"/>
<feBlend mode="normal" in="SourceGraphic" in2="effect4_dropShadow_396_3404" result="shape"/>
</filter>
<filter id="filter3_dddd_396_3404" x="163.102" y="119.102" width="103.856" height="79.107" filterUnits="userSpaceOnUse" color-interpolation-filters="sRGB">
<feFlood flood-opacity="0" result="BackgroundImageFix"/>
<feColorMatrix in="SourceAlpha" type="matrix" values="0 0 0 0 0 0 0 0 0 0 0 0 0 0 0 0 0 0 127 0" result="hardAlpha"/>
<feOffset dx="1.2246" dy="2.4492"/>
<feGaussianBlur stdDeviation="3.0615"/>
<feColorMatrix type="matrix" values="0 0 0 0 0.25098 0 0 0 0 0.25098 0 0 0 0 0.25098 0 0 0 0.1 0"/>
<feBlend mode="normal" in2="BackgroundImageFix" result="effect1_dropShadow_396_3404"/>
<feColorMatrix in="SourceAlpha" type="matrix" values="0 0 0 0 0 0 0 0 0 0 0 0 0 0 0 0 0 0 127 0" result="hardAlpha"/>
<feOffset dx="7.34759" dy="8.57219"/>
<feGaussianBlur stdDeviation="5.51069"/>
<feColorMatrix type="matrix" values="0 0 0 0 0.25098 0 0 0 0 0.25098 0 0 0 0 0.25098 0 0 0 0.09 0"/>
<feBlend mode="normal" in2="effect1_dropShadow_396_3404" result="effect2_dropShadow_396_3404"/>
<feColorMatrix in="SourceAlpha" type="matrix" values="0 0 0 0 0 0 0 0 0 0 0 0 0 0 0 0 0 0 127 0" result="hardAlpha"/>
<feOffset dx="15.9198" dy="18.369"/>
<feGaussianBlur stdDeviation="7.34759"/>
<feColorMatrix type="matrix" values="0 0 0 0 0.25098 0 0 0 0 0.25098 0 0 0 0 0.25098 0 0 0 0.05 0"/>
<feBlend mode="normal" in2="effect2_dropShadow_396_3404" result="effect3_dropShadow_396_3404"/>
<feColorMatrix in="SourceAlpha" type="matrix" values="0 0 0 0 0 0 0 0 0 0 0 0 0 0 0 0 0 0 127 0" result="hardAlpha"/>
<feOffset dx="28.1658" dy="33.0642"/>
<feGaussianBlur stdDeviation="8.57219"/>
<feColorMatrix type="matrix" values="0 0 0 0 0.25098 0 0 0 0 0.25098 0 0 0 0 0.25098 0 0 0 0.01 0"/>
<feBlend mode="normal" in2="effect3_dropShadow_396_3404" result="effect4_dropShadow_396_3404"/>
<feBlend mode="normal" in="SourceGraphic" in2="effect4_dropShadow_396_3404" result="shape"/>
</filter>
<filter id="filter4_dddd_396_3404" x="18.1016" y="149.76" width="195.523" height="81.107" filterUnits="userSpaceOnUse" color-interpolation-filters="sRGB">
<feFlood flood-opacity="0" result="BackgroundImageFix"/>
<feColorMatrix in="SourceAlpha" type="matrix" values="0 0 0 0 0 0 0 0 0 0 0 0 0 0 0 0 0 0 127 0" result="hardAlpha"/>
<feOffset dx="1.2246" dy="2.4492"/>
<feGaussianBlur stdDeviation="3.0615"/>
<feColorMatrix type="matrix" values="0 0 0 0 0.25098 0 0 0 0 0.25098 0 0 0 0 0.25098 0 0 0 0.1 0"/>
<feBlend mode="normal" in2="BackgroundImageFix" result="effect1_dropShadow_396_3404"/>
<feColorMatrix in="SourceAlpha" type="matrix" values="0 0 0 0 0 0 0 0 0 0 0 0 0 0 0 0 0 0 127 0" result="hardAlpha"/>
<feOffset dx="7.34759" dy="8.57219"/>
<feGaussianBlur stdDeviation="5.51069"/>
<feColorMatrix type="matrix" values="0 0 0 0 0.25098 0 0 0 0 0.25098 0 0 0 0 0.25098 0 0 0 0.09 0"/>
<feBlend mode="normal" in2="effect1_dropShadow_396_3404" result="effect2_dropShadow_396_3404"/>
<feColorMatrix in="SourceAlpha" type="matrix" values="0 0 0 0 0 0 0 0 0 0 0 0 0 0 0 0 0 0 127 0" result="hardAlpha"/>
<feOffset dx="15.9198" dy="18.369"/>
<feGaussianBlur stdDeviation="7.34759"/>
<feColorMatrix type="matrix" values="0 0 0 0 0.25098 0 0 0 0 0.25098 0 0 0 0 0.25098 0 0 0 0.05 0"/>
<feBlend mode="normal" in2="effect2_dropShadow_396_3404" result="effect3_dropShadow_396_3404"/>
<feColorMatrix in="SourceAlpha" type="matrix" values="0 0 0 0 0 0 0 0 0 0 0 0 0 0 0 0 0 0 127 0" result="hardAlpha"/>
<feOffset dx="28.1658" dy="33.0642"/>
<feGaussianBlur stdDeviation="8.57219"/>
<feColorMatrix type="matrix" values="0 0 0 0 0.25098 0 0 0 0 0.25098 0 0 0 0 0.25098 0 0 0 0.01 0"/>
<feBlend mode="normal" in2="effect3_dropShadow_396_3404" result="effect4_dropShadow_396_3404"/>
<feBlend mode="normal" in="SourceGraphic" in2="effect4_dropShadow_396_3404" result="shape"/>
</filter>
<filter id="filter5_dddd_396_3404" x="168.102" y="150.102" width="99.442" height="79.107" filterUnits="userSpaceOnUse" color-interpolation-filters="sRGB">
<feFlood flood-opacity="0" result="BackgroundImageFix"/>
<feColorMatrix in="SourceAlpha" type="matrix" values="0 0 0 0 0 0 0 0 0 0 0 0 0 0 0 0 0 0 127 0" result="hardAlpha"/>
<feOffset dx="1.2246" dy="2.4492"/>
<feGaussianBlur stdDeviation="3.0615"/>
<feColorMatrix type="matrix" values="0 0 0 0 0.25098 0 0 0 0 0.25098 0 0 0 0 0.25098 0 0 0 0.1 0"/>
<feBlend mode="normal" in2="BackgroundImageFix" result="effect1_dropShadow_396_3404"/>
<feColorMatrix in="SourceAlpha" type="matrix" values="0 0 0 0 0 0 0 0 0 0 0 0 0 0 0 0 0 0 127 0" result="hardAlpha"/>
<feOffset dx="7.34759" dy="8.57219"/>
<feGaussianBlur stdDeviation="5.51069"/>
<feColorMatrix type="matrix" values="0 0 0 0 0.25098 0 0 0 0 0.25098 0 0 0 0 0.25098 0 0 0 0.09 0"/>
<feBlend mode="normal" in2="effect1_dropShadow_396_3404" result="effect2_dropShadow_396_3404"/>
<feColorMatrix in="SourceAlpha" type="matrix" values="0 0 0 0 0 0 0 0 0 0 0 0 0 0 0 0 0 0 127 0" result="hardAlpha"/>
<feOffset dx="15.9198" dy="18.369"/>
<feGaussianBlur stdDeviation="7.34759"/>
<feColorMatrix type="matrix" values="0 0 0 0 0.25098 0 0 0 0 0.25098 0 0 0 0 0.25098 0 0 0 0.05 0"/>
<feBlend mode="normal" in2="effect2_dropShadow_396_3404" result="effect3_dropShadow_396_3404"/>
<feColorMatrix in="SourceAlpha" type="matrix" values="0 0 0 0 0 0 0 0 0 0 0 0 0 0 0 0 0 0 127 0" result="hardAlpha"/>
<feOffset dx="28.1658" dy="33.0642"/>
<feGaussianBlur stdDeviation="8.57219"/>
<feColorMatrix type="matrix" values="0 0 0 0 0.25098 0 0 0 0 0.25098 0 0 0 0 0.25098 0 0 0 0.01 0"/>
<feBlend mode="normal" in2="effect3_dropShadow_396_3404" result="effect4_dropShadow_396_3404"/>
<feBlend mode="normal" in="SourceGraphic" in2="effect4_dropShadow_396_3404" result="shape"/>
</filter>
<clipPath id="clip0_396_3404">
<rect width="246" height="202" rx="20" fill="white"/>
</clipPath>
<clipPath id="clip1_396_3404">
<rect width="37.0784" height="12" fill="white" transform="translate(113 130)"/>
</clipPath>
<clipPath id="clip2_396_3404">
<rect width="29.6471" height="12" fill="white" transform="translate(180 130)"/>
</clipPath>
</defs>
</svg>
