<svg width="334" height="202" viewBox="0 0 334 202" fill="none" xmlns="http://www.w3.org/2000/svg">
<g clip-path="url(#clip0_396_3544)">
<rect width="334" height="202" rx="20" fill="#FFC08A"/>
<g filter="url(#filter0_dddd_396_3544)">
<rect x="24" y="24" width="208" height="120.128" rx="16" fill="white"/>
<rect x="24.5561" y="24.5561" width="206.888" height="119.016" rx="15.4439" stroke="black" stroke-opacity="0.1" stroke-width="1.1123"/>
<g clip-path="url(#clip1_396_3544)">
<path d="M25.2214 135.031C9.27771 135.031 4.15293 140.343 -3.24951 146.62H319.042C319.042 146.62 397.621 87.7077 373.706 87.7077C349.79 87.2248 338.971 66.4606 319.042 66.4606C299.112 66.4606 292.848 103.16 270.641 103.16C248.434 103.16 243.309 46.6622 220.532 47.628C197.755 48.5937 188.645 68.875 165.298 75.1526C141.952 81.4302 147.143 136.571 124.366 137.537C101.589 138.503 91.8435 100.746 69.0667 103.16C46.2899 105.575 41.1652 135.031 25.2214 135.031Z" fill="#008000" fill-opacity="0.1" stroke="#008000" stroke-width="1.81659" stroke-linecap="round" stroke-linejoin="round"/>
</g>
<path d="M41.4751 40.8125H42.6424L45.2378 44.7553L47.796 40.8125H48.926L45.7097 45.7239V49.7163H44.7411V45.7239L41.4751 40.8125ZM54.1665 46.4379C54.1665 46.6242 54.1623 46.7422 54.154 46.7918H48.9757C49.0212 47.4541 49.2489 47.9881 49.6587 48.3938C50.0685 48.7994 50.5962 49.0023 51.242 49.0023C51.7387 49.0023 52.1651 48.8905 52.521 48.667C52.8812 48.4393 53.1026 48.1371 53.1854 47.7605H54.1168C53.9967 48.3855 53.6697 48.8884 53.1357 49.2693C52.6018 49.6501 51.9622 49.8405 51.2171 49.8405C50.3189 49.8405 49.5676 49.53 48.9633 48.9091C48.363 48.2882 48.0629 47.5142 48.0629 46.5869C48.0629 45.697 48.3672 44.9457 48.9757 44.3331C49.5842 43.7163 50.3272 43.4079 51.2047 43.4079C51.7553 43.4079 52.2561 43.5383 52.7073 43.7991C53.1585 44.0557 53.5145 44.4158 53.7753 44.8795C54.0361 45.3431 54.1665 45.8626 54.1665 46.4379ZM49.0191 46.0033H53.173C53.1275 45.49 52.9184 45.0699 52.5459 44.7429C52.1775 44.4117 51.718 44.2461 51.1675 44.2461C50.6211 44.2461 50.1533 44.4055 49.7642 44.7242C49.3751 45.043 49.1268 45.4693 49.0191 46.0033ZM60.6115 43.5383H61.5428V49.7163H60.6115V48.282C60.3838 48.7787 60.0526 49.1637 59.618 49.4369C59.1875 49.706 58.6804 49.8405 58.0968 49.8405C57.538 49.8405 57.0226 49.6977 56.5507 49.4121C56.083 49.1264 55.7125 48.7353 55.4393 48.2386C55.1661 47.7418 55.0295 47.1996 55.0295 46.6118C55.0295 46.024 55.1661 45.4838 55.4393 44.9912C55.7125 44.4986 56.083 44.1116 56.5507 43.8301C57.0226 43.5486 57.538 43.4079 58.0968 43.4079C58.6804 43.4079 59.1896 43.5445 59.6242 43.8177C60.0588 44.0868 60.3879 44.4676 60.6115 44.9602V43.5383ZM58.2706 48.965C58.9454 48.965 59.5042 48.7436 59.9471 48.3006C60.39 47.8536 60.6115 47.2906 60.6115 46.6118C60.6115 45.9371 60.39 45.3782 59.9471 44.9353C59.5042 44.4924 58.9454 44.271 58.2706 44.271C57.6166 44.271 57.064 44.4986 56.6128 44.954C56.1658 45.4093 55.9422 45.9619 55.9422 46.6118C55.9422 47.2741 56.1658 47.8329 56.6128 48.2882C57.064 48.7394 57.6166 48.965 58.2706 48.965ZM65.9885 43.4079C66.1499 43.4079 66.3424 43.4327 66.5659 43.4824V44.3517C66.3631 44.2813 66.1624 44.2461 65.9637 44.2461C65.4794 44.2461 65.0716 44.4179 64.7405 44.7615C64.4135 45.1009 64.25 45.5314 64.25 46.053V49.7163H63.3186V43.5383H64.25V44.5255C64.4321 44.1778 64.6743 43.9046 64.9764 43.7059C65.2786 43.5072 65.616 43.4079 65.9885 43.4079ZM68.6708 40.8125V49.7163H67.7395V40.8125H68.6708ZM74.8364 43.5383H75.8299L72.2534 52.0571H71.26L72.328 49.6045L69.776 43.5383H70.7819L72.7998 48.518L74.8364 43.5383ZM80.1265 49.7163V40.8125H83.2124C83.9079 40.8125 84.5019 41.0319 84.9944 41.4707C85.487 41.9053 85.7333 42.4289 85.7333 43.0416C85.7333 43.5176 85.5884 43.944 85.2987 44.3206C85.0089 44.6973 84.6488 44.9271 84.2183 45.0098C84.7771 45.0678 85.2469 45.312 85.6278 45.7425C86.0127 46.173 86.2052 46.6801 86.2052 47.2637C86.2052 47.9467 85.9506 48.5262 85.4415 49.0023C84.9365 49.4783 84.3218 49.7163 83.5974 49.7163H80.1265ZM81.0765 44.6932H83.1876C83.6264 44.6932 83.9989 44.5462 84.3052 44.2523C84.6115 43.9543 84.7647 43.5921 84.7647 43.1657C84.7647 42.7684 84.6095 42.431 84.299 42.1537C83.9927 41.8722 83.6222 41.7315 83.1876 41.7315H81.0765V44.6932ZM81.0765 48.8036H83.5477C84.0279 48.8036 84.4273 48.6442 84.7461 48.3255C85.0648 48.0067 85.2242 47.6135 85.2242 47.1458C85.2242 46.6821 85.0627 46.291 84.7399 45.9722C84.4211 45.6535 84.0279 45.4941 83.5601 45.4941H81.0765V48.8036ZM92.2404 43.5383H93.1718V49.7163H92.2404V48.518C92.0417 48.936 91.7602 49.261 91.396 49.4928C91.0359 49.7246 90.6136 49.8405 90.1293 49.8405C89.3346 49.8405 88.7012 49.5921 88.2294 49.0954C87.7575 48.5987 87.5215 47.9322 87.5215 47.0961V43.5383H88.4529V46.9967C88.4529 47.5969 88.6226 48.075 88.962 48.431C89.3015 48.787 89.7547 48.965 90.3218 48.965C90.9055 48.965 91.3711 48.787 91.7188 48.431C92.0666 48.075 92.2404 47.5969 92.2404 46.9967V43.5383ZM100.163 40.8125H101.095V49.7163H100.163V48.282C99.9355 48.7787 99.6044 49.1637 99.1697 49.4369C98.7392 49.706 98.2322 49.8405 97.6485 49.8405C97.0897 49.8405 96.5743 49.6977 96.1025 49.4121C95.6347 49.1264 95.2642 48.7353 94.991 48.2386C94.7178 47.7418 94.5812 47.1996 94.5812 46.6118C94.5812 46.024 94.7178 45.4838 94.991 44.9912C95.2642 44.4986 95.6347 44.1116 96.1025 43.8301C96.5743 43.5486 97.0897 43.4079 97.6485 43.4079C98.2322 43.4079 98.7413 43.5445 99.1759 43.8177C99.6106 44.0868 99.9397 44.4676 100.163 44.9602V40.8125ZM97.8224 48.965C98.4971 48.965 99.0559 48.7436 99.4988 48.3006C99.9417 47.8536 100.163 47.2906 100.163 46.6118C100.163 45.9371 99.9417 45.3782 99.4988 44.9353C99.0559 44.4924 98.4971 44.271 97.8224 44.271C97.1683 44.271 96.6157 44.4986 96.1645 44.954C95.7175 45.4093 95.494 45.9619 95.494 46.6118C95.494 47.2741 95.7175 47.8329 96.1645 48.2882C96.6157 48.7394 97.1683 48.965 97.8224 48.965ZM107.9 43.5259H108.831V49.5238C108.831 50.3724 108.543 51.0554 107.968 51.5728C107.393 52.0902 106.654 52.349 105.751 52.349C105.395 52.349 105.05 52.3034 104.714 52.2124C104.379 52.1254 104.067 51.9971 103.777 51.8274C103.491 51.6577 103.257 51.4279 103.075 51.1382C102.897 50.8526 102.802 50.5276 102.79 50.1634H103.69C103.702 50.5856 103.903 50.9229 104.292 51.1754C104.681 51.4321 105.159 51.5604 105.726 51.5604C106.356 51.5604 106.875 51.3741 107.285 51.0016C107.695 50.6332 107.9 50.153 107.9 49.5611V48.2013C107.672 48.6897 107.341 49.0685 106.906 49.3376C106.476 49.6066 105.969 49.7411 105.385 49.7411C104.826 49.7411 104.311 49.6004 103.839 49.3189C103.371 49.0375 103.001 48.6525 102.728 48.164C102.454 47.6756 102.318 47.1416 102.318 46.5621C102.318 45.9867 102.454 45.4569 102.728 44.9726C103.001 44.4883 103.371 44.1075 103.839 43.8301C104.311 43.5486 104.826 43.4079 105.385 43.4079C105.969 43.4079 106.476 43.5424 106.906 43.8115C107.341 44.0764 107.672 44.451 107.9 44.9353V43.5259ZM105.559 48.8781C106.234 48.8781 106.792 48.6608 107.235 48.2261C107.678 47.7874 107.9 47.2327 107.9 46.5621C107.9 45.8998 107.678 45.3513 107.235 44.9167C106.792 44.4779 106.234 44.2585 105.559 44.2585C104.905 44.2585 104.352 44.4821 103.901 44.9291C103.454 45.372 103.23 45.9164 103.23 46.5621C103.23 47.212 103.454 47.7605 103.901 48.2075C104.352 48.6546 104.905 48.8781 105.559 48.8781ZM116.344 46.4379C116.344 46.6242 116.34 46.7422 116.332 46.7918H111.153C111.199 47.4541 111.426 47.9881 111.836 48.3938C112.246 48.7994 112.774 49.0023 113.42 49.0023C113.916 49.0023 114.343 48.8905 114.699 48.667C115.059 48.4393 115.28 48.1371 115.363 47.7605H116.294C116.174 48.3855 115.847 48.8884 115.313 49.2693C114.779 49.6501 114.14 49.8405 113.395 49.8405C112.496 49.8405 111.745 49.53 111.141 48.9091C110.541 48.2882 110.24 47.5142 110.24 46.5869C110.24 45.697 110.545 44.9457 111.153 44.3331C111.762 43.7163 112.505 43.4079 113.382 43.4079C113.933 43.4079 114.434 43.5383 114.885 43.7991C115.336 44.0557 115.692 44.4158 115.953 44.8795C116.214 45.3431 116.344 45.8626 116.344 46.4379ZM111.197 46.0033H115.351C115.305 45.49 115.096 45.0699 114.723 44.7429C114.355 44.4117 113.896 44.2461 113.345 44.2461C112.799 44.2461 112.331 44.4055 111.942 44.7242C111.553 45.043 111.304 45.4693 111.197 46.0033ZM120.715 44.4014H118.989V47.6301C118.989 48.4869 119.422 48.9153 120.287 48.9153C120.461 48.9153 120.603 48.8988 120.715 48.8657V49.7163C120.529 49.7577 120.33 49.7784 120.119 49.7784C119.473 49.7784 118.968 49.6004 118.604 49.2444C118.24 48.8843 118.058 48.3503 118.058 47.6425V44.4014H116.841V43.5383H118.058V41.8308H118.989V43.5383H120.715V44.4014Z" fill="#444444"/>
<path d="M41.4751 40.8125H42.6424L45.2378 44.7553L47.796 40.8125H48.926L45.7097 45.7239V49.7163H44.7411V45.7239L41.4751 40.8125ZM54.1665 46.4379C54.1665 46.6242 54.1623 46.7422 54.154 46.7918H48.9757C49.0212 47.4541 49.2489 47.9881 49.6587 48.3938C50.0685 48.7994 50.5962 49.0023 51.242 49.0023C51.7387 49.0023 52.1651 48.8905 52.521 48.667C52.8812 48.4393 53.1026 48.1371 53.1854 47.7605H54.1168C53.9967 48.3855 53.6697 48.8884 53.1357 49.2693C52.6018 49.6501 51.9622 49.8405 51.2171 49.8405C50.3189 49.8405 49.5676 49.53 48.9633 48.9091C48.363 48.2882 48.0629 47.5142 48.0629 46.5869C48.0629 45.697 48.3672 44.9457 48.9757 44.3331C49.5842 43.7163 50.3272 43.4079 51.2047 43.4079C51.7553 43.4079 52.2561 43.5383 52.7073 43.7991C53.1585 44.0557 53.5145 44.4158 53.7753 44.8795C54.0361 45.3431 54.1665 45.8626 54.1665 46.4379ZM49.0191 46.0033H53.173C53.1275 45.49 52.9184 45.0699 52.5459 44.7429C52.1775 44.4117 51.718 44.2461 51.1675 44.2461C50.6211 44.2461 50.1533 44.4055 49.7642 44.7242C49.3751 45.043 49.1268 45.4693 49.0191 46.0033ZM60.6115 43.5383H61.5428V49.7163H60.6115V48.282C60.3838 48.7787 60.0526 49.1637 59.618 49.4369C59.1875 49.706 58.6804 49.8405 58.0968 49.8405C57.538 49.8405 57.0226 49.6977 56.5507 49.4121C56.083 49.1264 55.7125 48.7353 55.4393 48.2386C55.1661 47.7418 55.0295 47.1996 55.0295 46.6118C55.0295 46.024 55.1661 45.4838 55.4393 44.9912C55.7125 44.4986 56.083 44.1116 56.5507 43.8301C57.0226 43.5486 57.538 43.4079 58.0968 43.4079C58.6804 43.4079 59.1896 43.5445 59.6242 43.8177C60.0588 44.0868 60.3879 44.4676 60.6115 44.9602V43.5383ZM58.2706 48.965C58.9454 48.965 59.5042 48.7436 59.9471 48.3006C60.39 47.8536 60.6115 47.2906 60.6115 46.6118C60.6115 45.9371 60.39 45.3782 59.9471 44.9353C59.5042 44.4924 58.9454 44.271 58.2706 44.271C57.6166 44.271 57.064 44.4986 56.6128 44.954C56.1658 45.4093 55.9422 45.9619 55.9422 46.6118C55.9422 47.2741 56.1658 47.8329 56.6128 48.2882C57.064 48.7394 57.6166 48.965 58.2706 48.965ZM65.9885 43.4079C66.1499 43.4079 66.3424 43.4327 66.5659 43.4824V44.3517C66.3631 44.2813 66.1624 44.2461 65.9637 44.2461C65.4794 44.2461 65.0716 44.4179 64.7405 44.7615C64.4135 45.1009 64.25 45.5314 64.25 46.053V49.7163H63.3186V43.5383H64.25V44.5255C64.4321 44.1778 64.6743 43.9046 64.9764 43.7059C65.2786 43.5072 65.616 43.4079 65.9885 43.4079ZM68.6708 40.8125V49.7163H67.7395V40.8125H68.6708ZM74.8364 43.5383H75.8299L72.2534 52.0571H71.26L72.328 49.6045L69.776 43.5383H70.7819L72.7998 48.518L74.8364 43.5383ZM80.1265 49.7163V40.8125H83.2124C83.9079 40.8125 84.5019 41.0319 84.9944 41.4707C85.487 41.9053 85.7333 42.4289 85.7333 43.0416C85.7333 43.5176 85.5884 43.944 85.2987 44.3206C85.0089 44.6973 84.6488 44.9271 84.2183 45.0098C84.7771 45.0678 85.2469 45.312 85.6278 45.7425C86.0127 46.173 86.2052 46.6801 86.2052 47.2637C86.2052 47.9467 85.9506 48.5262 85.4415 49.0023C84.9365 49.4783 84.3218 49.7163 83.5974 49.7163H80.1265ZM81.0765 44.6932H83.1876C83.6264 44.6932 83.9989 44.5462 84.3052 44.2523C84.6115 43.9543 84.7647 43.5921 84.7647 43.1657C84.7647 42.7684 84.6095 42.431 84.299 42.1537C83.9927 41.8722 83.6222 41.7315 83.1876 41.7315H81.0765V44.6932ZM81.0765 48.8036H83.5477C84.0279 48.8036 84.4273 48.6442 84.7461 48.3255C85.0648 48.0067 85.2242 47.6135 85.2242 47.1458C85.2242 46.6821 85.0627 46.291 84.7399 45.9722C84.4211 45.6535 84.0279 45.4941 83.5601 45.4941H81.0765V48.8036ZM92.2404 43.5383H93.1718V49.7163H92.2404V48.518C92.0417 48.936 91.7602 49.261 91.396 49.4928C91.0359 49.7246 90.6136 49.8405 90.1293 49.8405C89.3346 49.8405 88.7012 49.5921 88.2294 49.0954C87.7575 48.5987 87.5215 47.9322 87.5215 47.0961V43.5383H88.4529V46.9967C88.4529 47.5969 88.6226 48.075 88.962 48.431C89.3015 48.787 89.7547 48.965 90.3218 48.965C90.9055 48.965 91.3711 48.787 91.7188 48.431C92.0666 48.075 92.2404 47.5969 92.2404 46.9967V43.5383ZM100.163 40.8125H101.095V49.7163H100.163V48.282C99.9355 48.7787 99.6044 49.1637 99.1697 49.4369C98.7392 49.706 98.2322 49.8405 97.6485 49.8405C97.0897 49.8405 96.5743 49.6977 96.1025 49.4121C95.6347 49.1264 95.2642 48.7353 94.991 48.2386C94.7178 47.7418 94.5812 47.1996 94.5812 46.6118C94.5812 46.024 94.7178 45.4838 94.991 44.9912C95.2642 44.4986 95.6347 44.1116 96.1025 43.8301C96.5743 43.5486 97.0897 43.4079 97.6485 43.4079C98.2322 43.4079 98.7413 43.5445 99.1759 43.8177C99.6106 44.0868 99.9397 44.4676 100.163 44.9602V40.8125ZM97.8224 48.965C98.4971 48.965 99.0559 48.7436 99.4988 48.3006C99.9417 47.8536 100.163 47.2906 100.163 46.6118C100.163 45.9371 99.9417 45.3782 99.4988 44.9353C99.0559 44.4924 98.4971 44.271 97.8224 44.271C97.1683 44.271 96.6157 44.4986 96.1645 44.954C95.7175 45.4093 95.494 45.9619 95.494 46.6118C95.494 47.2741 95.7175 47.8329 96.1645 48.2882C96.6157 48.7394 97.1683 48.965 97.8224 48.965ZM107.9 43.5259H108.831V49.5238C108.831 50.3724 108.543 51.0554 107.968 51.5728C107.393 52.0902 106.654 52.349 105.751 52.349C105.395 52.349 105.05 52.3034 104.714 52.2124C104.379 52.1254 104.067 51.9971 103.777 51.8274C103.491 51.6577 103.257 51.4279 103.075 51.1382C102.897 50.8526 102.802 50.5276 102.79 50.1634H103.69C103.702 50.5856 103.903 50.9229 104.292 51.1754C104.681 51.4321 105.159 51.5604 105.726 51.5604C106.356 51.5604 106.875 51.3741 107.285 51.0016C107.695 50.6332 107.9 50.153 107.9 49.5611V48.2013C107.672 48.6897 107.341 49.0685 106.906 49.3376C106.476 49.6066 105.969 49.7411 105.385 49.7411C104.826 49.7411 104.311 49.6004 103.839 49.3189C103.371 49.0375 103.001 48.6525 102.728 48.164C102.454 47.6756 102.318 47.1416 102.318 46.5621C102.318 45.9867 102.454 45.4569 102.728 44.9726C103.001 44.4883 103.371 44.1075 103.839 43.8301C104.311 43.5486 104.826 43.4079 105.385 43.4079C105.969 43.4079 106.476 43.5424 106.906 43.8115C107.341 44.0764 107.672 44.451 107.9 44.9353V43.5259ZM105.559 48.8781C106.234 48.8781 106.792 48.6608 107.235 48.2261C107.678 47.7874 107.9 47.2327 107.9 46.5621C107.9 45.8998 107.678 45.3513 107.235 44.9167C106.792 44.4779 106.234 44.2585 105.559 44.2585C104.905 44.2585 104.352 44.4821 103.901 44.9291C103.454 45.372 103.23 45.9164 103.23 46.5621C103.23 47.212 103.454 47.7605 103.901 48.2075C104.352 48.6546 104.905 48.8781 105.559 48.8781ZM116.344 46.4379C116.344 46.6242 116.34 46.7422 116.332 46.7918H111.153C111.199 47.4541 111.426 47.9881 111.836 48.3938C112.246 48.7994 112.774 49.0023 113.42 49.0023C113.916 49.0023 114.343 48.8905 114.699 48.667C115.059 48.4393 115.28 48.1371 115.363 47.7605H116.294C116.174 48.3855 115.847 48.8884 115.313 49.2693C114.779 49.6501 114.14 49.8405 113.395 49.8405C112.496 49.8405 111.745 49.53 111.141 48.9091C110.541 48.2882 110.24 47.5142 110.24 46.5869C110.24 45.697 110.545 44.9457 111.153 44.3331C111.762 43.7163 112.505 43.4079 113.382 43.4079C113.933 43.4079 114.434 43.5383 114.885 43.7991C115.336 44.0557 115.692 44.4158 115.953 44.8795C116.214 45.3431 116.344 45.8626 116.344 46.4379ZM111.197 46.0033H115.351C115.305 45.49 115.096 45.0699 114.723 44.7429C114.355 44.4117 113.896 44.2461 113.345 44.2461C112.799 44.2461 112.331 44.4055 111.942 44.7242C111.553 45.043 111.304 45.4693 111.197 46.0033ZM120.715 44.4014H118.989V47.6301C118.989 48.4869 119.422 48.9153 120.287 48.9153C120.461 48.9153 120.603 48.8988 120.715 48.8657V49.7163C120.529 49.7577 120.33 49.7784 120.119 49.7784C119.473 49.7784 118.968 49.6004 118.604 49.2444C118.24 48.8843 118.058 48.3503 118.058 47.6425V44.4014H116.841V43.5383H118.058V41.8308H118.989V43.5383H120.715V44.4014Z" fill="black" fill-opacity="0.2"/>
<path d="M41.4751 40.8125H42.6424L45.2378 44.7553L47.796 40.8125H48.926L45.7097 45.7239V49.7163H44.7411V45.7239L41.4751 40.8125ZM54.1665 46.4379C54.1665 46.6242 54.1623 46.7422 54.154 46.7918H48.9757C49.0212 47.4541 49.2489 47.9881 49.6587 48.3938C50.0685 48.7994 50.5962 49.0023 51.242 49.0023C51.7387 49.0023 52.1651 48.8905 52.521 48.667C52.8812 48.4393 53.1026 48.1371 53.1854 47.7605H54.1168C53.9967 48.3855 53.6697 48.8884 53.1357 49.2693C52.6018 49.6501 51.9622 49.8405 51.2171 49.8405C50.3189 49.8405 49.5676 49.53 48.9633 48.9091C48.363 48.2882 48.0629 47.5142 48.0629 46.5869C48.0629 45.697 48.3672 44.9457 48.9757 44.3331C49.5842 43.7163 50.3272 43.4079 51.2047 43.4079C51.7553 43.4079 52.2561 43.5383 52.7073 43.7991C53.1585 44.0557 53.5145 44.4158 53.7753 44.8795C54.0361 45.3431 54.1665 45.8626 54.1665 46.4379ZM49.0191 46.0033H53.173C53.1275 45.49 52.9184 45.0699 52.5459 44.7429C52.1775 44.4117 51.718 44.2461 51.1675 44.2461C50.6211 44.2461 50.1533 44.4055 49.7642 44.7242C49.3751 45.043 49.1268 45.4693 49.0191 46.0033ZM60.6115 43.5383H61.5428V49.7163H60.6115V48.282C60.3838 48.7787 60.0526 49.1637 59.618 49.4369C59.1875 49.706 58.6804 49.8405 58.0968 49.8405C57.538 49.8405 57.0226 49.6977 56.5507 49.4121C56.083 49.1264 55.7125 48.7353 55.4393 48.2386C55.1661 47.7418 55.0295 47.1996 55.0295 46.6118C55.0295 46.024 55.1661 45.4838 55.4393 44.9912C55.7125 44.4986 56.083 44.1116 56.5507 43.8301C57.0226 43.5486 57.538 43.4079 58.0968 43.4079C58.6804 43.4079 59.1896 43.5445 59.6242 43.8177C60.0588 44.0868 60.3879 44.4676 60.6115 44.9602V43.5383ZM58.2706 48.965C58.9454 48.965 59.5042 48.7436 59.9471 48.3006C60.39 47.8536 60.6115 47.2906 60.6115 46.6118C60.6115 45.9371 60.39 45.3782 59.9471 44.9353C59.5042 44.4924 58.9454 44.271 58.2706 44.271C57.6166 44.271 57.064 44.4986 56.6128 44.954C56.1658 45.4093 55.9422 45.9619 55.9422 46.6118C55.9422 47.2741 56.1658 47.8329 56.6128 48.2882C57.064 48.7394 57.6166 48.965 58.2706 48.965ZM65.9885 43.4079C66.1499 43.4079 66.3424 43.4327 66.5659 43.4824V44.3517C66.3631 44.2813 66.1624 44.2461 65.9637 44.2461C65.4794 44.2461 65.0716 44.4179 64.7405 44.7615C64.4135 45.1009 64.25 45.5314 64.25 46.053V49.7163H63.3186V43.5383H64.25V44.5255C64.4321 44.1778 64.6743 43.9046 64.9764 43.7059C65.2786 43.5072 65.616 43.4079 65.9885 43.4079ZM68.6708 40.8125V49.7163H67.7395V40.8125H68.6708ZM74.8364 43.5383H75.8299L72.2534 52.0571H71.26L72.328 49.6045L69.776 43.5383H70.7819L72.7998 48.518L74.8364 43.5383ZM80.1265 49.7163V40.8125H83.2124C83.9079 40.8125 84.5019 41.0319 84.9944 41.4707C85.487 41.9053 85.7333 42.4289 85.7333 43.0416C85.7333 43.5176 85.5884 43.944 85.2987 44.3206C85.0089 44.6973 84.6488 44.9271 84.2183 45.0098C84.7771 45.0678 85.2469 45.312 85.6278 45.7425C86.0127 46.173 86.2052 46.6801 86.2052 47.2637C86.2052 47.9467 85.9506 48.5262 85.4415 49.0023C84.9365 49.4783 84.3218 49.7163 83.5974 49.7163H80.1265ZM81.0765 44.6932H83.1876C83.6264 44.6932 83.9989 44.5462 84.3052 44.2523C84.6115 43.9543 84.7647 43.5921 84.7647 43.1657C84.7647 42.7684 84.6095 42.431 84.299 42.1537C83.9927 41.8722 83.6222 41.7315 83.1876 41.7315H81.0765V44.6932ZM81.0765 48.8036H83.5477C84.0279 48.8036 84.4273 48.6442 84.7461 48.3255C85.0648 48.0067 85.2242 47.6135 85.2242 47.1458C85.2242 46.6821 85.0627 46.291 84.7399 45.9722C84.4211 45.6535 84.0279 45.4941 83.5601 45.4941H81.0765V48.8036ZM92.2404 43.5383H93.1718V49.7163H92.2404V48.518C92.0417 48.936 91.7602 49.261 91.396 49.4928C91.0359 49.7246 90.6136 49.8405 90.1293 49.8405C89.3346 49.8405 88.7012 49.5921 88.2294 49.0954C87.7575 48.5987 87.5215 47.9322 87.5215 47.0961V43.5383H88.4529V46.9967C88.4529 47.5969 88.6226 48.075 88.962 48.431C89.3015 48.787 89.7547 48.965 90.3218 48.965C90.9055 48.965 91.3711 48.787 91.7188 48.431C92.0666 48.075 92.2404 47.5969 92.2404 46.9967V43.5383ZM100.163 40.8125H101.095V49.7163H100.163V48.282C99.9355 48.7787 99.6044 49.1637 99.1697 49.4369C98.7392 49.706 98.2322 49.8405 97.6485 49.8405C97.0897 49.8405 96.5743 49.6977 96.1025 49.4121C95.6347 49.1264 95.2642 48.7353 94.991 48.2386C94.7178 47.7418 94.5812 47.1996 94.5812 46.6118C94.5812 46.024 94.7178 45.4838 94.991 44.9912C95.2642 44.4986 95.6347 44.1116 96.1025 43.8301C96.5743 43.5486 97.0897 43.4079 97.6485 43.4079C98.2322 43.4079 98.7413 43.5445 99.1759 43.8177C99.6106 44.0868 99.9397 44.4676 100.163 44.9602V40.8125ZM97.8224 48.965C98.4971 48.965 99.0559 48.7436 99.4988 48.3006C99.9417 47.8536 100.163 47.2906 100.163 46.6118C100.163 45.9371 99.9417 45.3782 99.4988 44.9353C99.0559 44.4924 98.4971 44.271 97.8224 44.271C97.1683 44.271 96.6157 44.4986 96.1645 44.954C95.7175 45.4093 95.494 45.9619 95.494 46.6118C95.494 47.2741 95.7175 47.8329 96.1645 48.2882C96.6157 48.7394 97.1683 48.965 97.8224 48.965ZM107.9 43.5259H108.831V49.5238C108.831 50.3724 108.543 51.0554 107.968 51.5728C107.393 52.0902 106.654 52.349 105.751 52.349C105.395 52.349 105.05 52.3034 104.714 52.2124C104.379 52.1254 104.067 51.9971 103.777 51.8274C103.491 51.6577 103.257 51.4279 103.075 51.1382C102.897 50.8526 102.802 50.5276 102.79 50.1634H103.69C103.702 50.5856 103.903 50.9229 104.292 51.1754C104.681 51.4321 105.159 51.5604 105.726 51.5604C106.356 51.5604 106.875 51.3741 107.285 51.0016C107.695 50.6332 107.9 50.153 107.9 49.5611V48.2013C107.672 48.6897 107.341 49.0685 106.906 49.3376C106.476 49.6066 105.969 49.7411 105.385 49.7411C104.826 49.7411 104.311 49.6004 103.839 49.3189C103.371 49.0375 103.001 48.6525 102.728 48.164C102.454 47.6756 102.318 47.1416 102.318 46.5621C102.318 45.9867 102.454 45.4569 102.728 44.9726C103.001 44.4883 103.371 44.1075 103.839 43.8301C104.311 43.5486 104.826 43.4079 105.385 43.4079C105.969 43.4079 106.476 43.5424 106.906 43.8115C107.341 44.0764 107.672 44.451 107.9 44.9353V43.5259ZM105.559 48.8781C106.234 48.8781 106.792 48.6608 107.235 48.2261C107.678 47.7874 107.9 47.2327 107.9 46.5621C107.9 45.8998 107.678 45.3513 107.235 44.9167C106.792 44.4779 106.234 44.2585 105.559 44.2585C104.905 44.2585 104.352 44.4821 103.901 44.9291C103.454 45.372 103.23 45.9164 103.23 46.5621C103.23 47.212 103.454 47.7605 103.901 48.2075C104.352 48.6546 104.905 48.8781 105.559 48.8781ZM116.344 46.4379C116.344 46.6242 116.34 46.7422 116.332 46.7918H111.153C111.199 47.4541 111.426 47.9881 111.836 48.3938C112.246 48.7994 112.774 49.0023 113.42 49.0023C113.916 49.0023 114.343 48.8905 114.699 48.667C115.059 48.4393 115.28 48.1371 115.363 47.7605H116.294C116.174 48.3855 115.847 48.8884 115.313 49.2693C114.779 49.6501 114.14 49.8405 113.395 49.8405C112.496 49.8405 111.745 49.53 111.141 48.9091C110.541 48.2882 110.24 47.5142 110.24 46.5869C110.24 45.697 110.545 44.9457 111.153 44.3331C111.762 43.7163 112.505 43.4079 113.382 43.4079C113.933 43.4079 114.434 43.5383 114.885 43.7991C115.336 44.0557 115.692 44.4158 115.953 44.8795C116.214 45.3431 116.344 45.8626 116.344 46.4379ZM111.197 46.0033H115.351C115.305 45.49 115.096 45.0699 114.723 44.7429C114.355 44.4117 113.896 44.2461 113.345 44.2461C112.799 44.2461 112.331 44.4055 111.942 44.7242C111.553 45.043 111.304 45.4693 111.197 46.0033ZM120.715 44.4014H118.989V47.6301C118.989 48.4869 119.422 48.9153 120.287 48.9153C120.461 48.9153 120.603 48.8988 120.715 48.8657V49.7163C120.529 49.7577 120.33 49.7784 120.119 49.7784C119.473 49.7784 118.968 49.6004 118.604 49.2444C118.24 48.8843 118.058 48.3503 118.058 47.6425V44.4014H116.841V43.5383H118.058V41.8308H118.989V43.5383H120.715V44.4014Z" fill="black" fill-opacity="0.2"/>
<path d="M41.4751 40.8125H42.6424L45.2378 44.7553L47.796 40.8125H48.926L45.7097 45.7239V49.7163H44.7411V45.7239L41.4751 40.8125ZM54.1665 46.4379C54.1665 46.6242 54.1623 46.7422 54.154 46.7918H48.9757C49.0212 47.4541 49.2489 47.9881 49.6587 48.3938C50.0685 48.7994 50.5962 49.0023 51.242 49.0023C51.7387 49.0023 52.1651 48.8905 52.521 48.667C52.8812 48.4393 53.1026 48.1371 53.1854 47.7605H54.1168C53.9967 48.3855 53.6697 48.8884 53.1357 49.2693C52.6018 49.6501 51.9622 49.8405 51.2171 49.8405C50.3189 49.8405 49.5676 49.53 48.9633 48.9091C48.363 48.2882 48.0629 47.5142 48.0629 46.5869C48.0629 45.697 48.3672 44.9457 48.9757 44.3331C49.5842 43.7163 50.3272 43.4079 51.2047 43.4079C51.7553 43.4079 52.2561 43.5383 52.7073 43.7991C53.1585 44.0557 53.5145 44.4158 53.7753 44.8795C54.0361 45.3431 54.1665 45.8626 54.1665 46.4379ZM49.0191 46.0033H53.173C53.1275 45.49 52.9184 45.0699 52.5459 44.7429C52.1775 44.4117 51.718 44.2461 51.1675 44.2461C50.6211 44.2461 50.1533 44.4055 49.7642 44.7242C49.3751 45.043 49.1268 45.4693 49.0191 46.0033ZM60.6115 43.5383H61.5428V49.7163H60.6115V48.282C60.3838 48.7787 60.0526 49.1637 59.618 49.4369C59.1875 49.706 58.6804 49.8405 58.0968 49.8405C57.538 49.8405 57.0226 49.6977 56.5507 49.4121C56.083 49.1264 55.7125 48.7353 55.4393 48.2386C55.1661 47.7418 55.0295 47.1996 55.0295 46.6118C55.0295 46.024 55.1661 45.4838 55.4393 44.9912C55.7125 44.4986 56.083 44.1116 56.5507 43.8301C57.0226 43.5486 57.538 43.4079 58.0968 43.4079C58.6804 43.4079 59.1896 43.5445 59.6242 43.8177C60.0588 44.0868 60.3879 44.4676 60.6115 44.9602V43.5383ZM58.2706 48.965C58.9454 48.965 59.5042 48.7436 59.9471 48.3006C60.39 47.8536 60.6115 47.2906 60.6115 46.6118C60.6115 45.9371 60.39 45.3782 59.9471 44.9353C59.5042 44.4924 58.9454 44.271 58.2706 44.271C57.6166 44.271 57.064 44.4986 56.6128 44.954C56.1658 45.4093 55.9422 45.9619 55.9422 46.6118C55.9422 47.2741 56.1658 47.8329 56.6128 48.2882C57.064 48.7394 57.6166 48.965 58.2706 48.965ZM65.9885 43.4079C66.1499 43.4079 66.3424 43.4327 66.5659 43.4824V44.3517C66.3631 44.2813 66.1624 44.2461 65.9637 44.2461C65.4794 44.2461 65.0716 44.4179 64.7405 44.7615C64.4135 45.1009 64.25 45.5314 64.25 46.053V49.7163H63.3186V43.5383H64.25V44.5255C64.4321 44.1778 64.6743 43.9046 64.9764 43.7059C65.2786 43.5072 65.616 43.4079 65.9885 43.4079ZM68.6708 40.8125V49.7163H67.7395V40.8125H68.6708ZM74.8364 43.5383H75.8299L72.2534 52.0571H71.26L72.328 49.6045L69.776 43.5383H70.7819L72.7998 48.518L74.8364 43.5383ZM80.1265 49.7163V40.8125H83.2124C83.9079 40.8125 84.5019 41.0319 84.9944 41.4707C85.487 41.9053 85.7333 42.4289 85.7333 43.0416C85.7333 43.5176 85.5884 43.944 85.2987 44.3206C85.0089 44.6973 84.6488 44.9271 84.2183 45.0098C84.7771 45.0678 85.2469 45.312 85.6278 45.7425C86.0127 46.173 86.2052 46.6801 86.2052 47.2637C86.2052 47.9467 85.9506 48.5262 85.4415 49.0023C84.9365 49.4783 84.3218 49.7163 83.5974 49.7163H80.1265ZM81.0765 44.6932H83.1876C83.6264 44.6932 83.9989 44.5462 84.3052 44.2523C84.6115 43.9543 84.7647 43.5921 84.7647 43.1657C84.7647 42.7684 84.6095 42.431 84.299 42.1537C83.9927 41.8722 83.6222 41.7315 83.1876 41.7315H81.0765V44.6932ZM81.0765 48.8036H83.5477C84.0279 48.8036 84.4273 48.6442 84.7461 48.3255C85.0648 48.0067 85.2242 47.6135 85.2242 47.1458C85.2242 46.6821 85.0627 46.291 84.7399 45.9722C84.4211 45.6535 84.0279 45.4941 83.5601 45.4941H81.0765V48.8036ZM92.2404 43.5383H93.1718V49.7163H92.2404V48.518C92.0417 48.936 91.7602 49.261 91.396 49.4928C91.0359 49.7246 90.6136 49.8405 90.1293 49.8405C89.3346 49.8405 88.7012 49.5921 88.2294 49.0954C87.7575 48.5987 87.5215 47.9322 87.5215 47.0961V43.5383H88.4529V46.9967C88.4529 47.5969 88.6226 48.075 88.962 48.431C89.3015 48.787 89.7547 48.965 90.3218 48.965C90.9055 48.965 91.3711 48.787 91.7188 48.431C92.0666 48.075 92.2404 47.5969 92.2404 46.9967V43.5383ZM100.163 40.8125H101.095V49.7163H100.163V48.282C99.9355 48.7787 99.6044 49.1637 99.1697 49.4369C98.7392 49.706 98.2322 49.8405 97.6485 49.8405C97.0897 49.8405 96.5743 49.6977 96.1025 49.4121C95.6347 49.1264 95.2642 48.7353 94.991 48.2386C94.7178 47.7418 94.5812 47.1996 94.5812 46.6118C94.5812 46.024 94.7178 45.4838 94.991 44.9912C95.2642 44.4986 95.6347 44.1116 96.1025 43.8301C96.5743 43.5486 97.0897 43.4079 97.6485 43.4079C98.2322 43.4079 98.7413 43.5445 99.1759 43.8177C99.6106 44.0868 99.9397 44.4676 100.163 44.9602V40.8125ZM97.8224 48.965C98.4971 48.965 99.0559 48.7436 99.4988 48.3006C99.9417 47.8536 100.163 47.2906 100.163 46.6118C100.163 45.9371 99.9417 45.3782 99.4988 44.9353C99.0559 44.4924 98.4971 44.271 97.8224 44.271C97.1683 44.271 96.6157 44.4986 96.1645 44.954C95.7175 45.4093 95.494 45.9619 95.494 46.6118C95.494 47.2741 95.7175 47.8329 96.1645 48.2882C96.6157 48.7394 97.1683 48.965 97.8224 48.965ZM107.9 43.5259H108.831V49.5238C108.831 50.3724 108.543 51.0554 107.968 51.5728C107.393 52.0902 106.654 52.349 105.751 52.349C105.395 52.349 105.05 52.3034 104.714 52.2124C104.379 52.1254 104.067 51.9971 103.777 51.8274C103.491 51.6577 103.257 51.4279 103.075 51.1382C102.897 50.8526 102.802 50.5276 102.79 50.1634H103.69C103.702 50.5856 103.903 50.9229 104.292 51.1754C104.681 51.4321 105.159 51.5604 105.726 51.5604C106.356 51.5604 106.875 51.3741 107.285 51.0016C107.695 50.6332 107.9 50.153 107.9 49.5611V48.2013C107.672 48.6897 107.341 49.0685 106.906 49.3376C106.476 49.6066 105.969 49.7411 105.385 49.7411C104.826 49.7411 104.311 49.6004 103.839 49.3189C103.371 49.0375 103.001 48.6525 102.728 48.164C102.454 47.6756 102.318 47.1416 102.318 46.5621C102.318 45.9867 102.454 45.4569 102.728 44.9726C103.001 44.4883 103.371 44.1075 103.839 43.8301C104.311 43.5486 104.826 43.4079 105.385 43.4079C105.969 43.4079 106.476 43.5424 106.906 43.8115C107.341 44.0764 107.672 44.451 107.9 44.9353V43.5259ZM105.559 48.8781C106.234 48.8781 106.792 48.6608 107.235 48.2261C107.678 47.7874 107.9 47.2327 107.9 46.5621C107.9 45.8998 107.678 45.3513 107.235 44.9167C106.792 44.4779 106.234 44.2585 105.559 44.2585C104.905 44.2585 104.352 44.4821 103.901 44.9291C103.454 45.372 103.23 45.9164 103.23 46.5621C103.23 47.212 103.454 47.7605 103.901 48.2075C104.352 48.6546 104.905 48.8781 105.559 48.8781ZM116.344 46.4379C116.344 46.6242 116.34 46.7422 116.332 46.7918H111.153C111.199 47.4541 111.426 47.9881 111.836 48.3938C112.246 48.7994 112.774 49.0023 113.42 49.0023C113.916 49.0023 114.343 48.8905 114.699 48.667C115.059 48.4393 115.28 48.1371 115.363 47.7605H116.294C116.174 48.3855 115.847 48.8884 115.313 49.2693C114.779 49.6501 114.14 49.8405 113.395 49.8405C112.496 49.8405 111.745 49.53 111.141 48.9091C110.541 48.2882 110.24 47.5142 110.24 46.5869C110.24 45.697 110.545 44.9457 111.153 44.3331C111.762 43.7163 112.505 43.4079 113.382 43.4079C113.933 43.4079 114.434 43.5383 114.885 43.7991C115.336 44.0557 115.692 44.4158 115.953 44.8795C116.214 45.3431 116.344 45.8626 116.344 46.4379ZM111.197 46.0033H115.351C115.305 45.49 115.096 45.0699 114.723 44.7429C114.355 44.4117 113.896 44.2461 113.345 44.2461C112.799 44.2461 112.331 44.4055 111.942 44.7242C111.553 45.043 111.304 45.4693 111.197 46.0033ZM120.715 44.4014H118.989V47.6301C118.989 48.4869 119.422 48.9153 120.287 48.9153C120.461 48.9153 120.603 48.8988 120.715 48.8657V49.7163C120.529 49.7577 120.33 49.7784 120.119 49.7784C119.473 49.7784 118.968 49.6004 118.604 49.2444C118.24 48.8843 118.058 48.3503 118.058 47.6425V44.4014H116.841V43.5383H118.058V41.8308H118.989V43.5383H120.715V44.4014Z" fill="black" fill-opacity="0.2"/>
<path d="M41.4751 40.8125H42.6424L45.2378 44.7553L47.796 40.8125H48.926L45.7097 45.7239V49.7163H44.7411V45.7239L41.4751 40.8125ZM54.1665 46.4379C54.1665 46.6242 54.1623 46.7422 54.154 46.7918H48.9757C49.0212 47.4541 49.2489 47.9881 49.6587 48.3938C50.0685 48.7994 50.5962 49.0023 51.242 49.0023C51.7387 49.0023 52.1651 48.8905 52.521 48.667C52.8812 48.4393 53.1026 48.1371 53.1854 47.7605H54.1168C53.9967 48.3855 53.6697 48.8884 53.1357 49.2693C52.6018 49.6501 51.9622 49.8405 51.2171 49.8405C50.3189 49.8405 49.5676 49.53 48.9633 48.9091C48.363 48.2882 48.0629 47.5142 48.0629 46.5869C48.0629 45.697 48.3672 44.9457 48.9757 44.3331C49.5842 43.7163 50.3272 43.4079 51.2047 43.4079C51.7553 43.4079 52.2561 43.5383 52.7073 43.7991C53.1585 44.0557 53.5145 44.4158 53.7753 44.8795C54.0361 45.3431 54.1665 45.8626 54.1665 46.4379ZM49.0191 46.0033H53.173C53.1275 45.49 52.9184 45.0699 52.5459 44.7429C52.1775 44.4117 51.718 44.2461 51.1675 44.2461C50.6211 44.2461 50.1533 44.4055 49.7642 44.7242C49.3751 45.043 49.1268 45.4693 49.0191 46.0033ZM60.6115 43.5383H61.5428V49.7163H60.6115V48.282C60.3838 48.7787 60.0526 49.1637 59.618 49.4369C59.1875 49.706 58.6804 49.8405 58.0968 49.8405C57.538 49.8405 57.0226 49.6977 56.5507 49.4121C56.083 49.1264 55.7125 48.7353 55.4393 48.2386C55.1661 47.7418 55.0295 47.1996 55.0295 46.6118C55.0295 46.024 55.1661 45.4838 55.4393 44.9912C55.7125 44.4986 56.083 44.1116 56.5507 43.8301C57.0226 43.5486 57.538 43.4079 58.0968 43.4079C58.6804 43.4079 59.1896 43.5445 59.6242 43.8177C60.0588 44.0868 60.3879 44.4676 60.6115 44.9602V43.5383ZM58.2706 48.965C58.9454 48.965 59.5042 48.7436 59.9471 48.3006C60.39 47.8536 60.6115 47.2906 60.6115 46.6118C60.6115 45.9371 60.39 45.3782 59.9471 44.9353C59.5042 44.4924 58.9454 44.271 58.2706 44.271C57.6166 44.271 57.064 44.4986 56.6128 44.954C56.1658 45.4093 55.9422 45.9619 55.9422 46.6118C55.9422 47.2741 56.1658 47.8329 56.6128 48.2882C57.064 48.7394 57.6166 48.965 58.2706 48.965ZM65.9885 43.4079C66.1499 43.4079 66.3424 43.4327 66.5659 43.4824V44.3517C66.3631 44.2813 66.1624 44.2461 65.9637 44.2461C65.4794 44.2461 65.0716 44.4179 64.7405 44.7615C64.4135 45.1009 64.25 45.5314 64.25 46.053V49.7163H63.3186V43.5383H64.25V44.5255C64.4321 44.1778 64.6743 43.9046 64.9764 43.7059C65.2786 43.5072 65.616 43.4079 65.9885 43.4079ZM68.6708 40.8125V49.7163H67.7395V40.8125H68.6708ZM74.8364 43.5383H75.8299L72.2534 52.0571H71.26L72.328 49.6045L69.776 43.5383H70.7819L72.7998 48.518L74.8364 43.5383ZM80.1265 49.7163V40.8125H83.2124C83.9079 40.8125 84.5019 41.0319 84.9944 41.4707C85.487 41.9053 85.7333 42.4289 85.7333 43.0416C85.7333 43.5176 85.5884 43.944 85.2987 44.3206C85.0089 44.6973 84.6488 44.9271 84.2183 45.0098C84.7771 45.0678 85.2469 45.312 85.6278 45.7425C86.0127 46.173 86.2052 46.6801 86.2052 47.2637C86.2052 47.9467 85.9506 48.5262 85.4415 49.0023C84.9365 49.4783 84.3218 49.7163 83.5974 49.7163H80.1265ZM81.0765 44.6932H83.1876C83.6264 44.6932 83.9989 44.5462 84.3052 44.2523C84.6115 43.9543 84.7647 43.5921 84.7647 43.1657C84.7647 42.7684 84.6095 42.431 84.299 42.1537C83.9927 41.8722 83.6222 41.7315 83.1876 41.7315H81.0765V44.6932ZM81.0765 48.8036H83.5477C84.0279 48.8036 84.4273 48.6442 84.7461 48.3255C85.0648 48.0067 85.2242 47.6135 85.2242 47.1458C85.2242 46.6821 85.0627 46.291 84.7399 45.9722C84.4211 45.6535 84.0279 45.4941 83.5601 45.4941H81.0765V48.8036ZM92.2404 43.5383H93.1718V49.7163H92.2404V48.518C92.0417 48.936 91.7602 49.261 91.396 49.4928C91.0359 49.7246 90.6136 49.8405 90.1293 49.8405C89.3346 49.8405 88.7012 49.5921 88.2294 49.0954C87.7575 48.5987 87.5215 47.9322 87.5215 47.0961V43.5383H88.4529V46.9967C88.4529 47.5969 88.6226 48.075 88.962 48.431C89.3015 48.787 89.7547 48.965 90.3218 48.965C90.9055 48.965 91.3711 48.787 91.7188 48.431C92.0666 48.075 92.2404 47.5969 92.2404 46.9967V43.5383ZM100.163 40.8125H101.095V49.7163H100.163V48.282C99.9355 48.7787 99.6044 49.1637 99.1697 49.4369C98.7392 49.706 98.2322 49.8405 97.6485 49.8405C97.0897 49.8405 96.5743 49.6977 96.1025 49.4121C95.6347 49.1264 95.2642 48.7353 94.991 48.2386C94.7178 47.7418 94.5812 47.1996 94.5812 46.6118C94.5812 46.024 94.7178 45.4838 94.991 44.9912C95.2642 44.4986 95.6347 44.1116 96.1025 43.8301C96.5743 43.5486 97.0897 43.4079 97.6485 43.4079C98.2322 43.4079 98.7413 43.5445 99.1759 43.8177C99.6106 44.0868 99.9397 44.4676 100.163 44.9602V40.8125ZM97.8224 48.965C98.4971 48.965 99.0559 48.7436 99.4988 48.3006C99.9417 47.8536 100.163 47.2906 100.163 46.6118C100.163 45.9371 99.9417 45.3782 99.4988 44.9353C99.0559 44.4924 98.4971 44.271 97.8224 44.271C97.1683 44.271 96.6157 44.4986 96.1645 44.954C95.7175 45.4093 95.494 45.9619 95.494 46.6118C95.494 47.2741 95.7175 47.8329 96.1645 48.2882C96.6157 48.7394 97.1683 48.965 97.8224 48.965ZM107.9 43.5259H108.831V49.5238C108.831 50.3724 108.543 51.0554 107.968 51.5728C107.393 52.0902 106.654 52.349 105.751 52.349C105.395 52.349 105.05 52.3034 104.714 52.2124C104.379 52.1254 104.067 51.9971 103.777 51.8274C103.491 51.6577 103.257 51.4279 103.075 51.1382C102.897 50.8526 102.802 50.5276 102.79 50.1634H103.69C103.702 50.5856 103.903 50.9229 104.292 51.1754C104.681 51.4321 105.159 51.5604 105.726 51.5604C106.356 51.5604 106.875 51.3741 107.285 51.0016C107.695 50.6332 107.9 50.153 107.9 49.5611V48.2013C107.672 48.6897 107.341 49.0685 106.906 49.3376C106.476 49.6066 105.969 49.7411 105.385 49.7411C104.826 49.7411 104.311 49.6004 103.839 49.3189C103.371 49.0375 103.001 48.6525 102.728 48.164C102.454 47.6756 102.318 47.1416 102.318 46.5621C102.318 45.9867 102.454 45.4569 102.728 44.9726C103.001 44.4883 103.371 44.1075 103.839 43.8301C104.311 43.5486 104.826 43.4079 105.385 43.4079C105.969 43.4079 106.476 43.5424 106.906 43.8115C107.341 44.0764 107.672 44.451 107.9 44.9353V43.5259ZM105.559 48.8781C106.234 48.8781 106.792 48.6608 107.235 48.2261C107.678 47.7874 107.9 47.2327 107.9 46.5621C107.9 45.8998 107.678 45.3513 107.235 44.9167C106.792 44.4779 106.234 44.2585 105.559 44.2585C104.905 44.2585 104.352 44.4821 103.901 44.9291C103.454 45.372 103.23 45.9164 103.23 46.5621C103.23 47.212 103.454 47.7605 103.901 48.2075C104.352 48.6546 104.905 48.8781 105.559 48.8781ZM116.344 46.4379C116.344 46.6242 116.34 46.7422 116.332 46.7918H111.153C111.199 47.4541 111.426 47.9881 111.836 48.3938C112.246 48.7994 112.774 49.0023 113.42 49.0023C113.916 49.0023 114.343 48.8905 114.699 48.667C115.059 48.4393 115.28 48.1371 115.363 47.7605H116.294C116.174 48.3855 115.847 48.8884 115.313 49.2693C114.779 49.6501 114.14 49.8405 113.395 49.8405C112.496 49.8405 111.745 49.53 111.141 48.9091C110.541 48.2882 110.24 47.5142 110.24 46.5869C110.24 45.697 110.545 44.9457 111.153 44.3331C111.762 43.7163 112.505 43.4079 113.382 43.4079C113.933 43.4079 114.434 43.5383 114.885 43.7991C115.336 44.0557 115.692 44.4158 115.953 44.8795C116.214 45.3431 116.344 45.8626 116.344 46.4379ZM111.197 46.0033H115.351C115.305 45.49 115.096 45.0699 114.723 44.7429C114.355 44.4117 113.896 44.2461 113.345 44.2461C112.799 44.2461 112.331 44.4055 111.942 44.7242C111.553 45.043 111.304 45.4693 111.197 46.0033ZM120.715 44.4014H118.989V47.6301C118.989 48.4869 119.422 48.9153 120.287 48.9153C120.461 48.9153 120.603 48.8988 120.715 48.8657V49.7163C120.529 49.7577 120.33 49.7784 120.119 49.7784C119.473 49.7784 118.968 49.6004 118.604 49.2444C118.24 48.8843 118.058 48.3503 118.058 47.6425V44.4014H116.841V43.5383H118.058V41.8308H118.989V43.5383H120.715V44.4014Z" fill="black" fill-opacity="0.2"/>
<path d="M57.3764 88.4977C55.2426 88.4977 53.4152 87.9075 51.8944 86.7271C50.3735 85.5468 49.5166 83.9918 49.3236 82.0623H51.9454C52.1951 83.22 52.8137 84.1621 53.8011 84.8885C54.7999 85.6035 55.9917 85.961 57.3764 85.961C58.9199 85.961 60.2252 85.4446 61.2921 84.4118C62.359 83.3676 62.8924 82.0964 62.8924 80.5982C62.8924 79.0319 62.359 77.7096 61.2921 76.6314C60.2252 75.5532 58.9199 75.014 57.3764 75.014C56.4343 75.014 55.5547 75.1673 54.7375 75.4737C53.9317 75.7688 53.2904 76.1944 52.8137 76.7506H50.5494L51.6901 63.7436H64.0671V66.2292H54.0395L53.2223 74.282C53.7217 73.8166 54.3743 73.4534 55.1802 73.1924C55.9973 72.92 56.8372 72.7838 57.6998 72.7838C59.9471 72.7838 61.8198 73.5215 63.318 74.997C64.8162 76.4612 65.5653 78.3396 65.5653 80.6322C65.5653 82.8228 64.7708 84.6842 63.1818 86.2164C61.5928 87.7373 59.6577 88.4977 57.3764 88.4977ZM77.2954 88.4977C74.5374 88.4977 72.3752 87.3798 70.809 85.1438C69.254 82.9079 68.4766 79.8434 68.4766 75.9504C68.4766 72.0574 69.254 68.9929 70.809 66.757C72.3752 64.5211 74.5374 63.4031 77.2954 63.4031C80.0421 63.4031 82.1929 64.5211 83.7478 66.757C85.3028 68.9929 86.0802 72.0574 86.0802 75.9504C86.0802 79.8434 85.3028 82.9079 83.7478 85.1438C82.1929 87.3798 80.0421 88.4977 77.2954 88.4977ZM77.2954 85.961C79.2249 85.961 80.7231 85.0928 81.79 83.3562C82.8682 81.6197 83.4073 79.1511 83.4073 75.9504C83.4073 72.7497 82.8682 70.2811 81.79 68.5446C80.7231 66.8081 79.2249 65.9398 77.2954 65.9398C75.3546 65.9398 73.8507 66.8081 72.7838 68.5446C71.7283 70.2698 71.2005 72.7384 71.2005 75.9504C71.2005 79.1624 71.7283 81.6367 72.7838 83.3732C73.8507 85.0984 75.3546 85.961 77.2954 85.961ZM104.62 88.1572H101.249L92.6689 79.8661V88.1572H90.1151V63.7436H92.6689V78.7765L100.858 71.2175H104.076L95.2396 79.3043L104.62 88.1572Z" fill="black"/>
<path d="M44.8098 70.9291C44.8098 71.5997 44.5573 72.1668 44.0523 72.6304C43.5514 73.094 42.9056 73.361 42.115 73.4314V74.8595H41.2271V73.4314C40.4241 73.3362 39.768 73.0257 39.2589 72.5C38.7539 71.9702 38.5014 71.3286 38.5014 70.5752H39.4451C39.4451 71.1547 39.6583 71.6307 40.0847 72.0033C40.511 72.3717 41.0533 72.5559 41.7114 72.5559C42.3323 72.5559 42.8456 72.4048 43.2513 72.1026C43.6569 71.7963 43.8598 71.4052 43.8598 70.9291C43.8598 70.6808 43.8101 70.4614 43.7108 70.271C43.6156 70.0806 43.4831 69.9274 43.3134 69.8115C43.1478 69.6956 42.9533 69.59 42.7297 69.4948C42.5103 69.3955 42.2744 69.3168 42.0219 69.2589C41.7735 69.2009 41.5169 69.1347 41.252 69.0602C40.987 68.9857 40.7283 68.9132 40.4758 68.8429C40.2275 68.7684 39.9915 68.669 39.768 68.5448C39.5486 68.4207 39.3541 68.2799 39.1844 68.1226C39.0188 67.9653 38.8863 67.7625 38.787 67.5141C38.6918 67.2658 38.6442 66.9843 38.6442 66.6697C38.6442 66.0322 38.8842 65.4962 39.3644 65.0616C39.8446 64.6269 40.4655 64.3786 41.2271 64.3165V62.907H42.115V64.3413C42.8684 64.4407 43.4583 64.7263 43.8846 65.1982C44.3151 65.6659 44.5304 66.2289 44.5304 66.887H43.5555C43.5348 66.3986 43.3382 65.9991 42.9657 65.6887C42.5973 65.3741 42.1233 65.2168 41.5438 65.2168C40.9643 65.2168 40.4924 65.3513 40.1281 65.6204C39.768 65.8894 39.5879 66.2392 39.5879 66.6697C39.5879 66.9181 39.648 67.1333 39.768 67.3155C39.888 67.4976 40.0474 67.6425 40.2461 67.7501C40.4489 67.8577 40.6807 67.9529 40.9415 68.0357C41.2023 68.1144 41.4776 68.1889 41.7673 68.2592C42.0571 68.3255 42.3448 68.3979 42.6304 68.4765C42.9201 68.5552 43.1954 68.6587 43.4562 68.787C43.717 68.9153 43.9467 69.0685 44.1454 69.2465C44.3482 69.4203 44.5097 69.6521 44.6297 69.9419C44.7497 70.2275 44.8098 70.5566 44.8098 70.9291Z" fill="black"/>
<path d="M135.212 46.0733V47.1661H132.884V49.4945H131.791V47.1661H129.462V46.0733H131.791V43.7449H132.884V46.0733H135.212ZM142.247 50.7487C141.436 50.7487 140.744 50.5252 140.173 50.0781C139.602 49.6269 139.285 49.0288 139.223 48.2837H140.446C140.537 48.6687 140.744 48.9791 141.067 49.2151C141.394 49.451 141.787 49.569 142.247 49.569C142.756 49.569 143.185 49.3972 143.532 49.0536C143.88 48.7059 144.054 48.2837 144.054 47.787C144.054 47.2654 143.88 46.8308 143.532 46.4831C143.185 46.1312 142.756 45.9553 142.247 45.9553C141.936 45.9553 141.645 46.0091 141.371 46.1167C141.098 46.2244 140.879 46.3713 140.713 46.5576H139.645L140.061 41.7207H144.743V42.8818H141.154L140.9 45.4213C141.065 45.2723 141.285 45.1564 141.558 45.0736C141.835 44.9867 142.121 44.9432 142.415 44.9432C143.247 44.9432 143.938 45.2081 144.488 45.738C145.039 46.2678 145.314 46.9591 145.314 47.8118C145.314 48.3499 145.178 48.8446 144.904 49.2958C144.631 49.747 144.259 50.103 143.787 50.3637C143.319 50.6204 142.806 50.7487 142.247 50.7487ZM149.015 50.7487C148.204 50.7487 147.512 50.5252 146.941 50.0781C146.37 49.6269 146.053 49.0288 145.991 48.2837H147.214C147.305 48.6687 147.512 48.9791 147.835 49.2151C148.162 49.451 148.555 49.569 149.015 49.569C149.524 49.569 149.952 49.3972 150.3 49.0536C150.648 48.7059 150.822 48.2837 150.822 47.787C150.822 47.2654 150.648 46.8308 150.3 46.4831C149.952 46.1312 149.524 45.9553 149.015 45.9553C148.704 45.9553 148.413 46.0091 148.139 46.1167C147.866 46.2244 147.647 46.3713 147.481 46.5576H146.413L146.829 41.7207H151.511V42.8818H147.922L147.667 45.4213C147.833 45.2723 148.052 45.1564 148.326 45.0736C148.603 44.9867 148.889 44.9432 149.182 44.9432C150.014 44.9432 150.706 45.2081 151.256 45.738C151.807 46.2678 152.082 46.9591 152.082 47.8118C152.082 48.3499 151.946 48.8446 151.672 49.2958C151.399 49.747 151.027 50.103 150.555 50.3637C150.087 50.6204 149.574 50.7487 149.015 50.7487ZM155.832 42.1181C156.164 42.4658 156.329 42.9066 156.329 43.4406C156.329 43.9746 156.164 44.4175 155.832 44.7694C155.505 45.1212 155.087 45.2971 154.578 45.2971C154.069 45.2971 153.647 45.1212 153.311 44.7694C152.976 44.4175 152.809 43.9746 152.809 43.4406C152.809 42.9066 152.976 42.4658 153.311 42.1181C153.647 41.7704 154.069 41.5965 154.578 41.5965C155.087 41.5965 155.505 41.7704 155.832 42.1181ZM159.105 41.7207H160.067L154.156 50.6245H153.194L159.105 41.7207ZM155.261 44.2292C155.439 44.0222 155.528 43.7594 155.528 43.4406C155.528 43.1219 155.441 42.8632 155.267 42.6645C155.093 42.4617 154.864 42.3603 154.578 42.3603C154.288 42.3603 154.055 42.4617 153.877 42.6645C153.699 42.8632 153.61 43.1219 153.61 43.4406C153.61 43.7594 153.699 44.0222 153.877 44.2292C154.055 44.432 154.288 44.5334 154.578 44.5334C154.86 44.5334 155.087 44.432 155.261 44.2292ZM159.943 47.5759C160.274 47.9194 160.439 48.3582 160.439 48.8922C160.439 49.4262 160.274 49.8691 159.943 50.2209C159.612 50.5728 159.191 50.7487 158.682 50.7487C158.173 50.7487 157.753 50.5728 157.422 50.2209C157.095 49.8691 156.931 49.4262 156.931 48.8922C156.931 48.3582 157.095 47.9194 157.422 47.5759C157.753 47.2282 158.173 47.0543 158.682 47.0543C159.191 47.0543 159.612 47.2282 159.943 47.5759ZM159.639 48.8922C159.639 48.5735 159.552 48.3127 159.378 48.1098C159.204 47.9029 158.972 47.7994 158.682 47.7994C158.393 47.7994 158.161 47.9008 157.987 48.1036C157.817 48.3065 157.732 48.5693 157.732 48.8922C157.732 49.2151 157.819 49.48 157.993 49.6869C158.167 49.8898 158.397 49.9912 158.682 49.9912C158.972 49.9912 159.204 49.8898 159.378 49.6869C159.552 49.48 159.639 49.2151 159.639 48.8922Z" fill="#9747FF"/>
</g>
<g filter="url(#filter1_dddd_396_3544)">
<rect x="116" y="122" width="198" height="56" rx="28" fill="#F48025"/>
<g clip-path="url(#clip2_396_3544)">
<path d="M159.305 146.192C159.671 146.559 159.671 147.152 159.305 147.518L153.015 153.808C152.649 154.174 152.056 154.174 151.689 153.808L148.695 150.814C148.329 150.448 148.329 149.854 148.695 149.488C149.061 149.122 149.655 149.122 150.021 149.488L152.352 151.819L157.979 146.192C158.345 145.826 158.939 145.826 159.305 146.192ZM166 150C166 156.633 160.632 162 154 162C147.367 162 142 156.632 142 150C142 143.367 147.368 138 154 138C160.633 138 166 143.368 166 150ZM164.125 150C164.125 144.403 159.596 139.875 154 139.875C148.403 139.875 143.875 144.404 143.875 150C143.875 155.597 148.404 160.125 154 160.125C159.597 160.125 164.125 155.596 164.125 150Z" fill="white"/>
</g>
<path d="M187.825 150.227C187.877 150.529 187.903 150.88 187.903 151.281C187.903 152.312 187.664 153.24 187.184 154.062C186.71 154.885 186.059 155.523 185.231 155.977C184.408 156.43 183.486 156.656 182.466 156.656C181.674 156.656 180.927 156.508 180.223 156.211C179.526 155.914 178.927 155.51 178.427 155C177.932 154.49 177.539 153.878 177.247 153.164C176.96 152.451 176.817 151.69 176.817 150.883C176.817 150.081 176.96 149.326 177.247 148.617C177.539 147.904 177.934 147.294 178.434 146.789C178.934 146.279 179.533 145.878 180.231 145.586C180.934 145.289 181.679 145.141 182.466 145.141C183.283 145.141 184.067 145.31 184.817 145.648C185.572 145.987 186.2 146.438 186.7 147C187.205 147.562 187.526 148.169 187.661 148.82H185.552C185.348 148.273 184.953 147.828 184.364 147.484C183.781 147.135 183.148 146.961 182.466 146.961C181.414 146.961 180.531 147.336 179.817 148.086C179.109 148.836 178.755 149.768 178.755 150.883C178.755 151.622 178.916 152.294 179.239 152.898C179.567 153.497 180.023 153.971 180.606 154.32C181.195 154.664 181.856 154.836 182.591 154.836C183.466 154.836 184.213 154.578 184.833 154.062C185.458 153.542 185.846 152.867 185.997 152.039H182.497V150.227H187.825ZM190.71 145.297H192.585V156.5H190.71V145.297ZM194.939 145.297H196.939L199.947 153.508L202.954 145.297H204.939L200.712 156.5H199.158L194.939 145.297ZM207.293 145.297H213.902V147.094H209.168V149.734H213.386V151.523H209.168V154.711H213.902V156.5H207.293V145.297ZM229.023 156.5L228.156 154.258H223.422L222.539 156.5H220.555L225.023 145.297H226.594L231.055 156.5H229.023ZM224.109 152.469H227.453L225.789 148.18L224.109 152.469ZM237.948 156.656C237.161 156.656 236.419 156.508 235.721 156.211C235.023 155.914 234.424 155.51 233.924 155C233.429 154.49 233.036 153.878 232.744 153.164C232.458 152.451 232.315 151.69 232.315 150.883C232.315 150.081 232.458 149.326 232.744 148.617C233.036 147.904 233.429 147.294 233.924 146.789C234.424 146.279 235.023 145.878 235.721 145.586C236.419 145.289 237.161 145.141 237.948 145.141C238.796 145.141 239.596 145.31 240.346 145.648C241.101 145.987 241.726 146.461 242.221 147.07C242.721 147.674 243.028 148.354 243.143 149.109H241.08C240.898 148.474 240.518 147.958 239.94 147.562C239.362 147.161 238.698 146.961 237.948 146.961C236.901 146.961 236.023 147.336 235.315 148.086C234.606 148.836 234.252 149.768 234.252 150.883C234.252 152.003 234.606 152.943 235.315 153.703C236.023 154.458 236.901 154.836 237.948 154.836C238.708 154.836 239.38 154.625 239.963 154.203C240.552 153.776 240.929 153.224 241.096 152.547H243.182C242.958 153.76 242.359 154.75 241.385 155.516C240.416 156.276 239.27 156.656 237.948 156.656ZM251.145 156.656C250.359 156.656 249.616 156.508 248.918 156.211C248.221 155.914 247.622 155.51 247.122 155C246.627 154.49 246.234 153.878 245.942 153.164C245.655 152.451 245.512 151.69 245.512 150.883C245.512 150.081 245.655 149.326 245.942 148.617C246.234 147.904 246.627 147.294 247.122 146.789C247.622 146.279 248.221 145.878 248.918 145.586C249.616 145.289 250.359 145.141 251.145 145.141C251.994 145.141 252.793 145.31 253.543 145.648C254.299 145.987 254.924 146.461 255.418 147.07C255.918 147.674 256.226 148.354 256.34 149.109H254.278C254.096 148.474 253.715 147.958 253.137 147.562C252.559 147.161 251.895 146.961 251.145 146.961C250.098 146.961 249.221 147.336 248.512 148.086C247.804 148.836 247.45 149.768 247.45 150.883C247.45 152.003 247.804 152.943 248.512 153.703C249.221 154.458 250.098 154.836 251.145 154.836C251.905 154.836 252.577 154.625 253.161 154.203C253.749 153.776 254.127 153.224 254.293 152.547H256.379C256.155 153.76 255.556 154.75 254.583 155.516C253.614 156.276 252.468 156.656 251.145 156.656ZM259.186 145.297H265.796V147.094H261.061V149.734H265.28V151.523H261.061V154.711H265.796V156.5H259.186V145.297ZM272.524 156.656C271.321 156.656 270.326 156.302 269.54 155.594C268.754 154.88 268.36 153.977 268.36 152.883H270.22C270.22 153.482 270.433 153.969 270.86 154.344C271.293 154.714 271.847 154.898 272.524 154.898C273.16 154.898 273.678 154.753 274.079 154.461C274.48 154.164 274.681 153.781 274.681 153.312C274.681 153.047 274.61 152.815 274.47 152.617C274.329 152.419 274.139 152.26 273.899 152.141C273.665 152.016 273.392 151.906 273.079 151.812C272.772 151.719 272.446 151.628 272.102 151.539C271.764 151.451 271.423 151.357 271.079 151.258C270.741 151.159 270.415 151.029 270.102 150.867C269.795 150.706 269.522 150.518 269.282 150.305C269.048 150.091 268.86 149.815 268.72 149.477C268.579 149.133 268.509 148.742 268.509 148.305C268.509 147.383 268.866 146.625 269.579 146.031C270.293 145.438 271.199 145.141 272.298 145.141C272.923 145.141 273.485 145.234 273.985 145.422C274.491 145.609 274.899 145.867 275.212 146.195C275.53 146.518 275.772 146.891 275.938 147.312C276.105 147.729 276.188 148.177 276.188 148.656H274.267C274.251 148.146 274.058 147.729 273.688 147.406C273.319 147.078 272.834 146.914 272.235 146.914C271.668 146.914 271.209 147.042 270.86 147.297C270.517 147.547 270.345 147.878 270.345 148.289C270.345 148.539 270.415 148.755 270.556 148.938C270.696 149.115 270.886 149.258 271.126 149.367C271.366 149.477 271.639 149.576 271.946 149.664C272.259 149.753 272.584 149.839 272.923 149.922C273.267 150.005 273.61 150.099 273.954 150.203C274.298 150.302 274.623 150.438 274.931 150.609C275.243 150.776 275.519 150.974 275.759 151.203C275.998 151.427 276.188 151.719 276.329 152.078C276.47 152.438 276.54 152.849 276.54 153.312C276.54 153.948 276.366 154.521 276.017 155.031C275.673 155.542 275.194 155.94 274.579 156.227C273.97 156.513 273.285 156.656 272.524 156.656ZM283.175 156.656C281.972 156.656 280.977 156.302 280.191 155.594C279.404 154.88 279.011 153.977 279.011 152.883H280.87C280.87 153.482 281.084 153.969 281.511 154.344C281.943 154.714 282.498 154.898 283.175 154.898C283.81 154.898 284.329 154.753 284.73 154.461C285.131 154.164 285.331 153.781 285.331 153.312C285.331 153.047 285.261 152.815 285.12 152.617C284.98 152.419 284.79 152.26 284.55 152.141C284.316 152.016 284.042 151.906 283.73 151.812C283.422 151.719 283.097 151.628 282.753 151.539C282.415 151.451 282.073 151.357 281.73 151.258C281.391 151.159 281.066 151.029 280.753 150.867C280.446 150.706 280.172 150.518 279.933 150.305C279.698 150.091 279.511 149.815 279.37 149.477C279.23 149.133 279.159 148.742 279.159 148.305C279.159 147.383 279.516 146.625 280.23 146.031C280.943 145.438 281.849 145.141 282.948 145.141C283.573 145.141 284.136 145.234 284.636 145.422C285.141 145.609 285.55 145.867 285.863 146.195C286.18 146.518 286.422 146.891 286.589 147.312C286.756 147.729 286.839 148.177 286.839 148.656H284.917C284.902 148.146 284.709 147.729 284.339 147.406C283.969 147.078 283.485 146.914 282.886 146.914C282.318 146.914 281.86 147.042 281.511 147.297C281.167 147.547 280.995 147.878 280.995 148.289C280.995 148.539 281.066 148.755 281.206 148.938C281.347 149.115 281.537 149.258 281.777 149.367C282.016 149.477 282.29 149.576 282.597 149.664C282.909 149.753 283.235 149.839 283.573 149.922C283.917 150.005 284.261 150.099 284.605 150.203C284.948 150.302 285.274 150.438 285.581 150.609C285.894 150.776 286.17 150.974 286.409 151.203C286.649 151.427 286.839 151.719 286.98 152.078C287.12 152.438 287.191 152.849 287.191 153.312C287.191 153.948 287.016 154.521 286.667 155.031C286.323 155.542 285.844 155.94 285.23 156.227C284.62 156.513 283.935 156.656 283.175 156.656Z" fill="white"/>
</g>
</g>
<defs>
<filter id="filter0_dddd_396_3544" x="15" y="15" width="323" height="229.128" filterUnits="userSpaceOnUse" color-interpolation-filters="sRGB">
<feFlood flood-opacity="0" result="BackgroundImageFix"/>
<feColorMatrix in="SourceAlpha" type="matrix" values="0 0 0 0 0 0 0 0 0 0 0 0 0 0 0 0 0 0 127 0" result="hardAlpha"/>
<feOffset dx="4" dy="4"/>
<feGaussianBlur stdDeviation="6.5"/>
<feColorMatrix type="matrix" values="0 0 0 0 0.188235 0 0 0 0 0.188235 0 0 0 0 0.188235 0 0 0 0.1 0"/>
<feBlend mode="normal" in2="BackgroundImageFix" result="effect1_dropShadow_396_3544"/>
<feColorMatrix in="SourceAlpha" type="matrix" values="0 0 0 0 0 0 0 0 0 0 0 0 0 0 0 0 0 0 127 0" result="hardAlpha"/>
<feOffset dx="17" dy="16"/>
<feGaussianBlur stdDeviation="11.5"/>
<feColorMatrix type="matrix" values="0 0 0 0 0.188235 0 0 0 0 0.188235 0 0 0 0 0.188235 0 0 0 0.09 0"/>
<feBlend mode="normal" in2="effect1_dropShadow_396_3544" result="effect2_dropShadow_396_3544"/>
<feColorMatrix in="SourceAlpha" type="matrix" values="0 0 0 0 0 0 0 0 0 0 0 0 0 0 0 0 0 0 127 0" result="hardAlpha"/>
<feOffset dx="39" dy="36"/>
<feGaussianBlur stdDeviation="16"/>
<feColorMatrix type="matrix" values="0 0 0 0 0.188235 0 0 0 0 0.188235 0 0 0 0 0.188235 0 0 0 0.05 0"/>
<feBlend mode="normal" in2="effect2_dropShadow_396_3544" result="effect3_dropShadow_396_3544"/>
<feColorMatrix in="SourceAlpha" type="matrix" values="0 0 0 0 0 0 0 0 0 0 0 0 0 0 0 0 0 0 127 0" result="hardAlpha"/>
<feOffset dx="69" dy="63"/>
<feGaussianBlur stdDeviation="18.5"/>
<feColorMatrix type="matrix" values="0 0 0 0 0.188235 0 0 0 0 0.188235 0 0 0 0 0.188235 0 0 0 0.01 0"/>
<feBlend mode="normal" in2="effect3_dropShadow_396_3544" result="effect4_dropShadow_396_3544"/>
<feBlend mode="normal" in="SourceGraphic" in2="effect4_dropShadow_396_3544" result="shape"/>
</filter>
<filter id="filter1_dddd_396_3544" x="111" y="118" width="256" height="121" filterUnits="userSpaceOnUse" color-interpolation-filters="sRGB">
<feFlood flood-opacity="0" result="BackgroundImageFix"/>
<feColorMatrix in="SourceAlpha" type="matrix" values="0 0 0 0 0 0 0 0 0 0 0 0 0 0 0 0 0 0 127 0" result="hardAlpha"/>
<feOffset dx="2" dy="3"/>
<feGaussianBlur stdDeviation="3.5"/>
<feColorMatrix type="matrix" values="0 0 0 0 0.188235 0 0 0 0 0.188235 0 0 0 0 0.188235 0 0 0 0.1 0"/>
<feBlend mode="normal" in2="BackgroundImageFix" result="effect1_dropShadow_396_3544"/>
<feColorMatrix in="SourceAlpha" type="matrix" values="0 0 0 0 0 0 0 0 0 0 0 0 0 0 0 0 0 0 127 0" result="hardAlpha"/>
<feOffset dx="8" dy="10"/>
<feGaussianBlur stdDeviation="6.5"/>
<feColorMatrix type="matrix" values="0 0 0 0 0.188235 0 0 0 0 0.188235 0 0 0 0 0.188235 0 0 0 0.09 0"/>
<feBlend mode="normal" in2="effect1_dropShadow_396_3544" result="effect2_dropShadow_396_3544"/>
<feColorMatrix in="SourceAlpha" type="matrix" values="0 0 0 0 0 0 0 0 0 0 0 0 0 0 0 0 0 0 127 0" result="hardAlpha"/>
<feOffset dx="18" dy="23"/>
<feGaussianBlur stdDeviation="8.5"/>
<feColorMatrix type="matrix" values="0 0 0 0 0.188235 0 0 0 0 0.188235 0 0 0 0 0.188235 0 0 0 0.05 0"/>
<feBlend mode="normal" in2="effect2_dropShadow_396_3544" result="effect3_dropShadow_396_3544"/>
<feColorMatrix in="SourceAlpha" type="matrix" values="0 0 0 0 0 0 0 0 0 0 0 0 0 0 0 0 0 0 127 0" result="hardAlpha"/>
<feOffset dx="32" dy="40"/>
<feGaussianBlur stdDeviation="10.5"/>
<feColorMatrix type="matrix" values="0 0 0 0 0.188235 0 0 0 0 0.188235 0 0 0 0 0.188235 0 0 0 0.01 0"/>
<feBlend mode="normal" in2="effect3_dropShadow_396_3544" result="effect4_dropShadow_396_3544"/>
<feBlend mode="normal" in="SourceGraphic" in2="effect4_dropShadow_396_3544" result="shape"/>
</filter>
<clipPath id="clip0_396_3544">
<rect width="334" height="202" rx="20" fill="white"/>
</clipPath>
<clipPath id="clip1_396_3544">
<rect width="208" height="98.0961" fill="white" transform="translate(24 45.7993)"/>
</clipPath>
<clipPath id="clip2_396_3544">
<rect width="24" height="24" fill="white" transform="translate(142 138)"/>
</clipPath>
</defs>
</svg>
